<svg xmlns="http://www.w3.org/2000/svg" width="63.757" height="70.579" viewBox="0 0 63.757 70.579">
  <g id="contentamento-icon" transform="translate(-536.752 -816.463)">
    <g id="Grupo_1092" data-name="Grupo 1092" transform="translate(573.187 833.989)">
      <rect id="Retângulo_721" data-name="Retângulo 721" width="27.321" height="19.401" transform="translate(0)" fill="#b7bec0"/>
      <path id="Caminho_964" data-name="Caminho 964" d="M600.115,864.683v-8.712h8.712Z" transform="translate(-583.043 -840.134)" fill="#b7bec0"/>
    </g>
    <g id="Grupo_1093" data-name="Grupo 1093" transform="translate(577.776 840.395)">
      <rect id="Retângulo_722" data-name="Retângulo 722" width="17.064" height="1.659" transform="translate(0)" fill="#969696"/>
      <rect id="Retângulo_723" data-name="Retângulo 723" width="17.064" height="1.66" transform="translate(0 4.425)" fill="#969696"/>
    </g>
    <g id="Grupo_1096" data-name="Grupo 1096" transform="translate(540.578 851.678)">
      <path id="Caminho_965" data-name="Caminho 965" d="M571.291,871.75l.5-6.026c.57-.572-1.78-4.114-1.671-4.856l-3.676,5.18-5.387,5.7Z" transform="translate(-544.359 -858.585)" fill="#f4da80"/>
      <path id="Caminho_966" data-name="Caminho 966" d="M572.54,871.032l1.481-5.238v-4.039a3.59,3.59,0,0,0-3.591-3.591h-1.2c-.05,0-.1.005-.149.007V866.1Z" transform="translate(-545.608 -858.164)" fill="#f4da80"/>
      <path id="Caminho_967" data-name="Caminho 967" d="M541.283,892.661h23.353a4.284,4.284,0,0,0,4.286-4.285v-6.963a4.287,4.287,0,0,0-4.286-4.286H541.283Z" transform="translate(-541.283 -861.114)" fill="#f4da80"/>
      <g id="Grupo_1095" data-name="Grupo 1095" transform="translate(0.114 12.641)">
        <g id="Grupo_1094" data-name="Grupo 1094" transform="translate(1.689 0.797)">
          <rect id="Retângulo_724" data-name="Retângulo 724" width="12.984" height="21.13" fill="#e5e8ec"/>
        </g>
        <rect id="Retângulo_725" data-name="Retângulo 725" width="13.633" height="10.553" transform="translate(1.04 11.373)" fill="#cdd5d7"/>
        <rect id="Retângulo_726" data-name="Retângulo 726" width="11.705" height="11.351" transform="translate(0 11.373)" fill="#30363d"/>
        <rect id="Retângulo_727" data-name="Retângulo 727" width="11.705" height="11.366" fill="#484f59"/>
        <path id="Caminho_968" data-name="Caminho 968" d="M552.287,895.353a1.316,1.316,0,1,1-1.316-1.318A1.315,1.315,0,0,1,552.287,895.353Z" transform="translate(-542.699 -876.384)" fill="#cdd5d7"/>
      </g>
      <path id="Caminho_969" data-name="Caminho 969" d="M585.96,877.468h-3.877a6.445,6.445,0,0,0-.156-1.173h4.113a2.431,2.431,0,1,0,0-4.862h-9.985c-.092-.005-.183-.014-.274-.014H565.516a6.316,6.316,0,0,0-6.317,6.316V888a6.318,6.318,0,0,0,6.317,6.317h15.69a2.426,2.426,0,0,0,.686-4.754,6.218,6.218,0,0,0,.187-1.2h1.668a2.432,2.432,0,1,0,0-4.864H582.1v-1.17h3.862a2.432,2.432,0,0,0,0-4.864Z" transform="translate(-544.07 -860.226)" fill="#f4da80"/>
    </g>
    <g id="Grupo_1097" data-name="Grupo 1097" transform="translate(536.752 816.463)">
      <rect id="Retângulo_728" data-name="Retângulo 728" width="43.067" height="30.584" fill="#e5e8ec"/>
      <path id="Caminho_970" data-name="Caminho 970" d="M553.354,859.758V846.026H539.623Z" transform="translate(-537.199 -821.061)" fill="#e5e8ec"/>
    </g>
    <g id="Grupo_1098" data-name="Grupo 1098" transform="translate(543.617 825.825)">
      <rect id="Retângulo_729" data-name="Retângulo 729" width="29.336" height="1.872" fill="#b7bec0"/>
      <rect id="Retângulo_730" data-name="Retângulo 730" width="29.336" height="1.872" transform="translate(0 4.994)" fill="#b7bec0"/>
      <rect id="Retângulo_731" data-name="Retângulo 731" width="29.336" height="1.872" transform="translate(0 9.987)" fill="#b7bec0"/>
    </g>
  </g>
</svg>
