<svg xmlns="http://www.w3.org/2000/svg" width="66.336" height="70.515" viewBox="0 0 66.336 70.515">
  <g id="identidade-icon" transform="translate(-1225.2 -292.094)">
    <g id="Grupo_1079" data-name="Grupo 1079" transform="translate(1233.656 342.066)">
      <path id="Caminho_942" data-name="Caminho 942" d="M1249.056,358.366h-6.715l-5.927,20.543h6.716Z" transform="translate(-1236.414 -358.366)" fill="#b7bec0"/>
      <path id="Caminho_943" data-name="Caminho 943" d="M1271.516,358.366h6.715l5.926,20.543h-6.715Z" transform="translate(-1245.047 -358.366)" fill="#b7bec0"/>
    </g>
    <path id="Caminho_944" data-name="Caminho 944" d="M1272.809,314.323a27.069,27.069,0,1,0,0,38.275A27.094,27.094,0,0,0,1272.809,314.323Z" transform="translate(-0.345 -3.52)" fill="#f7f8fc"/>
    <path id="Caminho_945" data-name="Caminho 945" d="M1272.809,314.323a27.069,27.069,0,1,0,0,38.275A27.094,27.094,0,0,0,1272.809,314.323Z" transform="translate(-0.345 -3.52)" fill="#f7f8fc"/>
    <g id="Grupo_1080" data-name="Grupo 1080" transform="translate(1225.2 301.827)">
      <path id="Caminho_946" data-name="Caminho 946" d="M1273.21,313.23a28.125,28.125,0,1,0,0,39.769A28.152,28.152,0,0,0,1273.21,313.23Zm-5.072,34.7a20.951,20.951,0,1,1,0-29.627A20.957,20.957,0,0,1,1268.139,347.93Z" transform="translate(-1225.2 -305.002)" fill="#484f59"/>
      <path id="Caminho_947" data-name="Caminho 947" d="M1267.955,327.487a14.328,14.328,0,1,0,0,20.262A14.341,14.341,0,0,0,1267.955,327.487Zm-5.691,14.572a6.28,6.28,0,1,1,0-8.88A6.282,6.282,0,0,1,1262.264,342.059Z" transform="translate(-1229.7 -309.501)" fill="#484f59"/>
      <path id="Caminho_948" data-name="Caminho 948" d="M1273.21,313.23a28.125,28.125,0,1,0,0,39.769A28.152,28.152,0,0,0,1273.21,313.23Zm-5.072,34.7a20.951,20.951,0,1,1,0-29.627A20.957,20.957,0,0,1,1268.139,347.93Z" transform="translate(-1225.2 -305.002)" fill="#484f59"/>
      <path id="Caminho_949" data-name="Caminho 949" d="M1267.955,327.487a14.328,14.328,0,1,0,0,20.262A14.341,14.341,0,0,0,1267.955,327.487Zm-5.691,14.572a6.28,6.28,0,1,1,0-8.88A6.282,6.282,0,0,1,1262.264,342.059Z" transform="translate(-1229.7 -309.501)" fill="#484f59"/>
    </g>
    <g id="Grupo_1081" data-name="Grupo 1081" transform="translate(1252.811 329.502)">
      <path id="Caminho_950" data-name="Caminho 950" d="M1275.712,355.529c-.218.216-.449.41-.678.611l4.683,4.683c.225-.206.461-.4.679-.614.193-.192.359-.4.543-.6l-4.683-4.683C1276.074,355.129,1275.906,355.335,1275.712,355.529Z" transform="translate(-1265.068 -344.956)" fill="#cdd5d7"/>
      <path id="Caminho_951" data-name="Caminho 951" d="M1262.07,341.957a.859.859,0,0,0,0,1.217l3.993,3.991a6.073,6.073,0,0,0,.708-.578,6.23,6.23,0,0,0,.515-.63l-4-4A.857.857,0,0,0,1262.07,341.957Z" transform="translate(-1261.817 -341.704)" fill="#cdd5d7"/>
      <path id="Caminho_952" data-name="Caminho 952" d="M1287.535,366.208l-5.07-5.069c-.184.2-.35.406-.543.6-.217.219-.453.408-.679.614l5.071,5.07c.224-.209.461-.4.679-.615C1287.187,366.615,1287.35,366.4,1287.535,366.208Z" transform="translate(-1266.595 -346.484)" fill="#30363d"/>
      <path id="Caminho_953" data-name="Caminho 953" d="M1274.389,353.062l-5.719-5.719a6.23,6.23,0,0,1-.515.63,6.073,6.073,0,0,1-.708.578l5.721,5.722c.229-.2.46-.394.678-.611C1274.04,353.47,1274.208,353.263,1274.389,353.062Z" transform="translate(-1263.202 -343.091)" fill="#30363d"/>
    </g>
    <g id="Grupo_1086" data-name="Grupo 1086" transform="translate(1252.612 292.094)">
      <g id="Grupo_1082" data-name="Grupo 1082" transform="translate(19.82)">
        <path id="Caminho_954" data-name="Caminho 954" d="M1289.814,309.222l-1.977-5.928,11.2-11.2,1.976,5.931Z" transform="translate(-1287.837 -292.094)" fill="#ff876c"/>
        <path id="Caminho_955" data-name="Caminho 955" d="M1290.459,311.157l5.929,1.977,11.2-11.2-5.929-1.976Z" transform="translate(-1288.482 -294.028)" fill="#ffa38f"/>
      </g>
      <g id="Grupo_1085" data-name="Grupo 1085" transform="translate(0 5.213)">
        <g id="Grupo_1083" data-name="Grupo 1083">
          <path id="Caminho_956" data-name="Caminho 956" d="M1262.415,332.714a.86.86,0,0,1-.61-1.469l31.987-31.985a.86.86,0,1,1,1.216,1.217l-31.986,31.985A.855.855,0,0,1,1262.415,332.714Z" transform="translate(-1261.552 -299.007)" fill="#30363d"/>
        </g>
        <g id="Grupo_1084" data-name="Grupo 1084" transform="translate(0.072 0.039)">
          <path id="Caminho_957" data-name="Caminho 957" d="M1262.084,332.3a.431.431,0,0,1-.309-.128.438.438,0,0,1,0-.619l32.365-32.362a.437.437,0,0,1,.618.618l-32.363,32.364A.43.43,0,0,1,1262.084,332.3Z" transform="translate(-1261.647 -299.06)" fill="#484f59"/>
        </g>
      </g>
    </g>
  </g>
</svg>
