<svg xmlns="http://www.w3.org/2000/svg" width="68.813" height="67.027" viewBox="0 0 68.813 67.027">
  <g id="reputação-icon" transform="translate(-377.54 -645.796)">
    <g id="Grupo_1076" data-name="Grupo 1076" transform="translate(397.566 645.796)">
      <path id="Caminho_921" data-name="Caminho 921" d="M402.469,678.44c-.022-.252-.044-.506-.058-.764C402.426,677.931,402.447,678.186,402.469,678.44Z" transform="translate(-402.374 -651.958)" fill="#b7bec0"/>
      <path id="Caminho_922" data-name="Caminho 922" d="M402.593,679.7c-.017-.143-.039-.282-.053-.424C402.556,679.415,402.576,679.556,402.593,679.7Z" transform="translate(-402.399 -652.267)" fill="#b7bec0"/>
      <path id="Caminho_923" data-name="Caminho 923" d="M402.369,675.519c0-.589.026-1.171.067-1.749C402.392,674.349,402.371,674.934,402.369,675.519Z" transform="translate(-402.366 -651.203)" fill="#b7bec0"/>
      <path id="Caminho_924" data-name="Caminho 924" d="M402.764,680.925c0-.018-.006-.033-.009-.052C402.758,680.892,402.761,680.908,402.764,680.925Z" transform="translate(-402.44 -652.576)" fill="#b7bec0"/>
      <path id="Caminho_925" data-name="Caminho 925" d="M402.392,677.088c-.014-.326-.024-.653-.025-.983C402.368,676.432,402.378,676.761,402.392,677.088Z" transform="translate(-402.365 -651.654)" fill="#b7bec0"/>
      <path id="Caminho_926" data-name="Caminho 926" d="M402.471,673.141c.036-.456.1-.9.156-1.352C402.565,672.238,402.51,672.688,402.471,673.141Z" transform="translate(-402.385 -650.82)" fill="#b7bec0"/>
      <path id="Caminho_927" data-name="Caminho 927" d="M425.194,654.149a16.815,16.815,0,0,1,5.211-.83V645.8a23.183,23.183,0,0,0-7.533,1.193c-.556.181-1.1.386-1.63.6.532-.215,1.072-.419,1.628-.6Z" transform="translate(-406.014 -645.796)" fill="#b7bec0"/>
      <path id="Caminho_928" data-name="Caminho 928" d="M432.606,645.8h0Z" transform="translate(-408.21 -645.796)" fill="#b7bec0"/>
      <path id="Caminho_929" data-name="Caminho 929" d="M419.36,648.741c.342-.164.685-.326,1.037-.476Q419.87,648.493,419.36,648.741Z" transform="translate(-405.65 -646.273)" fill="#b7bec0"/>
      <path id="Caminho_930" data-name="Caminho 930" d="M427.9,705.9c-.464-.068-.924-.144-1.38-.237C426.973,705.749,427.432,705.832,427.9,705.9Z" transform="translate(-407.033 -657.367)" fill="#f0ca67"/>
      <path id="Caminho_931" data-name="Caminho 931" d="M405.916,690.254c-.136-.249-.261-.5-.389-.758C405.651,689.753,405.783,690,405.916,690.254Z" transform="translate(-402.976 -654.243)" fill="#f0ca67"/>
      <path id="Caminho_932" data-name="Caminho 932" d="M462.695,678.951c0,.054-.008.109-.013.162C462.687,679.06,462.69,679.005,462.695,678.951Z" transform="translate(-414.024 -652.205)" fill="#f0ca67"/>
      <path id="Caminho_933" data-name="Caminho 933" d="M430.306,706.176c-.149-.01-.3-.021-.449-.034C430.006,706.155,430.155,706.166,430.306,706.176Z" transform="translate(-407.679 -657.46)" fill="#f0ca67"/>
      <path id="Caminho_934" data-name="Caminho 934" d="M406.033,690.48a23.746,23.746,0,0,0,16.515,12.241A24.416,24.416,0,0,1,406.033,690.48Z" transform="translate(-403.074 -654.433)" fill="#f0ca67"/>
      <path id="Caminho_935" data-name="Caminho 935" d="M449.5,662.409a16.772,16.772,0,0,1,3.236,9.9h7.522v0h0c0,.44-.013.876-.035,1.311,0,.019,0,.039,0,.059.025-.454.04-.912.04-1.375a24.289,24.289,0,0,0-5.572-15.516c.312.383.615.775.909,1.182Z" transform="translate(-411.476 -647.922)" fill="#f0ca67"/>
      <path id="Caminho_936" data-name="Caminho 936" d="M433.917,645.832c-.435-.023-.871-.036-1.311-.036h0C433.046,645.8,433.482,645.811,433.917,645.832Z" transform="translate(-408.21 -645.796)" fill="#f0ca67"/>
      <path id="Caminho_937" data-name="Caminho 937" d="M450.377,700.281q.577-.417,1.129-.865C451.139,699.71,450.765,700,450.377,700.281Z" transform="translate(-411.645 -656.16)" fill="#484f59"/>
      <path id="Caminho_938" data-name="Caminho 938" d="M462.829,676.035c0,.441-.015.876-.035,1.311.023-.435.035-.871.035-1.311Z" transform="translate(-414.045 -651.641)" fill="#484f59"/>
      <path id="Caminho_939" data-name="Caminho 939" d="M436.663,684.109a16.86,16.86,0,1,1-15.118-29.674l-2.325-7.156c-.556.18-1.1.385-1.628.6-.161.064-.321.129-.48.2-.353.15-.7.312-1.037.476a23.813,23.813,0,0,0-13.468,18.5c-.06.449-.12.9-.156,1.352-.006.083-.01.165-.015.246-.041.578-.065,1.16-.067,1.749,0,.027,0,.052,0,.078s0,.038,0,.056c0,.33.011.658.025.983,0,.1.006.19.01.284.014.258.036.511.058.764.015.176.027.351.046.526.015.142.036.281.053.423.036.29.074.579.12.866,0,.019.006.035.009.052a24.234,24.234,0,0,0,2.227,6.9c.127.256.253.509.389.758a.383.383,0,0,0,.019.035,24.416,24.416,0,0,0,16.515,12.241.016.016,0,0,0,.009,0c.456.094.916.169,1.38.237q.652.092,1.315.152c.149.013.3.024.449.034.584.042,1.171.071,1.765.071a24.28,24.28,0,0,0,14.336-4.663Z" transform="translate(-402.365 -646.083)" fill="#484f59"/>
      <path id="Caminho_940" data-name="Caminho 940" d="M432.6,653.319a16.829,16.829,0,0,1,13.633,6.964l6.1-4.432c-.294-.407-.6-.8-.909-1.182a23.464,23.464,0,0,0-17.508-8.837c-.435-.022-.87-.036-1.311-.036h0v7.523Z" transform="translate(-408.209 -645.796)" fill="#ff876c"/>
      <path id="Caminho_941" data-name="Caminho 941" d="M450.443,694.9a23.418,23.418,0,0,0,8.8-16.347c0-.053.008-.108.013-.162.029-.325.058-.652.076-.983,0-.02,0-.039,0-.059.021-.435.036-.87.036-1.311v0h-7.522v0a16.829,16.829,0,0,1-6.963,13.634l4.43,6.1h0l0,0C449.7,695.481,450.077,695.19,450.443,694.9Z" transform="translate(-410.583 -651.64)" fill="#01bacc"/>
    </g>
    <g id="Grupo_1077" data-name="Grupo 1077" transform="translate(377.54 661.46)">
      <rect id="Retângulo_706" data-name="Retângulo 706" width="3.733" height="29.225" transform="translate(0 22.139)" fill="#01c6da"/>
      <rect id="Retângulo_707" data-name="Retângulo 707" width="3.733" height="22.943" transform="translate(4.734 28.421)" fill="#b7bec0"/>
      <rect id="Retângulo_708" data-name="Retângulo 708" width="3.731" height="43.32" transform="translate(9.469 8.043)" fill="#ff876c"/>
      <rect id="Retângulo_709" data-name="Retângulo 709" width="3.733" height="19.256" transform="translate(19.291 32.108)" fill="#01c6da"/>
      <rect id="Retângulo_710" data-name="Retângulo 710" width="3.734" height="8.623" transform="translate(24.024 42.741)" fill="#b7bec0"/>
      <rect id="Retângulo_711" data-name="Retângulo 711" width="3.733" height="28.593" transform="translate(28.759 22.771)" fill="#ff876c"/>
      <rect id="Retângulo_712" data-name="Retângulo 712" width="3.73" height="51.364" transform="translate(38.58)" fill="#01c6da"/>
      <rect id="Retângulo_713" data-name="Retângulo 713" width="3.733" height="35.655" transform="translate(43.313 15.709)" fill="#b7bec0"/>
      <rect id="Retângulo_714" data-name="Retângulo 714" width="3.732" height="45.301" transform="translate(48.048 6.063)" fill="#ff876c"/>
    </g>
  </g>
</svg>
