<svg xmlns="http://www.w3.org/2000/svg" width="16" height="16" viewBox="0 0 16 16">
  <path id="telefone-icon" d="M69.051,135.846l-.757,1.243s-2.877,3.946,3.288,10.155h0l.029.028.029.029h0c6.209,6.166,10.155,3.288,10.155,3.288l1.243-.757a1.465,1.465,0,0,0,.157-2.208l-1.482-1.482a1.465,1.465,0,0,0-1.915-.136l-1.577,1.008s-1.06.626-4.024-2.327-2.327-4.025-2.327-4.025l1.009-1.577a1.465,1.465,0,0,0-.136-1.915l-1.482-1.482A1.465,1.465,0,0,0,69.051,135.846Z" transform="translate(-67.623 -135.26)" fill="#fff"/>
</svg>
