<svg xmlns="http://www.w3.org/2000/svg" width="48" height="48" viewBox="0 0 48 48">
  <g id="whatsapp-botão-fixo" transform="translate(-20.25 20)">
    <path id="Caminho_535" data-name="Caminho 535" d="M44.25-20a24,24,0,1,0,24,24A24,24,0,0,0,44.25-20Z" fill="#1d1d1d"/>
    <g id="Grupo_493" data-name="Grupo 493" transform="translate(33.281 -6.969)">
      <path id="Caminho_536" data-name="Caminho 536" d="M181.188,129.687a10.789,10.789,0,0,1-15.975,9.357l-5.962,1.894,1.944-5.735a10.577,10.577,0,0,1-1.544-5.517,10.769,10.769,0,0,1,21.538,0ZM170.417,120.7a9.029,9.029,0,0,0-9.053,8.985,8.887,8.887,0,0,0,1.725,5.266l-1.13,3.336,3.478-1.105a9.008,9.008,0,1,0,4.981-16.482Zm5.439,11.444c-.067-.108-.243-.174-.506-.305s-1.562-.765-1.8-.851-.419-.132-.6.13-.68.852-.836,1.028-.308.2-.572.068a7.282,7.282,0,0,1-2.124-1.3,7.879,7.879,0,0,1-1.468-1.814c-.155-.262-.016-.4.115-.534s.264-.306.4-.46a1.745,1.745,0,0,0,.264-.436.488.488,0,0,0-.022-.46c-.066-.132-.593-1.419-.814-1.944s-.439-.437-.594-.437-.33-.021-.506-.021a.966.966,0,0,0-.7.326,2.931,2.931,0,0,0-.924,2.185,5.064,5.064,0,0,0,1.077,2.709,10.812,10.812,0,0,0,4.51,3.954c2.685,1.048,2.685.7,3.168.654A2.663,2.663,0,0,0,175.7,133.4,2.175,2.175,0,0,0,175.856,132.148Z" transform="translate(-159.25 -119)" fill="#fff"/>
    </g>
  </g>
</svg>
