<svg id="facebook" xmlns="http://www.w3.org/2000/svg" width="18" height="18" viewBox="0 0 18 18">
  <path id="facebook-2" data-name="facebook" d="M622.92,202.947a9,9,0,1,0,9,9A9.011,9.011,0,0,0,622.92,202.947Zm2.5,5.338a.136.136,0,0,1-.136.136H624.2a.481.481,0,0,0-.481.481v1.133h1.539a.136.136,0,0,1,.135.147l-.135,1.6a.136.136,0,0,1-.135.124h-1.4v5.3a.136.136,0,0,1-.136.136h-1.937a.136.136,0,0,1-.136-.136v-5.3h-.969a.136.136,0,0,1-.136-.136v-1.6a.136.136,0,0,1,.136-.136h.969V208.5a1.943,1.943,0,0,1,1.943-1.943h1.829a.136.136,0,0,1,.136.136Z" transform="translate(-613.92 -202.947)" fill="#fff"/>
</svg>
