<svg id="instagram" xmlns="http://www.w3.org/2000/svg" width="18" height="18" viewBox="0 0 18 18">
  <path id="instagram-2" data-name="instagram" d="M705,221.631a9,9,0,1,1,9-9A9.01,9.01,0,0,1,705,221.631Zm3.035-12.652a.666.666,0,1,0,.666.666A.666.666,0,0,0,708.038,208.979Zm-2.961.854a2.8,2.8,0,1,0,2.8,2.8A2.8,2.8,0,0,0,705.077,209.833Zm0,4.59a1.792,1.792,0,1,1,1.792-1.792A1.794,1.794,0,0,1,705.077,214.423Zm5.645-4.117a3.412,3.412,0,0,0-3.412-3.412h-4.5a3.412,3.412,0,0,0-3.412,3.412v4.5a3.412,3.412,0,0,0,3.412,3.412h4.5a3.412,3.412,0,0,0,3.412-3.412Zm-1.068,4.5a2.344,2.344,0,0,1-2.344,2.343h-4.5a2.343,2.343,0,0,1-2.343-2.343v-4.5a2.343,2.343,0,0,1,2.343-2.343h4.5a2.344,2.344,0,0,1,2.344,2.343Z" transform="translate(-696.003 -203.631)" fill="#fff"/>
</svg>
