<svg id="twitter" xmlns="http://www.w3.org/2000/svg" width="18" height="18" viewBox="0 0 18 18">
  <path id="twitter-2" data-name="twitter" d="M541.384,202.947a9,9,0,1,0,9,9A9.01,9.01,0,0,0,541.384,202.947Zm5.212,5.725a.253.253,0,0,1-.052.167,4.162,4.162,0,0,1-.835.873c-.048.036-.128.073-.128.141a6.47,6.47,0,0,1-1.706,4.721,6.352,6.352,0,0,1-6.166,1.442,5.9,5.9,0,0,1-1.192-.477c-.126-.069-.25-.14-.371-.22-.031-.025-.054-.048-.028-.064s.046-.014.142,0a4.208,4.208,0,0,0,1.784-.228,2.726,2.726,0,0,0,1.174-.623c0-.007.009-.007.014-.014-.078-.018-.156-.018-.234-.032a2.3,2.3,0,0,1-1.72-1.44c-.023-.057,0-.087.06-.076a2.47,2.47,0,0,0,.818-.025,1.285,1.285,0,0,1-.277-.085,2.218,2.218,0,0,1-1.367-1.768,1.329,1.329,0,0,1-.014-.248c0-.057.03-.076.081-.044a2.2,2.2,0,0,0,.835.234c-.094-.073-.181-.153-.266-.234a2.193,2.193,0,0,1-.374-2.591c.042-.062.069-.062.119,0a6.721,6.721,0,0,0,4.325,2.2c.046.007.05,0,.043-.05a2.323,2.323,0,0,1,.023-.9,2.205,2.205,0,0,1,.427-.856,2.291,2.291,0,0,1,.716-.585,2.235,2.235,0,0,1,.887-.251,2.124,2.124,0,0,1,.935.151,2.228,2.228,0,0,1,.61.374,1.02,1.02,0,0,1,.11.112.084.084,0,0,0,.087.023,5.405,5.405,0,0,0,1.259-.482.06.06,0,0,1,.056,0c.018.014.012.037,0,.055a1.951,1.951,0,0,1-.353.643c-.1.125-.352.434-.523.463a4.306,4.306,0,0,0,1.06-.3c.043-.019.039-.028.039,0Z" transform="translate(-532.384 -202.947)" fill="#fff"/>
</svg>
