<svg xmlns="http://www.w3.org/2000/svg" width="19" height="19" viewBox="0 0 19 19">
  <g id="whatsapp" transform="translate(0.5 0.5)">
    <path id="whatsapp-2" data-name="whatsapp" d="M-1235-37a9.01,9.01,0,0,1,9-9,9.01,9.01,0,0,1,9,9,9.01,9.01,0,0,1-9,9A9.01,9.01,0,0,1-1235-37Zm9.425,5.009a5.44,5.44,0,0,0,5.433-5.434,5.439,5.439,0,0,0-5.433-5.433,5.44,5.44,0,0,0-5.434,5.433,5.391,5.391,0,0,0,.869,2.945l-.825,1.818a.476.476,0,0,0,.07.5.477.477,0,0,0,.362.167.5.5,0,0,0,.125-.017l2.274-.624A5.44,5.44,0,0,0-1225.575-31.991Zm-2.258-1.56a.469.469,0,0,0-.239-.065.5.5,0,0,0-.126.016l-1.485.409.517-1.14a.471.471,0,0,0-.047-.473,4.455,4.455,0,0,1-.846-2.621,4.489,4.489,0,0,1,4.485-4.485,4.489,4.489,0,0,1,4.485,4.485,4.489,4.489,0,0,1-4.485,4.485A4.476,4.476,0,0,1-1227.833-33.55Zm.1-6.192a1.394,1.394,0,0,0-.483,1.1,1.529,1.529,0,0,0,.043.35,2.907,2.907,0,0,0,.337.775,5.791,5.791,0,0,0,.351.533,5.4,5.4,0,0,0,1.521,1.413,4.582,4.582,0,0,0,.949.451,2.1,2.1,0,0,0,1.105.175,1.338,1.338,0,0,0,1-.745.643.643,0,0,0,.047-.38c-.058-.262-.412-.418-.624-.544a.929.929,0,0,0-.792-.178c-.205.085-.337.406-.47.571a.2.2,0,0,1-.255.056,3.588,3.588,0,0,1-1.79-1.534.219.219,0,0,1,.028-.3,1.209,1.209,0,0,0,.325-.527,1.152,1.152,0,0,0-.145-.625,1.48,1.48,0,0,0-.462-.695.5.5,0,0,0-.246-.062A.716.716,0,0,0-1227.732-39.742Z" transform="translate(1235 46)" fill="#fff" stroke="rgba(0,0,0,0)" stroke-miterlimit="10" stroke-width="1"/>
  </g>
</svg>
