<svg xmlns="http://www.w3.org/2000/svg" width="143.534" height="49.025" viewBox="0 0 143.534 49.025">
  <g id="logo-e-commerce" transform="translate(0 0)" style="isolation: isolate">
    <g id="agencia-digital" transform="translate(0.186 39.858)">
      <path id="a" d="M236.755,622.138l-.866-2.212H233.1l-.856,2.212h-.818l2.75-6.984h.68l2.735,6.984Zm-1.118-2.94-.809-2.155q-.157-.409-.324-1a8.988,8.988,0,0,1-.3,1l-.818,2.155Z" transform="translate(-231.427 -613.066)" fill="#fff"/>
      <path id="g" d="M283.561,618.257h2.364v3.382a7.607,7.607,0,0,1-1.123.267,8.576,8.576,0,0,1-1.323.09,3.2,3.2,0,0,1-2.459-.94,3.7,3.7,0,0,1-.88-2.633,3.979,3.979,0,0,1,.435-1.9,2.947,2.947,0,0,1,1.254-1.246,4.063,4.063,0,0,1,1.917-.431,5.239,5.239,0,0,1,2.074.409l-.314.714a4.632,4.632,0,0,0-1.813-.4,2.6,2.6,0,0,0-1.984.756,2.936,2.936,0,0,0-.714,2.1,3,3,0,0,0,.688,2.136,2.647,2.647,0,0,0,2.019.728,6.006,6.006,0,0,0,1.413-.167V618.98h-1.556Z" transform="translate(-268.841 -612.829)" fill="#fff"/>
      <path id="e" d="M335.726,615.223h-3.877v-6.955h3.877v.718h-3.069v2.241h2.883v.714h-2.883V614.5h3.069Zm-3.582-7.621q.6-.647.847-.952a4,4,0,0,0,.352-.5h.79a3.292,3.292,0,0,0,.364.516q.26.316.854.935v.109h-.566a6.677,6.677,0,0,1-1.051-.885,6.789,6.789,0,0,1-1.042.885h-.547Z" transform="translate(-308.554 -606.151)" fill="#fff"/>
      <path id="n" d="M380.212,622.232h-.923l-3.8-5.837h-.038q.076,1.027.076,1.884v3.953h-.747v-6.955h.914l3.791,5.813h.038q-.009-.128-.043-.825t-.024-1v-3.991h.757Z" transform="translate(-341.525 -613.16)" fill="#fff"/>
      <path id="c" d="M427.8,615.569a2.273,2.273,0,0,0-1.81.764,3.079,3.079,0,0,0-.664,2.091,3.141,3.141,0,0,0,.64,2.11,2.274,2.274,0,0,0,1.824.745,6.225,6.225,0,0,0,1.66-.262v.709a5.107,5.107,0,0,1-1.784.271,3.018,3.018,0,0,1-2.371-.932,3.84,3.84,0,0,1-.835-2.65,4.18,4.18,0,0,1,.4-1.884,2.883,2.883,0,0,1,1.161-1.246,3.512,3.512,0,0,1,1.786-.438,4.308,4.308,0,0,1,1.912.4l-.342.695A3.685,3.685,0,0,0,427.8,615.569Z" transform="translate(-379.679 -612.829)" fill="#fff"/>
      <path id="i" d="M472.083,622.232v-6.955h.809v6.955Z" transform="translate(-416.257 -613.16)" fill="#fff"/>
      <path id="a-2" data-name="a" d="M504.571,622.138l-.866-2.212h-2.788l-.856,2.212h-.818l2.75-6.984h.68l2.735,6.984Zm-1.118-2.94-.809-2.155q-.157-.409-.324-1a8.939,8.939,0,0,1-.3,1L501.2,619.2Z" transform="translate(-437.116 -613.066)" fill="#fff"/>
      <path id="d" d="M585.55,618.688a3.512,3.512,0,0,1-.935,2.633,3.7,3.7,0,0,1-2.69.911H580v-6.955h2.131a3.122,3.122,0,0,1,3.42,3.411Zm-.856.029a2.8,2.8,0,0,0-.683-2.05,2.735,2.735,0,0,0-2.029-.69h-1.175v5.556h.984a3,3,0,0,0,2.174-.711A2.816,2.816,0,0,0,584.693,618.716Z" transform="translate(-499.138 -613.16)" fill="#fff"/>
      <path id="i-2" data-name="i" d="M630.188,622.232v-6.955H631v6.955Z" transform="translate(-537.686 -613.16)" fill="#fff"/>
      <path id="g-2" data-name="g" d="M663.331,618.257H665.7v3.382a7.6,7.6,0,0,1-1.123.267,8.574,8.574,0,0,1-1.322.09,3.2,3.2,0,0,1-2.459-.94,3.7,3.7,0,0,1-.88-2.633,3.981,3.981,0,0,1,.435-1.9,2.946,2.946,0,0,1,1.254-1.246,4.06,4.06,0,0,1,1.917-.431,5.24,5.24,0,0,1,2.074.409l-.314.714a4.63,4.63,0,0,0-1.812-.4,2.6,2.6,0,0,0-1.984.756,2.935,2.935,0,0,0-.714,2.1,3,3,0,0,0,.688,2.136,2.646,2.646,0,0,0,2.019.728,6,6,0,0,0,1.413-.167V618.98h-1.556Z" transform="translate(-560.513 -612.829)" fill="#fff"/>
      <path id="i-3" data-name="i" d="M711.619,622.232v-6.955h.809v6.955Z" transform="translate(-600.227 -613.16)" fill="#fff"/>
      <path id="t" d="M742.16,622.232h-.809V616h-2.2v-.718h5.214V616h-2.2Z" transform="translate(-621.37 -613.16)" fill="#fff"/>
      <path id="a-3" data-name="a" d="M786.914,622.138l-.866-2.212h-2.788l-.856,2.212h-.818l2.75-6.984h.68l2.735,6.984ZM785.8,619.2l-.809-2.155q-.157-.409-.323-1a9.036,9.036,0,0,1-.3,1l-.818,2.155Z" transform="translate(-653.963 -613.066)" fill="#fff"/>
      <path id="l" d="M831.858,622.232v-6.955h.809V621.5h3.069v.733Z" transform="translate(-692.573 -613.16)" fill="#fff"/>
    </g>
    <g id="mojo">
      <path id="m" d="M284.562,440.767a16.3,16.3,0,0,0-5.153-3.19,17.283,17.283,0,0,0-6.352-1.175,16.554,16.554,0,0,0-4.564.635,17.3,17.3,0,0,0-7.512,4.423,15.3,15.3,0,0,0-1.029,1.144q-.468-.585-1-1.132a17.006,17.006,0,0,0-3.35-2.659,16.674,16.674,0,0,0-4.121-1.777,17.1,17.1,0,0,0-4.645-.633,16.675,16.675,0,0,0-6.248,1.18,17.222,17.222,0,0,0-5.124,3.17,14.921,14.921,0,0,0-3.538,4.782,13.8,13.8,0,0,0-1.3,5.905V463.6a3,3,0,0,0,3.1,2.876h0a3,3,0,0,0,3.1-2.876V451.439a8.305,8.305,0,0,1,.794-3.577,9.636,9.636,0,0,1,2.162-2.966,10.467,10.467,0,0,1,3.2-2.005,10.462,10.462,0,0,1,7.712,0,10.482,10.482,0,0,1,3.2,2.006,9.65,9.65,0,0,1,2.162,2.965,8.319,8.319,0,0,1,.794,3.577V463.6a3,3,0,0,0,3.1,2.876h0a3,3,0,0,0,3.1-2.876V451.439a8.305,8.305,0,0,1,.794-3.577A9.629,9.629,0,0,1,266,444.9a10.465,10.465,0,0,1,3.2-2.005,10.462,10.462,0,0,1,7.712,0,10.474,10.474,0,0,1,3.2,2.006,9.645,9.645,0,0,1,2.162,2.965,8.319,8.319,0,0,1,.795,3.577V463.6a3,3,0,0,0,3.1,2.876h0a3,3,0,0,0,3.1-2.876V451.439A14.074,14.074,0,0,0,288,445.547,14.976,14.976,0,0,0,284.562,440.767Z" transform="translate(-230.625 -435.956)" fill="#fff"/>
      <path id="o" d="M526.224,440.751a17.219,17.219,0,0,0-5.124-3.17,16.672,16.672,0,0,0-6.247-1.18,17.209,17.209,0,0,0-6.387,1.177,16.355,16.355,0,0,0-5.118,3.188,14.964,14.964,0,0,0-3.439,4.78,14.4,14.4,0,0,0,0,11.816,15.031,15.031,0,0,0,3.436,4.747,16.353,16.353,0,0,0,5.118,3.188,17.207,17.207,0,0,0,6.387,1.177,16.663,16.663,0,0,0,6.247-1.18,17.189,17.189,0,0,0,5.124-3.169,15.017,15.017,0,0,0,3.536-4.751,14.1,14.1,0,0,0,0-11.843A14.946,14.946,0,0,0,526.224,440.751Zm-11.371,19.973a10.18,10.18,0,0,1-3.857-.737,10.452,10.452,0,0,1-3.2-2.006,9.625,9.625,0,0,1-2.162-2.966,8.452,8.452,0,0,1,0-7.153A9.631,9.631,0,0,1,507.8,444.9a10.467,10.467,0,0,1,3.2-2.005,10.462,10.462,0,0,1,7.712,0,10.482,10.482,0,0,1,3.2,2.006,9.646,9.646,0,0,1,2.162,2.965,8.452,8.452,0,0,1,0,7.154,9.637,9.637,0,0,1-2.162,2.966,10.468,10.468,0,0,1-3.2,2.006A10.19,10.19,0,0,1,514.852,460.724Z" transform="translate(-436.468 -435.956)" fill="#43b8c8"/>
      <path id="j" d="M632.84,434.331a2.737,2.737,0,0,0-2.829,2.624v17.593a5.831,5.831,0,0,1-6,5.57,6.36,6.36,0,0,1-4.411-1.768,16.244,16.244,0,0,1-2.475,2.812q-.632.57-1.321,1.077a12.085,12.085,0,0,0,8.206,3.181c6.409,0,11.663-4.82,11.721-10.765v-17.7A2.753,2.753,0,0,0,632.84,434.331Z" transform="translate(-526.449 -434.331)" fill="#43b8c8"/>
      <path id="o-2" data-name="o" d="M740.728,445.534a14.948,14.948,0,0,0-3.538-4.782,17.219,17.219,0,0,0-5.124-3.17,16.672,16.672,0,0,0-6.248-1.18,17.212,17.212,0,0,0-6.387,1.177,16.354,16.354,0,0,0-5.118,3.188,14.961,14.961,0,0,0-3.439,4.78,14.4,14.4,0,0,0,0,11.816,15.026,15.026,0,0,0,3.436,4.747,16.344,16.344,0,0,0,5.118,3.188,17.207,17.207,0,0,0,6.387,1.177,16.663,16.663,0,0,0,6.248-1.18,17.188,17.188,0,0,0,5.124-3.169,15.019,15.019,0,0,0,3.536-4.751,14.1,14.1,0,0,0,0-11.843Zm-14.909,15.19a10.182,10.182,0,0,1-3.857-.737,10.452,10.452,0,0,1-3.2-2.006,9.621,9.621,0,0,1-2.162-2.966,8.453,8.453,0,0,1,0-7.153,9.631,9.631,0,0,1,2.162-2.966,10.466,10.466,0,0,1,3.2-2.005,10.463,10.463,0,0,1,7.712,0,10.482,10.482,0,0,1,3.2,2.006,9.645,9.645,0,0,1,2.162,2.965,8.452,8.452,0,0,1,0,7.154,9.642,9.642,0,0,1-2.162,2.966,10.468,10.468,0,0,1-3.2,2.006A10.191,10.191,0,0,1,725.818,460.724Z" transform="translate(-598.495 -435.956)" fill="#43b8c8"/>
    </g>
  </g>
</svg>
