<svg xmlns="http://www.w3.org/2000/svg" width="135.934" height="131.872" viewBox="0 0 135.934 131.872">
  <g id="branding-icon" transform="translate(-91.67 -363.753)">
    <circle id="Background" cx="65.936" cy="65.936" r="65.936" transform="translate(93.701 363.753)" fill="#ff8994"/>
    <g id="Branding_Design" data-name="Branding Design">
      <g id="Grupo_500" data-name="Grupo 500">
        <rect id="Retângulo_178" data-name="Retângulo 178" width="3.066" height="21.428" transform="translate(188.216 449.915) rotate(-0.063)" fill="#f04c51"/>
        <path id="Caminho_537" data-name="Caminho 537" d="M189.7,473.189a.249.249,0,1,1,.152,0l0,1.734,1.315-3.219-2.789,0,1.322,3.217Z" fill="#d1d2d3"/>
        <rect id="Retângulo_179" data-name="Retângulo 179" width="3.066" height="0.361" transform="translate(188.231 471.351) rotate(-0.063)" fill="#d1d2d3"/>
        <path id="Caminho_538" data-name="Caminho 538" d="M189.407,451.117h-1.2l0,1.577h.566l.007,6.571h.633l-.007-6.571,1.873,0,0-1.577Z" fill="#0f142b"/>
        <rect id="Retângulo_180" data-name="Retângulo 180" width="1.557" height="21.426" transform="translate(189.745 449.916)" opacity="0.1" style="isolation: isolate"/>
      </g>
      <g id="Grupo_505" data-name="Grupo 505">
        <g id="Grupo_501" data-name="Grupo 501">
          <path id="Caminho_539" data-name="Caminho 539" d="M186.382,450.646c0-.4-.447-.731-.992-.731h-.458c-.546,0-.992.329-.991.731s.446.731.992.73h.458C185.936,451.377,186.382,451.048,186.382,450.646Z" fill="#e7e6e6"/>
        </g>
        <rect id="Retângulo_181" data-name="Retângulo 181" width="2.441" height="20.999" transform="translate(183.947 450.671)" fill="#f04c51"/>
        <g id="Grupo_502" data-name="Grupo 502">
          <path id="Caminho_540" data-name="Caminho 540" d="M183.955,471.671l1.207,3.361-.583-3.361Z" fill="#231f20" opacity="0.2" style="isolation: isolate"/>
          <path id="Caminho_541" data-name="Caminho 541" d="M185.19,475.032l.576-3.362h-1.187l.583,3.361.014.04Z" fill="#231f20" opacity="0.4" style="isolation: isolate"/>
          <path id="Caminho_542" data-name="Caminho 542" d="M186.393,471.669h-.627l-.576,3.362Z" fill="#231f20" opacity="0.5" style="isolation: isolate"/>
          <rect id="Retângulo_182" data-name="Retângulo 182" width="1.187" height="20.999" transform="translate(184.573 450.671)" fill="#231f20" opacity="0.4" style="isolation: isolate"/>
          <rect id="Retângulo_183" data-name="Retângulo 183" width="0.627" height="20.999" transform="translate(185.761 450.67)" fill="#231f20" opacity="0.5" style="isolation: isolate"/>
          <rect id="Retângulo_184" data-name="Retângulo 184" width="0.627" height="20.999" transform="translate(183.947 450.671)" fill="#231f20" opacity="0.2" style="isolation: isolate"/>
        </g>
        <g id="Grupo_503" data-name="Grupo 503">
          <path id="Caminho_543" data-name="Caminho 543" d="M186.393,471.669l-1.217,3.4-1.221-3.4Z" fill="#e9a954"/>
        </g>
        <path id="Caminho_544" data-name="Caminho 544" d="M185.19,475.032l-.014.039-.014-.04.014.082Z" fill="none"/>
        <g id="Grupo_504" data-name="Grupo 504">
          <path id="Caminho_545" data-name="Caminho 545" d="M184.907,471.67h0Z" fill="none"/>
        </g>
        <path id="Caminho_546" data-name="Caminho 546" d="M184.908,474.325l.268.746.267-.747Z" fill="#231f20"/>
      </g>
      <g id="Grupo_506" data-name="Grupo 506">
        <rect id="Retângulo_185" data-name="Retângulo 185" width="5.317" height="10.921" transform="translate(176.455 450.454)" fill="#fff8ea"/>
        <rect id="Retângulo_186" data-name="Retângulo 186" width="5.636" height="7.946" transform="translate(176.295 451.941)" fill="#f04c51"/>
      </g>
      <path id="Caminho_547" data-name="Caminho 547" d="M177.062,442.874a2.726,2.726,0,0,1-2.718,2.718H101.493a2.726,2.726,0,0,1-2.718-2.718v-53.09a2.726,2.726,0,0,1,2.718-2.718h72.851a2.726,2.726,0,0,1,2.718,2.718Z" fill="#0f142b"/>
      <rect id="Retângulo_187" data-name="Retângulo 187" width="69.811" height="45.636" transform="translate(103.013 390.885)" fill="#fff"/>
      <path id="Caminho_548" data-name="Caminho 548" d="M182.3,440.252H147.1v1.181H128.732v-1.181H91.67v3.475a1.87,1.87,0,0,0,1.865,1.865H182.3a1.87,1.87,0,0,0,1.865-1.865v-3.475Z" fill="#f04c51"/>
      <g id="Grupo_507" data-name="Grupo 507">
        <rect id="Retângulo_188" data-name="Retângulo 188" width="43.792" height="24.121" transform="translate(130.769 450.454)" fill="#f04c51"/>
        <path id="Caminho_549" data-name="Caminho 549" d="M152.666,464.752l-21.9-14.3h43.792Z" fill="#0f142b"/>
      </g>
      <g id="Grupo_509" data-name="Grupo 509">
        <circle id="Elipse_6" data-name="Elipse 6" cx="12.657" cy="12.657" r="12.657" transform="translate(125.261 399.819)" fill="#f04c51"/>
        <path id="Caminho_550" data-name="Caminho 550" d="M150.574,412.649l-7.487-7.487-2.605,4.508-4.508-4.508-3.224,14.629,5.341,5.34A12.655,12.655,0,0,0,150.574,412.649Z" opacity="0.1" style="isolation: isolate"/>
        <g id="Grupo_508" data-name="Grupo 508">
          <path id="Caminho_551" data-name="Caminho 551" d="M135.974,413.591v6.2H132.75V405.162h3.224v6.211h3.889v-6.211h3.224v14.629h-3.224v-6.2Z" fill="#fff"/>
        </g>
      </g>
      <g id="Grupo_513" data-name="Grupo 513">
        <g id="Grupo_510" data-name="Grupo 510">
          <path id="Caminho_552" data-name="Caminho 552" d="M196.341,470.187a1.33,1.33,0,0,1-1.326-1.326V451.819a1.33,1.33,0,0,1,1.326-1.327h29.576a1.33,1.33,0,0,1,1.326,1.327v17.042a1.33,1.33,0,0,1-1.326,1.326Z" fill="#0f142b"/>
        </g>
        <rect id="Retângulo_189" data-name="Retângulo 189" width="0.365" height="3.292" transform="translate(225.874 458.693)" fill="#fff"/>
        <path id="Caminho_553" data-name="Caminho 553" d="M224.846,452.384H198.509V468.3h26.337Z" fill="#fff"/>
        <g id="Grupo_512" data-name="Grupo 512">
          <circle id="Elipse_7" data-name="Elipse 7" cx="5.501" cy="5.501" r="5.501" transform="translate(206.177 454.839)" fill="#f04c51"/>
          <path id="Caminho_554" data-name="Caminho 554" d="M217.178,460.415l-3.254-3.254-1.132,1.959-1.959-1.959-1.4,6.357,2.321,2.321A5.5,5.5,0,0,0,217.178,460.415Z" opacity="0.1" style="isolation: isolate"/>
          <g id="Grupo_511" data-name="Grupo 511">
            <path id="Caminho_555" data-name="Caminho 555" d="M210.833,460.824v2.694h-1.4v-6.357h1.4v2.7h1.69v-2.7h1.4v6.357h-1.4v-2.694Z" fill="#fff"/>
          </g>
        </g>
      </g>
      <g id="Grupo_517" data-name="Grupo 517">
        <rect id="Retângulo_190" data-name="Retângulo 190" width="24.367" height="14.848" transform="translate(101.153 452.915)" fill="#d1d3d4"/>
        <rect id="Retângulo_191" data-name="Retângulo 191" width="24.367" height="14.848" transform="translate(99.901 451.626)" fill="#e6e7e8"/>
        <g id="Grupo_516" data-name="Grupo 516">
          <rect id="Retângulo_192" data-name="Retângulo 192" width="24.367" height="14.848" transform="translate(98.682 450.465)" fill="#fff"/>
          <g id="Grupo_515" data-name="Grupo 515">
            <circle id="Elipse_8" data-name="Elipse 8" cx="5.501" cy="5.501" r="5.501" transform="translate(105.365 452.389)" fill="#f04c51"/>
            <path id="Caminho_556" data-name="Caminho 556" d="M116.365,457.964l-3.253-3.253-1.132,1.959-1.959-1.959-1.4,6.357,2.321,2.321A5.5,5.5,0,0,0,116.365,457.964Z" opacity="0.1" style="isolation: isolate"/>
            <g id="Grupo_514" data-name="Grupo 514">
              <path id="Caminho_557" data-name="Caminho 557" d="M110.021,458.374v2.694h-1.4V454.71h1.4v2.7h1.69v-2.7h1.4v6.358h-1.4v-2.694Z" fill="#fff"/>
            </g>
          </g>
        </g>
      </g>
      <g id="Grupo_521" data-name="Grupo 521">
        <rect id="Retângulo_193" data-name="Retângulo 193" width="42.437" height="58.527" transform="translate(185.167 387.066)" fill="#fff"/>
        <g id="Grupo_519" data-name="Grupo 519">
          <circle id="Elipse_9" data-name="Elipse 9" cx="3.575" cy="3.575" r="3.575" transform="translate(202.811 391.066)" fill="#f04c51"/>
          <path id="Caminho_558" data-name="Caminho 558" d="M209.959,394.69l-2.114-2.115-.736,1.273-1.273-1.273-.91,4.132,1.508,1.508A3.575,3.575,0,0,0,209.959,394.69Z" opacity="0.1" style="isolation: isolate"/>
          <g id="Grupo_518" data-name="Grupo 518">
            <path id="Caminho_559" data-name="Caminho 559" d="M205.836,394.956v1.751h-.91v-4.131h.91v1.754h1.1v-1.754h.91v4.131h-.91v-1.751Z" fill="#fff"/>
          </g>
        </g>
        <g id="Grupo_520" data-name="Grupo 520">
          <rect id="Retângulo_194" data-name="Retângulo 194" width="34.317" height="1.828" transform="translate(189.227 400.395)" fill="#e6e7e8"/>
          <rect id="Retângulo_195" data-name="Retângulo 195" width="34.317" height="1.828" transform="translate(189.227 405.313)" fill="#e6e7e8"/>
          <rect id="Retângulo_196" data-name="Retângulo 196" width="34.317" height="1.828" transform="translate(189.227 410.232)" fill="#e6e7e8"/>
          <rect id="Retângulo_197" data-name="Retângulo 197" width="34.317" height="1.828" transform="translate(189.227 415.15)" fill="#e6e7e8"/>
          <rect id="Retângulo_198" data-name="Retângulo 198" width="34.317" height="1.828" transform="translate(189.227 420.069)" fill="#e6e7e8"/>
          <rect id="Retângulo_199" data-name="Retângulo 199" width="34.317" height="1.828" transform="translate(189.227 424.987)" fill="#e6e7e8"/>
          <rect id="Retângulo_200" data-name="Retângulo 200" width="34.317" height="1.828" transform="translate(189.227 429.906)" fill="#e6e7e8"/>
          <rect id="Retângulo_201" data-name="Retângulo 201" width="34.317" height="1.828" transform="translate(189.227 434.824)" fill="#e6e7e8"/>
          <rect id="Retângulo_202" data-name="Retângulo 202" width="34.317" height="1.828" transform="translate(189.227 439.743)" fill="#e6e7e8"/>
        </g>
      </g>
    </g>
  </g>
</svg>
