<svg xmlns="http://www.w3.org/2000/svg" width="131.872" height="133.578" viewBox="0 0 131.872 133.578">
  <g id="design-icon" transform="translate(-312.123 -363.97)">
    <circle id="Background" cx="65.936" cy="65.936" r="65.936" transform="translate(312.123 363.97)" fill="#67b3cb"/>
    <g id="Graphic_Design" data-name="Graphic Design">
      <g id="Grupo_536" data-name="Grupo 536">
        <rect id="Retângulo_205" data-name="Retângulo 205" width="18.531" height="11.981" transform="translate(375.061 436.734)" fill="#d1d3d4"/>
        <g id="Grupo_523" data-name="Grupo 523">
          <path id="Caminho_560" data-name="Caminho 560" d="M430.159,436.624a2.407,2.407,0,0,1-2.4,2.4H340.893a2.407,2.407,0,0,1-2.4-2.4V373.059a2.407,2.407,0,0,1,2.4-2.4h86.866a2.407,2.407,0,0,1,2.4,2.4v63.565Z" fill="#d1d3d4"/>
          <path id="Caminho_561" data-name="Caminho 561" d="M430.159,436.624a2.407,2.407,0,0,1-2.4,2.4H340.893a2.407,2.407,0,0,1-2.4-2.4V373.059a2.407,2.407,0,0,1,2.4-2.4h86.866a2.407,2.407,0,0,1,2.4,2.4v63.565Z" fill="none"/>
        </g>
        <path id="Caminho_562" data-name="Caminho 562" d="M427.76,370.659H340.893a2.407,2.407,0,0,0-2.4,2.4v54.169l91.666-.136V373.059A2.407,2.407,0,0,0,427.76,370.659Z" fill="#2b3451"/>
        <rect id="Retângulo_206" data-name="Retângulo 206" width="85.626" height="49.901" transform="translate(341.514 373.811)" fill="#808285"/>
        <rect id="Retângulo_207" data-name="Retângulo 207" width="25.953" height="4.432" transform="translate(371.35 447.558)" fill="#d1d3d4"/>
        <rect id="Retângulo_208" data-name="Retângulo 208" width="18.531" height="2.889" transform="translate(375.061 439.275)" opacity="0.1" style="isolation: isolate"/>
        <circle id="Elipse_10" data-name="Elipse 10" cx="2.231" cy="2.231" r="2.231" transform="translate(382.096 430.405)" fill="#0f142b"/>
        <rect id="Retângulo_209" data-name="Retângulo 209" width="59.629" height="39.509" transform="translate(348.486 382.193)" fill="#fff"/>
        <rect id="Retângulo_210" data-name="Retângulo 210" width="85.626" height="5.817" transform="translate(341.514 373.811)" fill="#bcbec0"/>
        <rect id="Retângulo_211" data-name="Retângulo 211" width="4.766" height="33.928" transform="translate(341.514 379.629)" fill="#d1d3d4"/>
        <rect id="Retângulo_212" data-name="Retângulo 212" width="16.224" height="44.083" transform="translate(410.915 379.629)" fill="#d1d3d4"/>
        <g id="Grupo_534" data-name="Grupo 534">
          <g id="Grupo_524" data-name="Grupo 524">
            <rect id="Retângulo_213" data-name="Retângulo 213" width="1.61" height="1.61" transform="translate(341.876 380.583)" fill="#808285"/>
            <rect id="Retângulo_214" data-name="Retângulo 214" width="1.61" height="1.61" transform="translate(344.231 380.583)" fill="#808285"/>
          </g>
          <g id="Grupo_525" data-name="Grupo 525">
            <rect id="Retângulo_215" data-name="Retângulo 215" width="1.61" height="1.61" transform="translate(341.876 383.4)" fill="#808285"/>
            <rect id="Retângulo_216" data-name="Retângulo 216" width="1.61" height="1.61" transform="translate(344.231 383.4)" fill="#808285"/>
          </g>
          <g id="Grupo_526" data-name="Grupo 526">
            <rect id="Retângulo_217" data-name="Retângulo 217" width="1.61" height="1.61" transform="translate(341.876 386.218)" fill="#808285"/>
            <rect id="Retângulo_218" data-name="Retângulo 218" width="1.61" height="1.61" transform="translate(344.231 386.218)" fill="#808285"/>
          </g>
          <g id="Grupo_527" data-name="Grupo 527">
            <rect id="Retângulo_219" data-name="Retângulo 219" width="1.61" height="1.61" transform="translate(341.876 389.035)" fill="#808285"/>
            <rect id="Retângulo_220" data-name="Retângulo 220" width="1.61" height="1.61" transform="translate(344.231 389.035)" fill="#808285"/>
          </g>
          <g id="Grupo_528" data-name="Grupo 528">
            <rect id="Retângulo_221" data-name="Retângulo 221" width="1.61" height="1.61" transform="translate(341.876 391.852)" fill="#808285"/>
            <rect id="Retângulo_222" data-name="Retângulo 222" width="1.61" height="1.61" transform="translate(344.231 391.852)" fill="#808285"/>
          </g>
          <g id="Grupo_529" data-name="Grupo 529">
            <rect id="Retângulo_223" data-name="Retângulo 223" width="1.61" height="1.61" transform="translate(341.876 394.67)" fill="#808285"/>
            <rect id="Retângulo_224" data-name="Retângulo 224" width="1.61" height="1.61" transform="translate(344.231 394.67)" fill="#808285"/>
          </g>
          <g id="Grupo_530" data-name="Grupo 530">
            <rect id="Retângulo_225" data-name="Retângulo 225" width="1.61" height="1.61" transform="translate(341.876 397.487)" fill="#808285"/>
            <rect id="Retângulo_226" data-name="Retângulo 226" width="1.61" height="1.61" transform="translate(344.231 397.487)" fill="#808285"/>
          </g>
          <g id="Grupo_531" data-name="Grupo 531">
            <rect id="Retângulo_227" data-name="Retângulo 227" width="1.61" height="1.61" transform="translate(341.876 400.304)" fill="#808285"/>
            <rect id="Retângulo_228" data-name="Retângulo 228" width="1.61" height="1.61" transform="translate(344.231 400.304)" fill="#808285"/>
          </g>
          <g id="Grupo_532" data-name="Grupo 532">
            <rect id="Retângulo_229" data-name="Retângulo 229" width="1.61" height="1.61" transform="translate(341.876 403.122)" fill="#808285"/>
            <rect id="Retângulo_230" data-name="Retângulo 230" width="1.61" height="1.61" transform="translate(344.231 403.122)" fill="#808285"/>
          </g>
          <g id="Grupo_533" data-name="Grupo 533">
            <rect id="Retângulo_231" data-name="Retângulo 231" width="1.61" height="1.61" transform="translate(341.876 405.939)" fill="#808285"/>
            <rect id="Retângulo_232" data-name="Retângulo 232" width="1.61" height="1.61" transform="translate(344.231 405.939)" fill="#808285"/>
          </g>
        </g>
        <rect id="Retângulo_233" data-name="Retângulo 233" width="3.622" height="3.622" transform="translate(342.42 374.661)" fill="#808285"/>
        <rect id="Retângulo_234" data-name="Retângulo 234" width="12.879" height="9.59" transform="translate(412.674 381.268)" fill="#bcbec0"/>
        <rect id="Retângulo_235" data-name="Retângulo 235" width="12.879" height="9.59" transform="translate(412.674 393.08)" fill="#bcbec0"/>
        <rect id="Retângulo_236" data-name="Retângulo 236" width="12.879" height="9.59" transform="translate(412.674 405.065)" fill="#bcbec0"/>
        <g id="Grupo_535" data-name="Grupo 535">
          <path id="Caminho_563" data-name="Caminho 563" d="M374.126,402.717h-6.863l-1.2,2.8a4.3,4.3,0,0,0-.455,1.545.9.9,0,0,0,.391.716,3.34,3.34,0,0,0,1.675.39v.488h-5.6v-.488a3.034,3.034,0,0,0,1.432-.5,8.154,8.154,0,0,0,1.479-2.554l6.245-14.62h.472l6.18,14.783a6.567,6.567,0,0,0,1.341,2.3,2.784,2.784,0,0,0,1.7.594v.487h-7.01v-.487a2.6,2.6,0,0,0,1.44-.35.924.924,0,0,0,.366-.74,5.4,5.4,0,0,0-.521-1.805Zm-.358-.976-3.009-7.172-3.09,7.172Z" fill="#f16672"/>
          <path id="Caminho_564" data-name="Caminho 564" d="M388.86,406.929a20.677,20.677,0,0,1-2.31,1.643,3.624,3.624,0,0,1-1.512.325,2.7,2.7,0,0,1-2.041-.846,3.119,3.119,0,0,1-.805-2.244,2.826,2.826,0,0,1,.39-1.512,5.156,5.156,0,0,1,1.862-1.676,29.9,29.9,0,0,1,4.416-1.918v-.472a3.9,3.9,0,0,0-.569-2.456,2.063,2.063,0,0,0-1.659-.666,1.874,1.874,0,0,0-1.3.438,1.359,1.359,0,0,0-.5,1.025l.032.765a1.294,1.294,0,0,1-.309.927,1.05,1.05,0,0,1-.8.325,1.026,1.026,0,0,1-.8-.342,1.328,1.328,0,0,1-.309-.927,2.676,2.676,0,0,1,1.155-2.065,4.979,4.979,0,0,1,3.236-.943,5.607,5.607,0,0,1,2.618.537,2.52,2.52,0,0,1,1.139,1.268,7.487,7.487,0,0,1,.227,2.309v4.066a18.9,18.9,0,0,0,.065,2.1.854.854,0,0,0,.22.52.523.523,0,0,0,.349.13.63.63,0,0,0,.358-.1,7.778,7.778,0,0,0,1.073-.944v.732q-1.479,1.952-2.813,1.952a1.282,1.282,0,0,1-1.017-.44A2.374,2.374,0,0,1,388.86,406.929Zm0-.862V401.5q-1.968.8-2.553,1.122a4.355,4.355,0,0,0-1.472,1.2,2.319,2.319,0,0,0-.447,1.366,2.264,2.264,0,0,0,.561,1.569,1.7,1.7,0,0,0,1.293.626A4.752,4.752,0,0,0,388.86,406.067Z" fill="#f16672"/>
        </g>
      </g>
      <g id="Grupo_538" data-name="Grupo 538">
        <path id="Caminho_565" data-name="Caminho 565" d="M407.116,476.93a.911.911,0,0,1-.908.909H361.153a.912.912,0,0,1-.909-.909V460.706a.911.911,0,0,1,.909-.908h45.055a.911.911,0,0,1,.908.908Z" fill="#f1f2f2"/>
        <rect id="Retângulo_237" data-name="Retângulo 237" width="44.45" height="15.321" transform="translate(361.456 461.158)" fill="#bcbec0"/>
        <g id="Grupo_537" data-name="Grupo 537">
          <rect id="Retângulo_238" data-name="Retângulo 238" width="2.453" height="2.452" transform="translate(362.075 461.777)" fill="#fff"/>
          <rect id="Retângulo_239" data-name="Retângulo 239" width="2.453" height="2.452" transform="translate(366.145 461.777)" fill="#fff"/>
          <rect id="Retângulo_240" data-name="Retângulo 240" width="2.453" height="2.452" transform="translate(370.214 461.777)" fill="#fff"/>
          <rect id="Retângulo_241" data-name="Retângulo 241" width="2.453" height="2.452" transform="translate(374.284 461.777)" fill="#fff"/>
          <rect id="Retângulo_242" data-name="Retângulo 242" width="2.453" height="2.452" transform="translate(378.353 461.777)" fill="#fff"/>
          <rect id="Retângulo_243" data-name="Retângulo 243" width="2.453" height="2.452" transform="translate(382.423 461.777)" fill="#fff"/>
          <rect id="Retângulo_244" data-name="Retângulo 244" width="2.453" height="2.452" transform="translate(386.492 461.777)" fill="#fff"/>
          <rect id="Retângulo_245" data-name="Retângulo 245" width="2.453" height="2.452" transform="translate(390.562 461.777)" fill="#fff"/>
          <rect id="Retângulo_246" data-name="Retângulo 246" width="2.453" height="2.452" transform="translate(394.631 461.777)" fill="#fff"/>
          <rect id="Retângulo_247" data-name="Retângulo 247" width="2.453" height="2.452" transform="translate(398.701 461.777)" fill="#fff"/>
          <rect id="Retângulo_248" data-name="Retângulo 248" width="2.453" height="2.452" transform="translate(402.77 461.777)" fill="#fff"/>
          <rect id="Retângulo_249" data-name="Retângulo 249" width="2.453" height="2.453" transform="translate(362.086 465.653)" fill="#fff"/>
          <rect id="Retângulo_250" data-name="Retângulo 250" width="2.453" height="2.453" transform="translate(366.155 465.653)" fill="#fff"/>
          <rect id="Retângulo_251" data-name="Retângulo 251" width="2.453" height="2.453" transform="translate(370.225 465.653)" fill="#fff"/>
          <rect id="Retângulo_252" data-name="Retângulo 252" width="2.453" height="2.453" transform="translate(374.294 465.653)" fill="#fff"/>
          <rect id="Retângulo_253" data-name="Retângulo 253" width="2.453" height="2.453" transform="translate(378.364 465.653)" fill="#fff"/>
          <rect id="Retângulo_254" data-name="Retângulo 254" width="2.453" height="2.453" transform="translate(382.433 465.653)" fill="#fff"/>
          <rect id="Retângulo_255" data-name="Retângulo 255" width="2.453" height="2.453" transform="translate(386.503 465.653)" fill="#fff"/>
          <rect id="Retângulo_256" data-name="Retângulo 256" width="2.453" height="2.453" transform="translate(390.572 465.653)" fill="#fff"/>
          <rect id="Retângulo_257" data-name="Retângulo 257" width="2.453" height="2.453" transform="translate(394.642 465.653)" fill="#fff"/>
          <rect id="Retângulo_258" data-name="Retângulo 258" width="2.453" height="2.453" transform="translate(398.711 465.653)" fill="#fff"/>
          <rect id="Retângulo_259" data-name="Retângulo 259" width="2.453" height="2.453" transform="translate(402.781 465.653)" fill="#fff"/>
          <rect id="Retângulo_260" data-name="Retângulo 260" width="2.453" height="2.453" transform="translate(362.096 469.529)" fill="#fff"/>
          <rect id="Retângulo_261" data-name="Retângulo 261" width="2.453" height="2.453" transform="translate(366.166 469.529)" fill="#fff"/>
          <rect id="Retângulo_262" data-name="Retângulo 262" width="2.453" height="2.453" transform="translate(370.235 469.529)" fill="#fff"/>
          <rect id="Retângulo_263" data-name="Retângulo 263" width="2.453" height="2.453" transform="translate(374.305 469.529)" fill="#fff"/>
          <rect id="Retângulo_264" data-name="Retângulo 264" width="2.452" height="2.453" transform="translate(378.374 469.529)" fill="#fff"/>
          <rect id="Retângulo_265" data-name="Retângulo 265" width="2.452" height="2.453" transform="translate(382.444 469.529)" fill="#fff"/>
          <rect id="Retângulo_266" data-name="Retângulo 266" width="2.452" height="2.453" transform="translate(386.513 469.529)" fill="#fff"/>
          <rect id="Retângulo_267" data-name="Retângulo 267" width="2.452" height="2.453" transform="translate(390.583 469.529)" fill="#fff"/>
          <rect id="Retângulo_268" data-name="Retângulo 268" width="2.453" height="2.453" transform="translate(398.722 469.529)" fill="#fff"/>
          <rect id="Retângulo_269" data-name="Retângulo 269" width="2.453" height="2.452" transform="translate(362.107 473.405)" fill="#fff"/>
          <rect id="Retângulo_270" data-name="Retângulo 270" width="2.453" height="2.452" transform="translate(366.176 473.405)" fill="#fff"/>
          <path id="Caminho_566" data-name="Caminho 566" d="M382.454,473.4l-.031.045V473.4H370.246v2.452h14.661V473.4Z" fill="#fff"/>
          <rect id="Retângulo_271" data-name="Retângulo 271" width="2.453" height="2.452" transform="translate(386.524 473.405)" fill="#fff"/>
          <rect id="Retângulo_272" data-name="Retângulo 272" width="2.453" height="2.452" transform="translate(390.593 473.405)" fill="#fff"/>
          <rect id="Retângulo_273" data-name="Retângulo 273" width="2.452" height="2.452" transform="translate(394.663 473.405)" fill="#fff"/>
          <rect id="Retângulo_274" data-name="Retângulo 274" width="2.452" height="2.452" transform="translate(398.732 473.405)" fill="#fff"/>
          <rect id="Retângulo_275" data-name="Retângulo 275" width="2.452" height="2.452" transform="translate(402.802 473.405)" fill="#fff"/>
        </g>
      </g>
      <g id="Grupo_541" data-name="Grupo 541">
        <g id="Grupo_540" data-name="Grupo 540">
          <path id="Caminho_567" data-name="Caminho 567" d="M348.608,486.663a.841.841,0,0,1-.839.839H317.987a.841.841,0,0,1-.839-.839V466.05a.842.842,0,0,1,.839-.839h29.782a.842.842,0,0,1,.839.839v20.613Z" fill="#2b3451"/>
          <rect id="Retângulo_276" data-name="Retângulo 276" width="30.066" height="15.501" transform="translate(317.845 469.566)" fill="#e7e6e6"/>
          <g id="Grupo_539" data-name="Grupo 539">
            <rect id="Retângulo_277" data-name="Retângulo 277" width="2.595" height="0.883" transform="translate(343.781 467.048)" fill="#f1f1f1"/>
            <rect id="Retângulo_278" data-name="Retângulo 278" width="2.595" height="0.883" transform="translate(340.621 467.048)" fill="#f1f1f1"/>
          </g>
        </g>
        <g id="Pen">
          <rect id="Retângulo_279" data-name="Retângulo 279" width="0.147" height="0.113" transform="translate(341.692 480.262) rotate(-45)" fill="#231f20"/>
          <rect id="Retângulo_280" data-name="Retângulo 280" width="19.595" height="2.056" transform="translate(342.322 478.25) rotate(-45)" fill="#d1d2d3"/>
          <rect id="Retângulo_281" data-name="Retângulo 281" width="0.26" height="1.354" transform="translate(356.431 464.644) rotate(-45)" fill="#bcbdbf"/>
          <rect id="Retângulo_282" data-name="Retângulo 282" width="0.777" height="2.056" transform="translate(355.191 465.389) rotate(-45)" fill="#54bbd3"/>
          <path id="Caminho_568" data-name="Caminho 568" d="M341.909,480.272l1.872-.565-1.454-1.454-.565,1.871Z" fill="#424143"/>
          <rect id="Retângulo_283" data-name="Retângulo 283" width="8.71" height="2.056" transform="translate(342.322 478.25) rotate(-45)" fill="#231f20"/>
          <rect id="Retângulo_284" data-name="Retângulo 284" width="2.29" height="0.112" transform="translate(343.379 477.043) rotate(-45)" fill="#424143"/>
        </g>
      </g>
      <g id="Grupo_542" data-name="Grupo 542">
        <path id="Caminho_569" data-name="Caminho 569" d="M424.844,459.635h-3.56a2.176,2.176,0,0,0-2.17,2.17v9.636a2.177,2.177,0,0,0,2.17,2.171h3.56a2.177,2.177,0,0,0,2.17-2.171V461.8A2.176,2.176,0,0,0,424.844,459.635Z" fill="#d1d3d4"/>
        <path id="Caminho_570" data-name="Caminho 570" d="M424.844,459.635h-3.56a2.176,2.176,0,0,0-2.17,2.17v3.617h7.9V461.8A2.176,2.176,0,0,0,424.844,459.635Z" fill="#231f20" opacity="0.1" style="isolation: isolate"/>
        <path id="Caminho_571" data-name="Caminho 571" d="M423.444,464.221a.383.383,0,1,1-.76,0v-1.258a.383.383,0,1,1,.76,0Z" fill="#fff"/>
        <path id="Caminho_572" data-name="Caminho 572" d="M427.014,465.422V461.8a2.176,2.176,0,0,0-2.17-2.17h-1.78v5.787Z" fill="#231f20" opacity="0.2" style="isolation: isolate"/>
      </g>
      <g id="Grupo_543" data-name="Grupo 543">
        <rect id="Retângulo_285" data-name="Retângulo 285" width="7.086" height="3.378" transform="translate(391.234 494.171)" fill="#07162c"/>
        <path id="Caminho_573" data-name="Caminho 573" d="M400.393,479.432a.868.868,0,1,0-1.736,0h0v2.361H397.8v-3.786h0a.868.868,0,0,0-1.736,0h0v3.786H395.2v-5.108h0a.868.868,0,1,0-1.736,0h0v5.108h-.845v-7.5h0l0-.021a.868.868,0,1,0-1.736,0l0,.021h0V486.4l-1.232-.571v-2.3c2.042-1.766.5-2.853.5-2.853l-2.427,1.882v6.84l3.515,4.767h7.086l2.074-4.508V479.432Z" fill="#ffe373"/>
      </g>
      <g id="Grupo_544" data-name="Grupo 544">
        <rect id="Retângulo_286" data-name="Retângulo 286" width="7.086" height="3.378" transform="translate(368.423 486.837)" fill="#07162c"/>
        <path id="Caminho_574" data-name="Caminho 574" d="M366.351,472.1a.868.868,0,1,1,1.736,0h0v2.361h.861v-3.786h0a.868.868,0,1,1,1.736,0h0v3.786h.86v-5.109h0a.868.868,0,1,1,1.736,0h0v5.109h.845v-7.5h0l0-.021a.868.868,0,0,1,1.736,0l0,.021h0v12.111l1.232-.571v-2.3c-2.042-1.765-.5-2.853-.5-2.853l2.428,1.882v6.84l-3.516,4.767h-7.086l-2.074-4.508V472.1Z" fill="#ffe373"/>
      </g>
      <g id="Grupo_547" data-name="Grupo 547">
        <rect id="Retângulo_287" data-name="Retângulo 287" width="4.544" height="1.136" transform="translate(329.647 452.806)" fill="#1a243d"/>
        <rect id="Retângulo_288" data-name="Retângulo 288" width="4.544" height="0.568" transform="translate(329.647 453.374)" opacity="0.1" style="isolation: isolate"/>
        <circle id="Elipse_11" data-name="Elipse 11" cx="6.498" cy="6.498" r="6.498" transform="translate(333.769 447.558)" fill="#2b3451"/>
        <circle id="Elipse_12" data-name="Elipse 12" cx="5.427" cy="5.427" r="5.427" transform="translate(334.84 448.629)" fill="#fff"/>
        <g id="Grupo_545" data-name="Grupo 545" opacity="0.1">
          <path id="Caminho_575" data-name="Caminho 575" d="M344.862,449.461l-9.19,9.19a6.5,6.5,0,1,0,9.19-9.19Z"/>
        </g>
        <circle id="Elipse_13" data-name="Elipse 13" cx="6.498" cy="6.498" r="6.498" transform="translate(317.208 447.558)" fill="#2b3451"/>
        <circle id="Elipse_14" data-name="Elipse 14" cx="5.427" cy="5.427" r="5.427" transform="translate(318.279 448.629)" fill="#fff"/>
        <g id="Grupo_546" data-name="Grupo 546" opacity="0.1">
          <path id="Caminho_576" data-name="Caminho 576" d="M328.3,449.461l-9.19,9.19a6.5,6.5,0,1,0,9.19-9.19Z"/>
        </g>
      </g>
      <g id="Grupo_550" data-name="Grupo 550">
        <path id="Caminho_577" data-name="Caminho 577" d="M323.42,408.653l-5.575,5.575V444.2h26.464V408.653Z" fill="#fff"/>
        <path id="Caminho_578" data-name="Caminho 578" d="M323.42,408.653l-5.575,5.575h5.575Z" opacity="0.1" style="isolation: isolate"/>
        <g id="Grupo_549" data-name="Grupo 549">
          <path id="Caminho_579" data-name="Caminho 579" d="M332.771,435.877h-2.263l-4.714-7.354,4.714-13.578h1.022v8.34a.8.8,0,1,0,.22,0v-8.34h1.021l4.715,13.578Z" fill="#fdb92e"/>
          <rect id="Retângulo_289" data-name="Retângulo 289" width="8.297" height="2.891" transform="translate(327.491 433.43)" fill="#2f6db5"/>
          <g id="Grupo_548" data-name="Grupo 548">
            <path id="Caminho_580" data-name="Caminho 580" d="M332.771,414.945l4.714,13.577-3.1,4.84h-2.4l3.471-5.183-3.044-13.235Z" fill="#231f20" opacity="0.1" style="isolation: isolate"/>
            <rect id="Retângulo_290" data-name="Retângulo 290" width="3.802" height="2.891" transform="translate(331.987 433.363)" fill="#231f20" opacity="0.1" style="isolation: isolate"/>
          </g>
        </g>
      </g>
      <g id="Grupo_554" data-name="Grupo 554">
        <g id="Grupo_551" data-name="Grupo 551">
          <path id="Caminho_581" data-name="Caminho 581" d="M436.706,381.469c-4.225-.487-9.1,7.313-12.115,1.535-1.835-3.516,4.722-5.208,6.283-8.306,2.826-5.606-3.948-6.307-4.934-6.307a13.8,13.8,0,1,0,12.241,20.181C439.277,385.979,439.59,381.8,436.706,381.469Z" fill="#fff"/>
          <circle id="Elipse_15" data-name="Elipse 15" cx="2.273" cy="2.273" r="2.273" transform="translate(421.526 369.762)" fill="#6ebd46"/>
          <path id="Caminho_582" data-name="Caminho 582" d="M424.935,370.068a2.271,2.271,0,0,1-2.7,3.608,2.271,2.271,0,1,0,2.7-3.608Z" opacity="0.1" style="isolation: isolate"/>
          <circle id="Elipse_16" data-name="Elipse 16" cx="2.273" cy="2.273" r="2.273" transform="translate(414.501 375.839)" fill="#f5eb22"/>
          <path id="Caminho_583" data-name="Caminho 583" d="M417.909,376.145a2.27,2.27,0,0,1-2.7,3.607,2.271,2.271,0,1,0,2.7-3.607Z" opacity="0.1" style="isolation: isolate"/>
          <circle id="Elipse_17" data-name="Elipse 17" cx="2.273" cy="2.273" r="2.273" transform="translate(414.501 384.559)" fill="#ed2836"/>
          <path id="Caminho_584" data-name="Caminho 584" d="M417.909,384.866a2.27,2.27,0,0,1-2.7,3.607,2.271,2.271,0,1,0,2.7-3.607Z" opacity="0.1" style="isolation: isolate"/>
          <circle id="Elipse_18" data-name="Elipse 18" cx="2.273" cy="2.273" r="2.273" transform="translate(422.815 390.518)" fill="#72cff5"/>
          <path id="Caminho_585" data-name="Caminho 585" d="M426.223,390.824a2.27,2.27,0,0,1-2.7,3.607,2.271,2.271,0,1,0,2.7-3.607Z" opacity="0.1" style="isolation: isolate"/>
          <circle id="Elipse_19" data-name="Elipse 19" cx="2.273" cy="2.273" r="2.273" transform="translate(431.834 385.751)" fill="#9b70af"/>
          <path id="Caminho_586" data-name="Caminho 586" d="M435.242,386.057a2.271,2.271,0,0,1-2.705,3.608,2.271,2.271,0,1,0,2.705-3.608Z" opacity="0.1" style="isolation: isolate"/>
        </g>
        <g id="Grupo_553" data-name="Grupo 553">
          <g id="Grupo_552" data-name="Grupo 552">
            <path id="Caminho_587" data-name="Caminho 587" d="M435.821,375.951c1.115-1.2,1.922-2.283,1.793-2.412l-.467-.467c-.128-.128-1.213.678-2.411,1.793l-9.106,8.475c-1.2,1.114-1.968,2.236-1.711,2.493l.935.934c.257.257,1.379-.512,2.493-1.71Z"/>
          </g>
          <path id="Caminho_588" data-name="Caminho 588" d="M425.325,385.362a1.657,1.657,0,0,0-2.343.025l1.159,1.158L425.3,387.7A1.657,1.657,0,0,0,425.325,385.362Z"/>
          <path id="Caminho_589" data-name="Caminho 589" d="M423,385.409a4.056,4.056,0,0,0-2.57,4.887,3.322,3.322,0,0,1,1.831-.544,2.887,2.887,0,0,0,3.056-2.026Z" fill="#da8e27"/>
        </g>
      </g>
      <g id="Grupo_556" data-name="Grupo 556">
        <circle id="Elipse_20" data-name="Elipse 20" cx="7.278" cy="7.278" r="7.278" transform="translate(402.194 442.496)" fill="#e6e7e8"/>
        <circle id="Elipse_21" data-name="Elipse 21" cx="5.824" cy="5.824" r="5.824" transform="translate(403.648 443.95)" fill="#77452c"/>
        <g id="Grupo_555" data-name="Grupo 555" opacity="0.2">
          <path id="Caminho_590" data-name="Caminho 590" d="M413.811,445.891a5.823,5.823,0,0,1-9.422,6.724,5.823,5.823,0,1,0,9.422-6.724Z" fill="#231f20"/>
        </g>
        <rect id="Retângulo_291" data-name="Retângulo 291" width="3.944" height="1.917" transform="translate(415.692 448.815)" fill="#e6e7e8"/>
      </g>
    </g>
  </g>
</svg>
