<svg xmlns="http://www.w3.org/2000/svg" width="152.6" height="131.872" viewBox="0 0 152.6 131.872">
  <g id="e-commerce-icon" transform="translate(-1501.043 -328.561)">
    <g id="Background">
      <circle id="Elipse_60" data-name="Elipse 60" cx="65.936" cy="65.936" r="65.936" transform="translate(1511.407 328.561)" fill="#71c7d2"/>
    </g>
    <g id="E_Commerce" data-name="E Commerce">
      <g id="Grupo_728" data-name="Grupo 728">
        <g id="Grupo_704" data-name="Grupo 704">
          <g id="Grupo_699" data-name="Grupo 699">
            <g id="Grupo_696" data-name="Grupo 696">
              <path id="Caminho_755" data-name="Caminho 755" d="M1599.072,410.036v-5.894a5.923,5.923,0,0,1,.246-1.689h-9.65v16.622h15.761v-3.112H1605A5.927,5.927,0,0,1,1599.072,410.036Z" fill="#acafaf"/>
            </g>
            <g id="Grupo_697" data-name="Grupo 697">
              <path id="Caminho_756" data-name="Caminho 756" d="M1580.662,410.036v-5.894a5.923,5.923,0,0,0-.246-1.689h9.65v16.622H1574.3v-3.112h.431A5.927,5.927,0,0,0,1580.662,410.036Z" fill="#acafaf"/>
            </g>
            <g id="Grupo_698" data-name="Grupo 698">
              <rect id="Retângulo_453" data-name="Retângulo 453" width="31.126" height="3.112" transform="translate(1574.304 415.963)" fill="#c9caca"/>
            </g>
          </g>
          <g id="Grupo_700" data-name="Grupo 700">
            <path id="Caminho_757" data-name="Caminho 757" d="M1633.905,401.923a1.987,1.987,0,0,1-1.987,1.987h-84.1a1.988,1.988,0,0,1-1.987-1.987v-60.66a1.987,1.987,0,0,1,1.987-1.987h84.1a1.988,1.988,0,0,1,1.988,1.987v60.66Z" fill="#c9caca"/>
          </g>
          <g id="Grupo_701" data-name="Grupo 701">
            <rect id="Retângulo_454" data-name="Retângulo 454" width="88.077" height="55.628" transform="translate(1545.828 341.395)" fill="#282828"/>
          </g>
          <g id="Grupo_702" data-name="Grupo 702">
            <rect id="Retângulo_455" data-name="Retângulo 455" width="82.646" height="50.33" transform="translate(1548.544 344.044)" fill="#f6d23d"/>
          </g>
          <g id="Grupo_703" data-name="Grupo 703">
            <path id="Caminho_758" data-name="Caminho 758" d="M1592.052,400.268a2.185,2.185,0,1,1-2.186-2.185A2.185,2.185,0,0,1,1592.052,400.268Z" fill="#282828"/>
          </g>
        </g>
        <g id="Grupo_705" data-name="Grupo 705">
          <rect id="Retângulo_456" data-name="Retângulo 456" width="26.238" height="27.059" transform="translate(1554.884 348.959)" fill="#e6e7e8"/>
        </g>
        <g id="Grupo_706" data-name="Grupo 706">
          <rect id="Retângulo_457" data-name="Retângulo 457" width="25.129" height="3.049" transform="translate(1590.434 347.434)" fill="#42536c"/>
        </g>
        <g id="Grupo_707" data-name="Grupo 707">
          <rect id="Retângulo_458" data-name="Retângulo 458" width="14.996" height="3.049" transform="translate(1590.434 352.771)" fill="#42536c"/>
        </g>
        <g id="Grupo_708" data-name="Grupo 708">
          <rect id="Retângulo_459" data-name="Retângulo 459" width="14.996" height="3.049" transform="translate(1590.434 359.028)" fill="#42536c"/>
        </g>
        <g id="Grupo_709" data-name="Grupo 709">
          <rect id="Retângulo_460" data-name="Retângulo 460" width="25.917" height="3.049" transform="translate(1590.434 366.16)" fill="#42536c"/>
        </g>
        <g id="Grupo_710" data-name="Grupo 710">
          <rect id="Retângulo_461" data-name="Retângulo 461" width="25.917" height="5.318" transform="translate(1590.434 371.593)" fill="#30a29a"/>
        </g>
        <g id="Grupo_711" data-name="Grupo 711">
          <rect id="Retângulo_462" data-name="Retângulo 462" width="8.746" height="8.746" transform="translate(1567.461 383.772)" fill="#e6e7e8"/>
        </g>
        <g id="Grupo_712" data-name="Grupo 712">
          <rect id="Retângulo_463" data-name="Retângulo 463" width="8.746" height="8.746" transform="translate(1580.58 383.772)" fill="#e6e7e8"/>
        </g>
        <g id="Grupo_713" data-name="Grupo 713">
          <path id="Caminho_759" data-name="Caminho 759" d="M1622.8,379.987l-11.612-3.969,2.369,12.04,2.535-3.953,4.792,5.488,2.449-2.139-4.784-5.478Z" fill="#fff"/>
        </g>
        <g id="Sown">
          <g id="Grupo_714" data-name="Grupo 714">
            <path id="Caminho_760" data-name="Caminho 760" d="M1565.725,350.347s.375,2.406,1.078,2.853a1.83,1.83,0,0,0,2.175.192c.6-.524,1.162-2.911,1.344-2.994s.166,2.278.166,2.278-1.522,2.2-1.561,2.2-2.188-.538-2.226-.576-.976-1.42-.976-1.42v-2.534Z" fill="#bd625a"/>
          </g>
          <g id="Grupo_715" data-name="Grupo 715">
            <path id="Caminho_761" data-name="Caminho 761" d="M1570.329,358.19c-.154-1.535.654-4.1.513-5.164a6.425,6.425,0,0,1,.026-2.615c.035-.2-.546-.064-.546-.064s-.01,2.091-.4,2.476c-1.017-.269-1.745.211-1.857.754a1.629,1.629,0,0,0-1.95-.754c-.385-.385-.4-2.476-.4-2.476s-.581-.137-.546.064a6.425,6.425,0,0,1,.026,2.615c-.141,1.064,1.118,3.629.965,5.164.162.664-6.705,13.973-6.705,13.973a7.8,7.8,0,0,0,1.075.717c.2.051.921,0,1.279.409s1.28.409,1.485.487a2.087,2.087,0,0,0,1.125,0,1.608,1.608,0,0,1,1.178-.026,11.032,11.032,0,0,1,5.284,0,1.6,1.6,0,0,1,1.177.026,2.09,2.09,0,0,0,1.126,0c.205-.078,1.126-.078,1.485-.487s1.074-.358,1.279-.409a7.805,7.805,0,0,0,1.075-.717S1570.166,358.854,1570.329,358.19Z" fill="#f47f74"/>
          </g>
          <g id="Grupo_716" data-name="Grupo 716">
            <path id="Caminho_762" data-name="Caminho 762" d="M1574.679,373.289c.358-.41,1.074-.358,1.279-.41a7.722,7.722,0,0,0,1.075-.716s-6.867-13.31-6.7-13.973v0a4.871,4.871,0,0,1-1.714,1.489c-.979.383-2.444-1.485-2.444-1.485.163.663-6.705,13.973-6.705,13.973a7.717,7.717,0,0,0,1.075.716c.2.052.921,0,1.28.41s1.279.409,1.484.487a2.091,2.091,0,0,0,1.126,0,1.6,1.6,0,0,1,1.177-.026,11.036,11.036,0,0,1,5.285,0,1.6,1.6,0,0,1,1.177.026,2.091,2.091,0,0,0,1.126,0C1573.4,373.7,1574.321,373.7,1574.679,373.289Z" fill="#f6d23d"/>
          </g>
          <g id="Grupo_717" data-name="Grupo 717">
            <path id="Caminho_763" data-name="Caminho 763" d="M1570.4,358.523a.85.85,0,0,1-.069-.332v0a4.879,4.879,0,0,1-1.714,1.488c-.979.384-2.444-1.484-2.444-1.484a.7.7,0,0,1-.05.271S1567.213,360,1568.2,360C1569.334,360,1570.4,358.523,1570.4,358.523Z" fill="#c8ad32"/>
          </g>
        </g>
        <g id="Grupo_726" data-name="Grupo 726">
          <g id="Grupo_718" data-name="Grupo 718">
            <rect id="Retângulo_464" data-name="Retângulo 464" width="0.465" height="6.252" transform="translate(1610.429 379.062)" fill="#fff"/>
          </g>
          <g id="Grupo_719" data-name="Grupo 719">
            <rect id="Retângulo_465" data-name="Retângulo 465" width="0.465" height="6.252" transform="translate(1610.429 364.109)" fill="#fff"/>
          </g>
          <g id="Grupo_720" data-name="Grupo 720">
            <rect id="Retângulo_466" data-name="Retângulo 466" width="6.252" height="0.465" transform="translate(1600.058 374.479)" fill="#fff"/>
          </g>
          <g id="Grupo_721" data-name="Grupo 721">
            <rect id="Retângulo_467" data-name="Retângulo 467" width="6.252" height="0.465" transform="translate(1615.012 374.479)" fill="#fff"/>
          </g>
          <g id="Grupo_722" data-name="Grupo 722">
            <rect id="Retângulo_468" data-name="Retângulo 468" width="0.465" height="6.252" transform="matrix(0.708, -0.707, 0.707, 0.708, 1603.009, 367.375)" fill="#fff"/>
          </g>
          <g id="Grupo_723" data-name="Grupo 723">
            <rect id="Retângulo_469" data-name="Retângulo 469" width="0.465" height="6.251" transform="translate(1613.573 377.954) rotate(-44.992)" fill="#fff"/>
          </g>
          <g id="Grupo_724" data-name="Grupo 724">
            <rect id="Retângulo_470" data-name="Retângulo 470" width="6.252" height="0.465" transform="matrix(0.707, -0.707, 0.707, 0.707, 1603.001, 382.054)" fill="#fff"/>
          </g>
          <g id="Grupo_725" data-name="Grupo 725">
            <rect id="Retângulo_471" data-name="Retângulo 471" width="6.251" height="0.465" transform="translate(1613.575 371.469) rotate(-45.008)" fill="#fff"/>
          </g>
        </g>
        <g id="Grupo_727" data-name="Grupo 727">
          <rect id="Retângulo_472" data-name="Retângulo 472" width="8.746" height="8.746" transform="translate(1554.618 383.772)" fill="#e6e7e8"/>
        </g>
      </g>
      <g id="Grupo_810" data-name="Grupo 810">
        <g id="Grupo_729" data-name="Grupo 729">
          <path id="Caminho_764" data-name="Caminho 764" d="M1617.9,423.976h-86.036a.863.863,0,0,0-.944.745v24.252a.862.862,0,0,0,.944.745H1617.9a.863.863,0,0,0,.945-.745V424.721A.863.863,0,0,0,1617.9,423.976Z" fill="#76797c"/>
        </g>
        <g id="Grupo_809" data-name="Grupo 809">
          <g id="Grupo_730" data-name="Grupo 730">
            <path id="Caminho_765" data-name="Caminho 765" d="M1617.9,448.027a.864.864,0,0,1-.946.747h-86.034a.865.865,0,0,1-.947-.747V423.776a.866.866,0,0,1,.947-.747h86.034a.866.866,0,0,1,.946.747v24.251Z" fill="#bec0c1"/>
          </g>
          <g id="Grupo_731" data-name="Grupo 731">
            <rect id="Retângulo_473" data-name="Retângulo 473" width="3.467" height="3.467" transform="translate(1532.39 424.664)" fill="#dbdcdd"/>
          </g>
          <g id="Grupo_732" data-name="Grupo 732">
            <rect id="Retângulo_474" data-name="Retângulo 474" width="3.467" height="3.467" transform="translate(1536.762 424.664)" fill="#dbdcdd"/>
          </g>
          <g id="Grupo_733" data-name="Grupo 733">
            <rect id="Retângulo_475" data-name="Retângulo 475" width="3.467" height="3.467" transform="translate(1541.135 424.664)" fill="#dbdcdd"/>
          </g>
          <g id="Grupo_734" data-name="Grupo 734">
            <rect id="Retângulo_476" data-name="Retângulo 476" width="3.467" height="3.467" transform="translate(1545.508 424.664)" fill="#dbdcdd"/>
          </g>
          <g id="Grupo_735" data-name="Grupo 735">
            <rect id="Retângulo_477" data-name="Retângulo 477" width="3.467" height="3.467" transform="translate(1549.881 424.664)" fill="#dbdcdd"/>
          </g>
          <g id="Grupo_736" data-name="Grupo 736">
            <rect id="Retângulo_478" data-name="Retângulo 478" width="3.467" height="3.467" transform="translate(1554.254 424.664)" fill="#dbdcdd"/>
          </g>
          <g id="Grupo_737" data-name="Grupo 737">
            <rect id="Retângulo_479" data-name="Retângulo 479" width="3.467" height="3.467" transform="translate(1558.627 424.664)" fill="#dbdcdd"/>
          </g>
          <g id="Grupo_738" data-name="Grupo 738">
            <rect id="Retângulo_480" data-name="Retângulo 480" width="3.466" height="3.467" transform="translate(1563 424.664)" fill="#dbdcdd"/>
          </g>
          <g id="Grupo_739" data-name="Grupo 739">
            <rect id="Retângulo_481" data-name="Retângulo 481" width="3.467" height="3.467" transform="translate(1567.372 424.664)" fill="#dbdcdd"/>
          </g>
          <g id="Grupo_740" data-name="Grupo 740">
            <rect id="Retângulo_482" data-name="Retângulo 482" width="3.467" height="3.467" transform="translate(1571.745 424.664)" fill="#dbdcdd"/>
          </g>
          <g id="Grupo_741" data-name="Grupo 741">
            <rect id="Retângulo_483" data-name="Retângulo 483" width="3.467" height="3.467" transform="translate(1576.118 424.664)" fill="#dbdcdd"/>
          </g>
          <g id="Grupo_742" data-name="Grupo 742">
            <rect id="Retângulo_484" data-name="Retângulo 484" width="3.467" height="3.467" transform="translate(1580.491 424.664)" fill="#dbdcdd"/>
          </g>
          <g id="Grupo_743" data-name="Grupo 743">
            <rect id="Retângulo_485" data-name="Retângulo 485" width="3.467" height="3.467" transform="translate(1584.864 424.664)" fill="#dbdcdd"/>
          </g>
          <g id="Grupo_744" data-name="Grupo 744">
            <rect id="Retângulo_486" data-name="Retângulo 486" width="3.467" height="3.467" transform="translate(1589.236 424.664)" fill="#dbdcdd"/>
          </g>
          <g id="Grupo_745" data-name="Grupo 745">
            <rect id="Retângulo_487" data-name="Retângulo 487" width="3.467" height="3.467" transform="translate(1593.609 424.664)" fill="#dbdcdd"/>
          </g>
          <g id="Grupo_746" data-name="Grupo 746">
            <rect id="Retângulo_488" data-name="Retângulo 488" width="3.467" height="3.467" transform="translate(1597.982 424.664)" fill="#dbdcdd"/>
          </g>
          <g id="Grupo_747" data-name="Grupo 747">
            <rect id="Retângulo_489" data-name="Retângulo 489" width="3.467" height="3.467" transform="translate(1602.355 424.664)" fill="#dbdcdd"/>
          </g>
          <g id="Grupo_748" data-name="Grupo 748">
            <rect id="Retângulo_490" data-name="Retângulo 490" width="3.467" height="3.467" transform="translate(1606.728 424.664)" fill="#dbdcdd"/>
          </g>
          <g id="Grupo_749" data-name="Grupo 749">
            <rect id="Retângulo_491" data-name="Retângulo 491" width="3.467" height="3.467" transform="translate(1611.101 424.664)" fill="#dbdcdd"/>
          </g>
          <g id="Grupo_750" data-name="Grupo 750">
            <rect id="Retângulo_492" data-name="Retângulo 492" width="3.467" height="3.467" transform="translate(1539.401 429.253)" fill="#dbdcdd"/>
          </g>
          <g id="Grupo_751" data-name="Grupo 751">
            <rect id="Retângulo_493" data-name="Retângulo 493" width="6.105" height="3.467" transform="translate(1532.39 429.253)" fill="#dbdcdd"/>
          </g>
          <g id="Grupo_752" data-name="Grupo 752">
            <rect id="Retângulo_494" data-name="Retângulo 494" width="3.467" height="3.467" transform="translate(1543.774 429.253)" fill="#dbdcdd"/>
          </g>
          <g id="Grupo_753" data-name="Grupo 753">
            <rect id="Retângulo_495" data-name="Retângulo 495" width="3.467" height="3.467" transform="translate(1548.147 429.253)" fill="#dbdcdd"/>
          </g>
          <g id="Grupo_754" data-name="Grupo 754">
            <rect id="Retângulo_496" data-name="Retângulo 496" width="3.467" height="3.467" transform="translate(1552.52 429.253)" fill="#dbdcdd"/>
          </g>
          <g id="Grupo_755" data-name="Grupo 755">
            <rect id="Retângulo_497" data-name="Retângulo 497" width="3.467" height="3.467" transform="translate(1556.892 429.253)" fill="#dbdcdd"/>
          </g>
          <g id="Grupo_756" data-name="Grupo 756">
            <rect id="Retângulo_498" data-name="Retângulo 498" width="3.467" height="3.467" transform="translate(1561.266 429.253)" fill="#dbdcdd"/>
          </g>
          <g id="Grupo_757" data-name="Grupo 757">
            <rect id="Retângulo_499" data-name="Retângulo 499" width="3.467" height="3.467" transform="translate(1565.638 429.253)" fill="#dbdcdd"/>
          </g>
          <g id="Grupo_758" data-name="Grupo 758">
            <rect id="Retângulo_500" data-name="Retângulo 500" width="3.467" height="3.467" transform="translate(1570.011 429.253)" fill="#dbdcdd"/>
          </g>
          <g id="Grupo_759" data-name="Grupo 759">
            <rect id="Retângulo_501" data-name="Retângulo 501" width="3.467" height="3.467" transform="translate(1574.384 429.253)" fill="#dbdcdd"/>
          </g>
          <g id="Grupo_760" data-name="Grupo 760">
            <rect id="Retângulo_502" data-name="Retângulo 502" width="3.467" height="3.467" transform="translate(1578.757 429.253)" fill="#dbdcdd"/>
          </g>
          <g id="Grupo_761" data-name="Grupo 761">
            <rect id="Retângulo_503" data-name="Retângulo 503" width="3.467" height="3.467" transform="translate(1583.13 429.253)" fill="#dbdcdd"/>
          </g>
          <g id="Grupo_762" data-name="Grupo 762">
            <rect id="Retângulo_504" data-name="Retângulo 504" width="3.467" height="3.467" transform="translate(1587.503 429.253)" fill="#dbdcdd"/>
          </g>
          <g id="Grupo_763" data-name="Grupo 763">
            <rect id="Retângulo_505" data-name="Retângulo 505" width="3.467" height="3.467" transform="translate(1591.876 429.253)" fill="#dbdcdd"/>
          </g>
          <g id="Grupo_764" data-name="Grupo 764">
            <rect id="Retângulo_506" data-name="Retângulo 506" width="3.467" height="3.467" transform="translate(1596.249 429.253)" fill="#dbdcdd"/>
          </g>
          <g id="Grupo_765" data-name="Grupo 765">
            <rect id="Retângulo_507" data-name="Retângulo 507" width="3.467" height="3.467" transform="translate(1600.622 429.253)" fill="#dbdcdd"/>
          </g>
          <g id="Grupo_766" data-name="Grupo 766">
            <rect id="Retângulo_508" data-name="Retângulo 508" width="3.467" height="3.467" transform="translate(1604.995 429.253)" fill="#dbdcdd"/>
          </g>
          <g id="Grupo_767" data-name="Grupo 767">
            <rect id="Retângulo_509" data-name="Retângulo 509" width="5.2" height="3.467" transform="translate(1609.368 429.253)" fill="#dbdcdd"/>
          </g>
          <g id="Grupo_768" data-name="Grupo 768">
            <rect id="Retângulo_510" data-name="Retângulo 510" width="3.467" height="3.467" transform="translate(1540.82 434.169)" fill="#dbdcdd"/>
          </g>
          <g id="Grupo_769" data-name="Grupo 769">
            <rect id="Retângulo_511" data-name="Retângulo 511" width="7.603" height="3.467" transform="translate(1532.39 434.169)" fill="#dbdcdd"/>
          </g>
          <g id="Grupo_770" data-name="Grupo 770">
            <rect id="Retângulo_512" data-name="Retângulo 512" width="3.467" height="3.467" transform="translate(1545.193 434.169)" fill="#dbdcdd"/>
          </g>
          <g id="Grupo_771" data-name="Grupo 771">
            <rect id="Retângulo_513" data-name="Retângulo 513" width="3.467" height="3.467" transform="translate(1549.566 434.169)" fill="#dbdcdd"/>
          </g>
          <g id="Grupo_772" data-name="Grupo 772">
            <rect id="Retângulo_514" data-name="Retângulo 514" width="3.467" height="3.467" transform="translate(1553.939 434.169)" fill="#dbdcdd"/>
          </g>
          <g id="Grupo_773" data-name="Grupo 773">
            <rect id="Retângulo_515" data-name="Retângulo 515" width="3.467" height="3.467" transform="translate(1558.312 434.169)" fill="#dbdcdd"/>
          </g>
          <g id="Grupo_774" data-name="Grupo 774">
            <rect id="Retângulo_516" data-name="Retângulo 516" width="3.467" height="3.467" transform="translate(1562.684 434.169)" fill="#dbdcdd"/>
          </g>
          <g id="Grupo_775" data-name="Grupo 775">
            <rect id="Retângulo_517" data-name="Retângulo 517" width="3.467" height="3.467" transform="translate(1567.057 434.169)" fill="#dbdcdd"/>
          </g>
          <g id="Grupo_776" data-name="Grupo 776">
            <rect id="Retângulo_518" data-name="Retângulo 518" width="3.466" height="3.467" transform="translate(1571.43 434.169)" fill="#dbdcdd"/>
          </g>
          <g id="Grupo_777" data-name="Grupo 777">
            <rect id="Retângulo_519" data-name="Retângulo 519" width="3.466" height="3.467" transform="translate(1575.803 434.169)" fill="#dbdcdd"/>
          </g>
          <g id="Grupo_778" data-name="Grupo 778">
            <rect id="Retângulo_520" data-name="Retângulo 520" width="3.466" height="3.467" transform="translate(1580.176 434.169)" fill="#dbdcdd"/>
          </g>
          <g id="Grupo_779" data-name="Grupo 779">
            <rect id="Retângulo_521" data-name="Retângulo 521" width="3.467" height="3.467" transform="translate(1584.549 434.169)" fill="#dbdcdd"/>
          </g>
          <g id="Grupo_780" data-name="Grupo 780">
            <rect id="Retângulo_522" data-name="Retângulo 522" width="3.467" height="3.467" transform="translate(1588.921 434.169)" fill="#dbdcdd"/>
          </g>
          <g id="Grupo_781" data-name="Grupo 781">
            <rect id="Retângulo_523" data-name="Retângulo 523" width="3.466" height="3.467" transform="translate(1593.295 434.169)" fill="#dbdcdd"/>
          </g>
          <g id="Grupo_782" data-name="Grupo 782">
            <rect id="Retângulo_524" data-name="Retângulo 524" width="3.466" height="3.467" transform="translate(1597.668 434.169)" fill="#dbdcdd"/>
          </g>
          <g id="Grupo_783" data-name="Grupo 783">
            <rect id="Retângulo_525" data-name="Retângulo 525" width="3.466" height="3.467" transform="translate(1602.041 434.169)" fill="#dbdcdd"/>
          </g>
          <g id="Grupo_784" data-name="Grupo 784">
            <rect id="Retângulo_526" data-name="Retângulo 526" width="8.155" height="3.467" transform="translate(1606.413 434.169)" fill="#dbdcdd"/>
          </g>
          <g id="Grupo_785" data-name="Grupo 785">
            <rect id="Retângulo_527" data-name="Retângulo 527" width="3.466" height="3.467" transform="translate(1541.766 439.132)" fill="#dbdcdd"/>
          </g>
          <g id="Grupo_786" data-name="Grupo 786">
            <rect id="Retângulo_528" data-name="Retângulo 528" width="8.43" height="3.467" transform="translate(1532.39 439.132)" fill="#dbdcdd"/>
          </g>
          <g id="Grupo_787" data-name="Grupo 787">
            <rect id="Retângulo_529" data-name="Retângulo 529" width="3.466" height="3.467" transform="translate(1546.138 439.132)" fill="#dbdcdd"/>
          </g>
          <g id="Grupo_788" data-name="Grupo 788">
            <rect id="Retângulo_530" data-name="Retângulo 530" width="3.466" height="3.467" transform="translate(1550.511 439.132)" fill="#dbdcdd"/>
          </g>
          <g id="Grupo_789" data-name="Grupo 789">
            <rect id="Retângulo_531" data-name="Retângulo 531" width="3.466" height="3.467" transform="translate(1554.884 439.132)" fill="#dbdcdd"/>
          </g>
          <g id="Grupo_790" data-name="Grupo 790">
            <rect id="Retângulo_532" data-name="Retângulo 532" width="3.467" height="3.467" transform="translate(1559.256 439.132)" fill="#dbdcdd"/>
          </g>
          <g id="Grupo_791" data-name="Grupo 791">
            <rect id="Retângulo_533" data-name="Retângulo 533" width="3.467" height="3.467" transform="translate(1563.63 439.132)" fill="#dbdcdd"/>
          </g>
          <g id="Grupo_792" data-name="Grupo 792">
            <rect id="Retângulo_534" data-name="Retângulo 534" width="3.466" height="3.467" transform="translate(1568.003 439.132)" fill="#dbdcdd"/>
          </g>
          <g id="Grupo_793" data-name="Grupo 793">
            <rect id="Retângulo_535" data-name="Retângulo 535" width="3.466" height="3.467" transform="translate(1572.376 439.132)" fill="#dbdcdd"/>
          </g>
          <g id="Grupo_794" data-name="Grupo 794">
            <rect id="Retângulo_536" data-name="Retângulo 536" width="3.466" height="3.467" transform="translate(1576.749 439.132)" fill="#dbdcdd"/>
          </g>
          <g id="Grupo_795" data-name="Grupo 795">
            <rect id="Retângulo_537" data-name="Retângulo 537" width="3.466" height="3.467" transform="translate(1581.122 439.132)" fill="#dbdcdd"/>
          </g>
          <g id="Grupo_796" data-name="Grupo 796">
            <rect id="Retângulo_538" data-name="Retângulo 538" width="3.467" height="3.467" transform="translate(1585.494 439.132)" fill="#dbdcdd"/>
          </g>
          <g id="Grupo_797" data-name="Grupo 797">
            <rect id="Retângulo_539" data-name="Retângulo 539" width="3.467" height="3.467" transform="translate(1589.867 439.132)" fill="#dbdcdd"/>
          </g>
          <g id="Grupo_798" data-name="Grupo 798">
            <rect id="Retângulo_540" data-name="Retângulo 540" width="3.467" height="3.467" transform="translate(1594.24 439.132)" fill="#dbdcdd"/>
          </g>
          <g id="Grupo_799" data-name="Grupo 799">
            <rect id="Retângulo_541" data-name="Retângulo 541" width="3.467" height="3.467" transform="translate(1598.613 439.132)" fill="#dbdcdd"/>
          </g>
          <g id="Grupo_800" data-name="Grupo 800">
            <rect id="Retângulo_542" data-name="Retângulo 542" width="3.467" height="3.467" transform="translate(1602.985 439.132)" fill="#dbdcdd"/>
          </g>
          <g id="Grupo_801" data-name="Grupo 801">
            <rect id="Retângulo_543" data-name="Retângulo 543" width="7.209" height="3.467" transform="translate(1607.358 439.132)" fill="#dbdcdd"/>
          </g>
          <g id="Grupo_802" data-name="Grupo 802">
            <rect id="Retângulo_544" data-name="Retângulo 544" width="5.831" height="3.467" transform="translate(1539.401 443.957)" fill="#dbdcdd"/>
          </g>
          <g id="Grupo_803" data-name="Grupo 803">
            <rect id="Retângulo_545" data-name="Retângulo 545" width="6.105" height="3.467" transform="translate(1532.39 443.957)" fill="#dbdcdd"/>
          </g>
          <g id="Grupo_804" data-name="Grupo 804">
            <rect id="Retângulo_546" data-name="Retângulo 546" width="6.107" height="3.467" transform="translate(1546.137 443.957)" fill="#dbdcdd"/>
          </g>
          <g id="Grupo_805" data-name="Grupo 805">
            <rect id="Retângulo_547" data-name="Retângulo 547" width="31.516" height="3.467" transform="translate(1553.033 443.957)" fill="#dbdcdd"/>
          </g>
          <g id="Grupo_806" data-name="Grupo 806">
            <path id="Caminho_766" data-name="Caminho 766" d="M1591.876,443.957h-6.382v3.467h7.84v-3.467Z" fill="#dbdcdd"/>
          </g>
          <g id="Grupo_807" data-name="Grupo 807">
            <path id="Caminho_767" data-name="Caminho 767" d="M1599.4,443.957h-5.161v3.467h7.84v-3.467Z" fill="#dbdcdd"/>
          </g>
          <g id="Grupo_808" data-name="Grupo 808">
            <path id="Caminho_768" data-name="Caminho 768" d="M1609.368,443.957h-6.382v3.467h11.582v-3.467Z" fill="#dbdcdd"/>
          </g>
        </g>
      </g>
      <g id="Grupo_816" data-name="Grupo 816">
        <g id="Grupo_811" data-name="Grupo 811">
          <path id="Caminho_769" data-name="Caminho 769" d="M1645.724,441.234a5.555,5.555,0,0,1-5.554,5.556h0a5.556,5.556,0,0,1-5.555-5.556v-6.726a5.554,5.554,0,0,1,5.555-5.554h0a5.553,5.553,0,0,1,5.554,5.554Z" fill="#8f9294"/>
        </g>
        <g id="Grupo_812" data-name="Grupo 812">
          <path id="Caminho_770" data-name="Caminho 770" d="M1645.016,440.762a5.557,5.557,0,0,1-5.556,5.556h0a5.556,5.556,0,0,1-5.555-5.556v-6.726a5.555,5.555,0,0,1,5.555-5.554h0a5.555,5.555,0,0,1,5.556,5.554Z" fill="#bec0c1"/>
        </g>
        <g id="Grupo_815" data-name="Grupo 815">
          <g id="Grupo_813" data-name="Grupo 813">
            <path id="Caminho_771" data-name="Caminho 771" d="M1640.091,433.647H1645a5.554,5.554,0,0,0-4.91-5.126Z" fill="#dbdcdd"/>
          </g>
          <g id="Grupo_814" data-name="Grupo 814">
            <path id="Caminho_772" data-name="Caminho 772" d="M1638.752,428.531a5.553,5.553,0,0,0-4.831,5.116h4.831Z" fill="#dbdcdd"/>
          </g>
        </g>
      </g>
      <g id="Grupo_817" data-name="Grupo 817" opacity="0.1">
        <path id="Caminho_773" data-name="Caminho 773" d="M1550.511,354.877l-4.683,33.049v14a1.987,1.987,0,0,0,1.987,1.986h12.858Z" fill="#231f20"/>
      </g>
      <g id="Grupo_818" data-name="Grupo 818">
        <rect id="Retângulo_548" data-name="Retângulo 548" width="15.247" height="15.15" transform="translate(1507.385 348.959)" fill="#91dee8"/>
      </g>
      <g id="Grupo_819" data-name="Grupo 819">
        <rect id="Retângulo_549" data-name="Retângulo 549" width="23.197" height="15.15" transform="translate(1522.631 351.09)" fill="#f6d23d"/>
      </g>
      <g id="Grupo_827" data-name="Grupo 827">
        <g id="Grupo_820" data-name="Grupo 820">
          <rect id="Retângulo_550" data-name="Retângulo 550" width="49.468" height="64.534" transform="translate(1501.043 354.877)" fill="#f47f74"/>
        </g>
        <g id="Grupo_821" data-name="Grupo 821">
          <rect id="Retângulo_551" data-name="Retângulo 551" width="49.468" height="4.217" transform="translate(1501.043 354.877)" fill="#f04b5e"/>
        </g>
        <g id="Grupo_822" data-name="Grupo 822">
          <circle id="Elipse_61" data-name="Elipse 61" cx="1.864" cy="1.864" r="1.864" transform="translate(1512.533 356.138)" fill="#43536c"/>
        </g>
        <g id="Grupo_823" data-name="Grupo 823">
          <circle id="Elipse_62" data-name="Elipse 62" cx="1.864" cy="1.864" r="1.864" transform="translate(1535.743 356.138)" fill="#43536c"/>
        </g>
        <g id="Grupo_825" data-name="Grupo 825">
          <g id="Grupo_824" data-name="Grupo 824">
            <path id="Caminho_774" data-name="Caminho 774" d="M1525.9,384.31a12.466,12.466,0,0,1-12.452-12.451V357.181h1.694v14.678a10.758,10.758,0,0,0,21.515,0V357.181h1.694v14.678A12.466,12.466,0,0,1,1525.9,384.31Z" fill="#e6e7e8"/>
          </g>
        </g>
        <g id="Grupo_826" data-name="Grupo 826">
          <rect id="Retângulo_552" data-name="Retângulo 552" width="49.468" height="3.448" transform="translate(1501.043 415.963)" fill="#f04b5e"/>
        </g>
      </g>
      <g id="Grupo_915" data-name="Grupo 915">
        <g id="Grupo_870" data-name="Grupo 870">
          <g id="Grupo_828" data-name="Grupo 828">
            <path id="Caminho_775" data-name="Caminho 775" d="M1639.844,417.555a1.628,1.628,0,0,1-1.657,1.6H1607.73a1.628,1.628,0,0,1-1.656-1.6V400.972a1.627,1.627,0,0,1,1.656-1.6h30.457a1.626,1.626,0,0,1,1.656,1.6v16.583Z" fill="#f6d23d"/>
          </g>
          <g id="Grupo_829" data-name="Grupo 829">
            <rect id="Retângulo_553" data-name="Retângulo 553" width="33.77" height="4.716" transform="translate(1606.074 402.397)" fill="#43536c"/>
          </g>
          <g id="Grupo_830" data-name="Grupo 830">
            <rect id="Retângulo_554" data-name="Retângulo 554" width="25.887" height="2.732" transform="translate(1610.871 408.775)" fill="#e6e7e8"/>
          </g>
          <g id="Grupo_831" data-name="Grupo 831">
            <rect id="Retângulo_555" data-name="Retângulo 555" width="0.588" height="1.768" transform="translate(1627.609 409.263)" fill="#43536c"/>
          </g>
          <g id="Grupo_832" data-name="Grupo 832">
            <rect id="Retângulo_556" data-name="Retângulo 556" width="0.588" height="1.768" transform="translate(1628.552 409.263)" fill="#43536c"/>
          </g>
          <g id="Grupo_833" data-name="Grupo 833">
            <rect id="Retângulo_557" data-name="Retângulo 557" width="0.588" height="1.768" transform="translate(1629.681 409.263)" fill="#43536c"/>
          </g>
          <g id="Grupo_834" data-name="Grupo 834">
            <rect id="Retângulo_558" data-name="Retângulo 558" width="0.588" height="1.768" transform="translate(1630.909 409.263)" fill="#43536c"/>
          </g>
          <g id="Grupo_835" data-name="Grupo 835">
            <rect id="Retângulo_559" data-name="Retângulo 559" width="0.588" height="1.768" transform="translate(1632.036 409.263)" fill="#43536c"/>
          </g>
          <g id="Grupo_836" data-name="Grupo 836">
            <rect id="Retângulo_560" data-name="Retângulo 560" width="0.588" height="1.768" transform="translate(1633.634 409.263)" fill="#43536c"/>
          </g>
          <g id="Grupo_837" data-name="Grupo 837">
            <rect id="Retângulo_561" data-name="Retângulo 561" width="1.133" height="1.768" transform="translate(1634.769 409.263)" fill="#43536c"/>
          </g>
          <g id="Grupo_838" data-name="Grupo 838">
            <rect id="Retângulo_562" data-name="Retângulo 562" width="0.943" height="1.293" transform="translate(1628.196 409.263)" fill="#43536c"/>
          </g>
          <g id="Grupo_869" data-name="Grupo 869">
            <g id="Grupo_844" data-name="Grupo 844">
              <g id="Grupo_839" data-name="Grupo 839">
                <rect id="Retângulo_563" data-name="Retângulo 563" width="5.154" height="2.406" transform="translate(1609.263 415.217)" fill="#f9e17a"/>
              </g>
              <g id="Grupo_840" data-name="Grupo 840">
                <rect id="Retângulo_564" data-name="Retângulo 564" width="0.542" height="1.692" transform="translate(1609.641 415.53)" fill="#43536c"/>
              </g>
              <g id="Grupo_841" data-name="Grupo 841">
                <rect id="Retângulo_565" data-name="Retângulo 565" width="0.542" height="1.692" transform="translate(1610.641 415.53)" fill="#43536c"/>
              </g>
              <g id="Grupo_842" data-name="Grupo 842">
                <rect id="Retângulo_566" data-name="Retângulo 566" width="0.32" height="1.692" transform="translate(1611.42 415.574)" fill="#43536c"/>
              </g>
              <g id="Grupo_843" data-name="Grupo 843">
                <rect id="Retângulo_567" data-name="Retângulo 567" width="0.271" height="1.692" transform="translate(1613.623 415.574)" fill="#43536c"/>
              </g>
            </g>
            <g id="Grupo_850" data-name="Grupo 850">
              <g id="Grupo_845" data-name="Grupo 845">
                <rect id="Retângulo_568" data-name="Retângulo 568" width="5.351" height="2.406" transform="translate(1624.625 415.217)" fill="#f9e17a"/>
              </g>
              <g id="Grupo_846" data-name="Grupo 846">
                <rect id="Retângulo_569" data-name="Retângulo 569" width="0.562" height="1.692" transform="translate(1629.021 415.53)" fill="#43536c"/>
              </g>
              <g id="Grupo_847" data-name="Grupo 847">
                <rect id="Retângulo_570" data-name="Retângulo 570" width="0.562" height="1.692" transform="translate(1627.983 415.53)" fill="#43536c"/>
              </g>
              <g id="Grupo_848" data-name="Grupo 848">
                <rect id="Retângulo_571" data-name="Retângulo 571" width="0.333" height="1.692" transform="translate(1627.403 415.574)" fill="#43536c"/>
              </g>
              <g id="Grupo_849" data-name="Grupo 849">
                <rect id="Retângulo_572" data-name="Retângulo 572" width="0.281" height="1.692" transform="translate(1625.168 415.574)" fill="#43536c"/>
              </g>
            </g>
            <g id="Grupo_856" data-name="Grupo 856">
              <g id="Grupo_851" data-name="Grupo 851">
                <rect id="Retângulo_573" data-name="Retângulo 573" width="5.154" height="2.406" transform="translate(1632.192 415.217)" fill="#f9e17a"/>
              </g>
              <g id="Grupo_852" data-name="Grupo 852">
                <rect id="Retângulo_574" data-name="Retângulo 574" width="0.542" height="1.692" transform="translate(1632.57 415.53)" fill="#43536c"/>
              </g>
              <g id="Grupo_853" data-name="Grupo 853">
                <rect id="Retângulo_575" data-name="Retângulo 575" width="0.542" height="1.692" transform="translate(1633.57 415.53)" fill="#43536c"/>
              </g>
              <g id="Grupo_854" data-name="Grupo 854">
                <rect id="Retângulo_576" data-name="Retângulo 576" width="0.32" height="1.692" transform="translate(1634.35 415.574)" fill="#43536c"/>
              </g>
              <g id="Grupo_855" data-name="Grupo 855">
                <rect id="Retângulo_577" data-name="Retângulo 577" width="0.271" height="1.692" transform="translate(1636.552 415.574)" fill="#43536c"/>
              </g>
            </g>
            <g id="Grupo_862" data-name="Grupo 862">
              <g id="Grupo_857" data-name="Grupo 857">
                <rect id="Retângulo_578" data-name="Retângulo 578" width="7.031" height="2.406" transform="translate(1615.356 415.217)" fill="#f9e17a"/>
              </g>
              <g id="Grupo_858" data-name="Grupo 858">
                <rect id="Retângulo_579" data-name="Retângulo 579" width="0.739" height="1.692" transform="translate(1615.871 415.53)" fill="#43536c"/>
              </g>
              <g id="Grupo_859" data-name="Grupo 859">
                <rect id="Retângulo_580" data-name="Retângulo 580" width="0.739" height="1.692" transform="translate(1617.235 415.53)" fill="#43536c"/>
              </g>
              <g id="Grupo_860" data-name="Grupo 860">
                <rect id="Retângulo_581" data-name="Retângulo 581" width="0.437" height="1.692" transform="translate(1618.299 415.574)" fill="#43536c"/>
              </g>
              <g id="Grupo_861" data-name="Grupo 861">
                <rect id="Retângulo_582" data-name="Retângulo 582" width="0.37" height="1.692" transform="translate(1621.303 415.574)" fill="#43536c"/>
              </g>
            </g>
            <g id="Grupo_863" data-name="Grupo 863">
              <rect id="Retângulo_583" data-name="Retângulo 583" width="0.96" height="1.648" transform="translate(1612.215 415.574)" fill="#43536c"/>
            </g>
            <g id="Grupo_864" data-name="Grupo 864">
              <rect id="Retângulo_584" data-name="Retângulo 584" width="0.821" height="1.648" transform="translate(1618.735 415.574)" fill="#43536c"/>
            </g>
            <g id="Grupo_865" data-name="Grupo 865">
              <rect id="Retângulo_585" data-name="Retângulo 585" width="0.123" height="1.692" transform="translate(1620.403 415.574)" fill="#43536c"/>
            </g>
            <g id="Grupo_866" data-name="Grupo 866">
              <rect id="Retângulo_586" data-name="Retângulo 586" width="0.282" height="1.648" transform="translate(1626.389 415.574)" fill="#43536c"/>
            </g>
            <g id="Grupo_867" data-name="Grupo 867">
              <rect id="Retângulo_587" data-name="Retângulo 587" width="0.113" height="1.648" transform="translate(1625.825 415.574)" fill="#43536c"/>
            </g>
            <g id="Grupo_868" data-name="Grupo 868">
              <rect id="Retângulo_588" data-name="Retângulo 588" width="0.713" height="1.648" transform="translate(1635.336 415.574)" fill="#43536c"/>
            </g>
          </g>
        </g>
        <g id="Grupo_871" data-name="Grupo 871" opacity="0.1">
          <path id="Caminho_776" data-name="Caminho 776" d="M1620.11,411.507l15.505,7.644h2.572a1.627,1.627,0,0,0,1.656-1.6v-9.491Z" fill="#231f20"/>
        </g>
        <g id="Grupo_914" data-name="Grupo 914">
          <g id="Grupo_872" data-name="Grupo 872">
            <path id="Caminho_777" data-name="Caminho 777" d="M1653.643,410.689a1.627,1.627,0,0,1-1.656,1.6H1621.53a1.627,1.627,0,0,1-1.657-1.6V394.105a1.628,1.628,0,0,1,1.657-1.6h30.457a1.627,1.627,0,0,1,1.656,1.6v16.584Z" fill="#7ed0e0"/>
          </g>
          <g id="Grupo_873" data-name="Grupo 873">
            <rect id="Retângulo_589" data-name="Retângulo 589" width="33.77" height="4.716" transform="translate(1619.873 395.53)" fill="#43536c"/>
          </g>
          <g id="Grupo_874" data-name="Grupo 874">
            <rect id="Retângulo_590" data-name="Retângulo 590" width="25.887" height="2.732" transform="translate(1624.67 401.909)" fill="#e6e7e8"/>
          </g>
          <g id="Grupo_875" data-name="Grupo 875">
            <rect id="Retângulo_591" data-name="Retângulo 591" width="0.588" height="1.768" transform="translate(1641.408 402.397)" fill="#43536c"/>
          </g>
          <g id="Grupo_876" data-name="Grupo 876">
            <rect id="Retângulo_592" data-name="Retângulo 592" width="0.588" height="1.768" transform="translate(1642.351 402.397)" fill="#43536c"/>
          </g>
          <g id="Grupo_877" data-name="Grupo 877">
            <rect id="Retângulo_593" data-name="Retângulo 593" width="0.588" height="1.768" transform="translate(1643.481 402.397)" fill="#43536c"/>
          </g>
          <g id="Grupo_878" data-name="Grupo 878">
            <rect id="Retângulo_594" data-name="Retângulo 594" width="0.588" height="1.768" transform="translate(1644.708 402.397)" fill="#43536c"/>
          </g>
          <g id="Grupo_879" data-name="Grupo 879">
            <rect id="Retângulo_595" data-name="Retângulo 595" width="0.588" height="1.768" transform="translate(1645.836 402.397)" fill="#43536c"/>
          </g>
          <g id="Grupo_880" data-name="Grupo 880">
            <rect id="Retângulo_596" data-name="Retângulo 596" width="0.588" height="1.768" transform="translate(1647.433 402.397)" fill="#43536c"/>
          </g>
          <g id="Grupo_881" data-name="Grupo 881">
            <rect id="Retângulo_597" data-name="Retângulo 597" width="1.133" height="1.768" transform="translate(1648.569 402.397)" fill="#43536c"/>
          </g>
          <g id="Grupo_882" data-name="Grupo 882">
            <rect id="Retângulo_598" data-name="Retângulo 598" width="0.943" height="1.293" transform="translate(1641.996 402.397)" fill="#43536c"/>
          </g>
          <g id="Grupo_913" data-name="Grupo 913">
            <g id="Grupo_888" data-name="Grupo 888">
              <g id="Grupo_883" data-name="Grupo 883">
                <rect id="Retângulo_599" data-name="Retângulo 599" width="5.154" height="2.406" transform="translate(1623.062 408.35)" fill="#91dee8"/>
              </g>
              <g id="Grupo_884" data-name="Grupo 884">
                <rect id="Retângulo_600" data-name="Retângulo 600" width="0.542" height="1.692" transform="translate(1623.44 408.663)" fill="#43536c"/>
              </g>
              <g id="Grupo_885" data-name="Grupo 885">
                <rect id="Retângulo_601" data-name="Retângulo 601" width="0.542" height="1.692" transform="translate(1624.44 408.663)" fill="#43536c"/>
              </g>
              <g id="Grupo_886" data-name="Grupo 886">
                <rect id="Retângulo_602" data-name="Retângulo 602" width="0.32" height="1.692" transform="translate(1625.22 408.707)" fill="#43536c"/>
              </g>
              <g id="Grupo_887" data-name="Grupo 887">
                <rect id="Retângulo_603" data-name="Retângulo 603" width="0.271" height="1.692" transform="translate(1627.423 408.707)" fill="#43536c"/>
              </g>
            </g>
            <g id="Grupo_894" data-name="Grupo 894">
              <g id="Grupo_889" data-name="Grupo 889">
                <rect id="Retângulo_604" data-name="Retângulo 604" width="5.351" height="2.406" transform="translate(1638.424 408.35)" fill="#91dee8"/>
              </g>
              <g id="Grupo_890" data-name="Grupo 890">
                <rect id="Retângulo_605" data-name="Retângulo 605" width="0.562" height="1.692" transform="translate(1642.82 408.663)" fill="#43536c"/>
              </g>
              <g id="Grupo_891" data-name="Grupo 891">
                <rect id="Retângulo_606" data-name="Retângulo 606" width="0.562" height="1.692" transform="translate(1641.783 408.663)" fill="#43536c"/>
              </g>
              <g id="Grupo_892" data-name="Grupo 892">
                <rect id="Retângulo_607" data-name="Retângulo 607" width="0.333" height="1.692" transform="translate(1641.203 408.707)" fill="#43536c"/>
              </g>
              <g id="Grupo_893" data-name="Grupo 893">
                <rect id="Retângulo_608" data-name="Retângulo 608" width="0.281" height="1.692" transform="translate(1638.967 408.707)" fill="#91dee8"/>
              </g>
            </g>
            <g id="Grupo_900" data-name="Grupo 900">
              <g id="Grupo_895" data-name="Grupo 895">
                <rect id="Retângulo_609" data-name="Retângulo 609" width="5.154" height="2.406" transform="translate(1645.992 408.35)" fill="#91dee8"/>
              </g>
              <g id="Grupo_896" data-name="Grupo 896">
                <rect id="Retângulo_610" data-name="Retângulo 610" width="0.542" height="1.692" transform="translate(1646.369 408.663)" fill="#43536c"/>
              </g>
              <g id="Grupo_897" data-name="Grupo 897">
                <rect id="Retângulo_611" data-name="Retângulo 611" width="0.542" height="1.692" transform="translate(1647.369 408.663)" fill="#43536c"/>
              </g>
              <g id="Grupo_898" data-name="Grupo 898">
                <rect id="Retângulo_612" data-name="Retângulo 612" width="0.32" height="1.692" transform="translate(1648.149 408.707)" fill="#43536c"/>
              </g>
              <g id="Grupo_899" data-name="Grupo 899">
                <rect id="Retângulo_613" data-name="Retângulo 613" width="0.271" height="1.692" transform="translate(1650.352 408.707)" fill="#43536c"/>
              </g>
            </g>
            <g id="Grupo_906" data-name="Grupo 906">
              <g id="Grupo_901" data-name="Grupo 901">
                <rect id="Retângulo_614" data-name="Retângulo 614" width="7.031" height="2.406" transform="translate(1629.155 408.35)" fill="#91dee8"/>
              </g>
              <g id="Grupo_902" data-name="Grupo 902">
                <rect id="Retângulo_615" data-name="Retângulo 615" width="0.739" height="1.692" transform="translate(1629.67 408.663)" fill="#43536c"/>
              </g>
              <g id="Grupo_903" data-name="Grupo 903">
                <rect id="Retângulo_616" data-name="Retângulo 616" width="0.739" height="1.692" transform="translate(1631.034 408.663)" fill="#43536c"/>
              </g>
              <g id="Grupo_904" data-name="Grupo 904">
                <rect id="Retângulo_617" data-name="Retângulo 617" width="0.437" height="1.692" transform="translate(1632.098 408.707)" fill="#43536c"/>
              </g>
              <g id="Grupo_905" data-name="Grupo 905">
                <rect id="Retângulo_618" data-name="Retângulo 618" width="0.37" height="1.692" transform="translate(1635.103 408.707)" fill="#43536c"/>
              </g>
            </g>
            <g id="Grupo_907" data-name="Grupo 907">
              <rect id="Retângulo_619" data-name="Retângulo 619" width="0.96" height="1.648" transform="translate(1626.014 408.707)" fill="#43536c"/>
            </g>
            <g id="Grupo_908" data-name="Grupo 908">
              <rect id="Retângulo_620" data-name="Retângulo 620" width="0.821" height="1.648" transform="translate(1632.535 408.707)" fill="#43536c"/>
            </g>
            <g id="Grupo_909" data-name="Grupo 909">
              <rect id="Retângulo_621" data-name="Retângulo 621" width="0.123" height="1.692" transform="translate(1634.203 408.707)" fill="#43536c"/>
            </g>
            <g id="Grupo_910" data-name="Grupo 910">
              <rect id="Retângulo_622" data-name="Retângulo 622" width="0.282" height="1.648" transform="translate(1640.189 408.707)" fill="#43536c"/>
            </g>
            <g id="Grupo_911" data-name="Grupo 911">
              <rect id="Retângulo_623" data-name="Retângulo 623" width="0.113" height="1.648" transform="translate(1639.624 408.707)" fill="#43536c"/>
            </g>
            <g id="Grupo_912" data-name="Grupo 912">
              <rect id="Retângulo_624" data-name="Retângulo 624" width="0.713" height="1.648" transform="translate(1649.136 408.707)" fill="#43536c"/>
            </g>
          </g>
        </g>
      </g>
    </g>
  </g>
</svg>
