<svg xmlns="http://www.w3.org/2000/svg" width="149.434" height="137.848" viewBox="0 0 149.434 137.848">
  <g id="editoracao-e-diagramacao-icon" transform="translate(-1331.465 -576.143)">
    <circle id="Background" cx="65.936" cy="65.936" r="65.936" transform="translate(1340.247 576.143)" fill="#179ab8"/>
    <g id="Editoração">
      <g id="Grupo_931" data-name="Grupo 931">
        <rect id="Retângulo_625" data-name="Retângulo 625" width="5.693" height="23.601" transform="translate(1331.465 596.549) rotate(-0.12)" fill="#f5a61c"/>
        <g id="Grupo_930" data-name="Grupo 930">
          <g id="Grupo_918" data-name="Grupo 918">
            <rect id="Retângulo_626" data-name="Retângulo 626" width="1.685" height="0.228" transform="translate(1331.466 596.91) rotate(-0.12)" fill="#424143"/>
            <rect id="Retângulo_627" data-name="Retângulo 627" width="2.251" height="0.228" transform="translate(1331.471 597.349) rotate(-0.126)" fill="#424143"/>
          </g>
          <g id="Grupo_919" data-name="Grupo 919">
            <rect id="Retângulo_628" data-name="Retângulo 628" width="1.685" height="0.228" transform="translate(1331.47 598.93) rotate(-0.12)" fill="#424143"/>
            <rect id="Retângulo_629" data-name="Retângulo 629" width="2.251" height="0.228" transform="translate(1331.475 599.369) rotate(-0.126)" fill="#424143"/>
          </g>
          <g id="Grupo_920" data-name="Grupo 920">
            <rect id="Retângulo_630" data-name="Retângulo 630" width="1.685" height="0.228" transform="translate(1331.474 600.95) rotate(-0.12)" fill="#424143"/>
            <rect id="Retângulo_631" data-name="Retângulo 631" width="2.251" height="0.228" transform="translate(1331.48 601.389) rotate(-0.126)" fill="#424143"/>
          </g>
          <g id="Grupo_921" data-name="Grupo 921">
            <rect id="Retângulo_632" data-name="Retângulo 632" width="1.685" height="0.228" transform="translate(1331.479 602.971) rotate(-0.12)" fill="#424143"/>
            <rect id="Retângulo_633" data-name="Retângulo 633" width="2.251" height="0.228" transform="translate(1331.484 603.41) rotate(-0.126)" fill="#424143"/>
          </g>
          <g id="Grupo_922" data-name="Grupo 922">
            <rect id="Retângulo_634" data-name="Retângulo 634" width="1.685" height="0.228" transform="translate(1331.483 604.991) rotate(-0.12)" fill="#424143"/>
            <rect id="Retângulo_635" data-name="Retângulo 635" width="2.251" height="0.228" transform="translate(1331.488 605.43) rotate(-0.126)" fill="#424143"/>
          </g>
          <g id="Grupo_923" data-name="Grupo 923">
            <rect id="Retângulo_636" data-name="Retângulo 636" width="1.685" height="0.228" transform="translate(1331.487 607.011) rotate(-0.12)" fill="#424143"/>
            <rect id="Retângulo_637" data-name="Retângulo 637" width="2.251" height="0.228" transform="translate(1331.493 607.45) rotate(-0.126)" fill="#424143"/>
          </g>
          <g id="Grupo_924" data-name="Grupo 924">
            <rect id="Retângulo_638" data-name="Retângulo 638" width="1.685" height="0.228" transform="translate(1331.491 609.032) rotate(-0.12)" fill="#424143"/>
            <rect id="Retângulo_639" data-name="Retângulo 639" width="2.251" height="0.228" transform="translate(1331.494 609.471) rotate(-0.12)" fill="#424143"/>
          </g>
          <g id="Grupo_925" data-name="Grupo 925">
            <rect id="Retângulo_640" data-name="Retângulo 640" width="1.685" height="0.228" transform="translate(1331.496 611.052) rotate(-0.12)" fill="#424143"/>
            <rect id="Retângulo_641" data-name="Retângulo 641" width="2.251" height="0.228" transform="translate(1331.498 611.492) rotate(-0.12)" fill="#424143"/>
          </g>
          <g id="Grupo_926" data-name="Grupo 926">
            <rect id="Retângulo_642" data-name="Retângulo 642" width="1.685" height="0.228" transform="translate(1331.5 613.072) rotate(-0.12)" fill="#424143"/>
            <rect id="Retângulo_643" data-name="Retângulo 643" width="2.251" height="0.228" transform="translate(1331.502 613.512) rotate(-0.12)" fill="#424143"/>
          </g>
          <g id="Grupo_927" data-name="Grupo 927">
            <rect id="Retângulo_644" data-name="Retângulo 644" width="1.685" height="0.228" transform="translate(1331.504 615.092) rotate(-0.12)" fill="#424143"/>
            <rect id="Retângulo_645" data-name="Retângulo 645" width="2.251" height="0.228" transform="translate(1331.506 615.532) rotate(-0.12)" fill="#424143"/>
          </g>
          <g id="Grupo_928" data-name="Grupo 928">
            <rect id="Retângulo_646" data-name="Retângulo 646" width="1.685" height="0.228" transform="translate(1331.511 617.111) rotate(-0.126)" fill="#424143"/>
            <rect id="Retângulo_647" data-name="Retângulo 647" width="2.251" height="0.228" transform="translate(1331.51 617.553) rotate(-0.12)" fill="#424143"/>
          </g>
          <g id="Grupo_929" data-name="Grupo 929">
            <rect id="Retângulo_648" data-name="Retângulo 648" width="1.685" height="0.228" transform="translate(1331.516 619.132) rotate(-0.126)" fill="#424143"/>
            <rect id="Retângulo_649" data-name="Retângulo 649" width="2.251" height="0.228" transform="translate(1331.515 619.573) rotate(-0.12)" fill="#424143"/>
          </g>
        </g>
        <rect id="Retângulo_650" data-name="Retângulo 650" width="0.959" height="23.601" transform="translate(1331.465 596.549) rotate(-0.12)" opacity="0.1" style="isolation: isolate"/>
      </g>
      <g id="Grupo_936" data-name="Grupo 936">
        <rect id="Retângulo_651" data-name="Retângulo 651" width="19.755" height="12.772" transform="translate(1422.162 663.614)" fill="#d1d3d4"/>
        <g id="Grupo_932" data-name="Grupo 932">
          <path id="Caminho_778" data-name="Caminho 778" d="M1480.9,663.5a2.565,2.565,0,0,1-2.558,2.558h-92.6a2.565,2.565,0,0,1-2.558-2.558V595.733a2.565,2.565,0,0,1,2.558-2.558h92.6a2.565,2.565,0,0,1,2.558,2.558V663.5Z" fill="#d1d3d4"/>
        </g>
        <path id="Caminho_779" data-name="Caminho 779" d="M1478.341,593.175h-92.6a2.565,2.565,0,0,0-2.558,2.558V653.48l97.72-.144v-57.6A2.565,2.565,0,0,0,1478.341,593.175Z" fill="#0f142b"/>
        <rect id="Retângulo_652" data-name="Retângulo 652" width="91.281" height="53.196" transform="translate(1386.398 596.536)" fill="#fff"/>
        <rect id="Retângulo_653" data-name="Retângulo 653" width="27.667" height="4.724" transform="translate(1418.206 675.153)" fill="#d1d3d4"/>
        <rect id="Retângulo_654" data-name="Retângulo 654" width="19.755" height="3.08" transform="translate(1422.162 666.323)" opacity="0.1" style="isolation: isolate"/>
        <circle id="Elipse_63" data-name="Elipse 63" cx="2.378" cy="2.378" r="2.378" transform="translate(1429.661 656.867)" fill="#0f142b"/>
        <g id="Grupo_935" data-name="Grupo 935">
          <g id="Grupo_934" data-name="Grupo 934">
            <g id="Grupo_933" data-name="Grupo 933">
              <path id="Caminho_780" data-name="Caminho 780" d="M1406.718,613.955a.2.2,0,0,0,0-.036Z" fill="#716558"/>
            </g>
            <rect id="Retângulo_655" data-name="Retângulo 655" width="0.001" height="1.141" transform="translate(1411.726 624.147) rotate(-79.252)" fill="#9a8379"/>
          </g>
        </g>
        <rect id="Retângulo_656" data-name="Retângulo 656" width="17.931" height="4.357" transform="translate(1434.283 599.89)" fill="#6ccde7"/>
        <rect id="Retângulo_657" data-name="Retângulo 657" width="39.829" height="40.765" transform="translate(1434.283 606.01)" fill="#6ccde7"/>
        <rect id="Retângulo_658" data-name="Retângulo 658" width="17.931" height="4.357" transform="translate(1456.181 599.89)" fill="#6ccde7"/>
        <rect id="Retângulo_659" data-name="Retângulo 659" width="39.83" height="46.716" transform="translate(1390.097 599.89)" fill="#ffd566"/>
      </g>
      <g id="Grupo_937" data-name="Grupo 937">
        <rect id="Retângulo_660" data-name="Retângulo 660" width="2.985" height="20.862" transform="translate(1334.201 621.926) rotate(-0.063)" fill="#0f142b"/>
        <path id="Caminho_781" data-name="Caminho 781" d="M1335.644,644.583a.242.242,0,0,1,.074-.472.242.242,0,0,1,.075.472l0,1.688,1.28-3.134-2.715,0,1.286,3.132Z" fill="#d1d2d3"/>
        <rect id="Retângulo_661" data-name="Retângulo 661" width="2.985" height="0.352" transform="translate(1334.224 642.788) rotate(-0.063)" fill="#d1d2d3"/>
        <path id="Caminho_782" data-name="Caminho 782" d="M1335.364,623.094H1334.2l0,1.535h.551l.007,6.4h.617l-.007-6.4,1.824,0,0-1.535Z" fill="#3b3c3b"/>
        <rect id="Retângulo_662" data-name="Retângulo 662" width="1.516" height="20.86" transform="translate(1335.693 621.924)" opacity="0.1" style="isolation: isolate"/>
      </g>
      <g id="Grupo_941" data-name="Grupo 941">
        <g id="Grupo_938" data-name="Grupo 938">
          <path id="Caminho_783" data-name="Caminho 783" d="M1377.389,677.249a1.227,1.227,0,0,1-1.223,1.223h-15.713a1.227,1.227,0,0,1-1.223-1.223v-27.27a1.226,1.226,0,0,1,1.223-1.223h15.713a1.226,1.226,0,0,1,1.223,1.223Z" fill="#0f142b"/>
        </g>
        <rect id="Retângulo_663" data-name="Retângulo 663" width="3.036" height="1.293" transform="translate(1366.792 676.236)" fill="#fff"/>
        <rect id="Retângulo_664" data-name="Retângulo 664" width="3.036" height="0.337" transform="translate(1366.792 649.681)" fill="#fff"/>
        <path id="Caminho_784" data-name="Caminho 784" d="M1360.974,650.966v24.283h14.671V650.966Z" fill="#fff"/>
        <rect id="Retângulo_665" data-name="Retângulo 665" width="6.212" height="6.693" transform="translate(1361.714 652.093)" fill="#fc5454"/>
        <rect id="Retângulo_666" data-name="Retângulo 666" width="6.212" height="21.342" transform="translate(1368.555 652.093)" fill="#6ccde7"/>
        <g id="Grupo_939" data-name="Grupo 939">
          <rect id="Retângulo_667" data-name="Retângulo 667" width="6.212" height="0.578" transform="translate(1361.714 659.363)" fill="#fc5454"/>
          <rect id="Retângulo_668" data-name="Retângulo 668" width="6.212" height="0.578" transform="translate(1361.714 660.891)" fill="#fc5454"/>
          <rect id="Retângulo_669" data-name="Retângulo 669" width="6.212" height="0.578" transform="translate(1361.714 662.42)" fill="#fc5454"/>
          <rect id="Retângulo_670" data-name="Retângulo 670" width="6.212" height="0.578" transform="translate(1361.714 663.948)" fill="#fc5454"/>
          <rect id="Retângulo_671" data-name="Retângulo 671" width="6.212" height="0.578" transform="translate(1361.714 665.477)" fill="#fc5454"/>
        </g>
        <g id="Grupo_940" data-name="Grupo 940">
          <rect id="Retângulo_672" data-name="Retângulo 672" width="6.212" height="0.578" transform="translate(1361.714 666.742)" fill="#fc5454"/>
          <rect id="Retângulo_673" data-name="Retângulo 673" width="6.212" height="0.578" transform="translate(1361.714 668.271)" fill="#fc5454"/>
          <rect id="Retângulo_674" data-name="Retângulo 674" width="6.212" height="0.578" transform="translate(1361.714 669.799)" fill="#fc5454"/>
          <rect id="Retângulo_675" data-name="Retângulo 675" width="6.212" height="0.578" transform="translate(1361.714 671.328)" fill="#fc5454"/>
          <rect id="Retângulo_676" data-name="Retângulo 676" width="6.212" height="0.578" transform="translate(1361.714 672.857)" fill="#fc5454"/>
        </g>
      </g>
      <g id="Grupo_1049" data-name="Grupo 1049">
        <rect id="Retângulo_677" data-name="Retângulo 677" width="35.695" height="50.008" transform="translate(1341.538 595.909)" fill="#6fb3e2"/>
        <g id="Grupo_1046" data-name="Grupo 1046" opacity="0.3">
          <g id="Grupo_942" data-name="Grupo 942">
            <path id="Caminho_785" data-name="Caminho 785" d="M1356.069,602.276h-3.615v-3.614h3.615Zm-3.417-.2h3.219V598.86h-3.219Z" fill="#fff"/>
          </g>
          <g id="Grupo_943" data-name="Grupo 943">
            <path id="Caminho_786" data-name="Caminho 786" d="M1352.652,602.276h-3.614v-3.614h3.614Zm-3.416-.2h3.218V598.86h-3.218Z" fill="#fff"/>
          </g>
          <g id="Grupo_944" data-name="Grupo 944">
            <path id="Caminho_787" data-name="Caminho 787" d="M1349.236,602.276h-3.614v-3.614h3.614Zm-3.416-.2h3.218V598.86h-3.218Z" fill="#fff"/>
          </g>
          <g id="Grupo_945" data-name="Grupo 945">
            <path id="Caminho_788" data-name="Caminho 788" d="M1359.485,602.276h-3.615v-3.614h3.615Zm-3.416-.2h3.218V598.86h-3.218Z" fill="#fff"/>
          </g>
          <g id="Grupo_946" data-name="Grupo 946">
            <path id="Caminho_789" data-name="Caminho 789" d="M1362.9,602.276h-3.614v-3.614h3.614Zm-3.416-.2h3.218V598.86h-3.218Z" fill="#fff"/>
          </g>
          <g id="Grupo_947" data-name="Grupo 947">
            <path id="Caminho_790" data-name="Caminho 790" d="M1366.317,602.276H1362.7v-3.614h3.614Zm-3.416-.2h3.218V598.86H1362.9Z" fill="#fff"/>
          </g>
          <g id="Grupo_948" data-name="Grupo 948">
            <path id="Caminho_791" data-name="Caminho 791" d="M1369.734,602.276h-3.615v-3.614h3.615Zm-3.417-.2h3.218V598.86h-3.218Z" fill="#fff"/>
          </g>
          <g id="Grupo_949" data-name="Grupo 949">
            <path id="Caminho_792" data-name="Caminho 792" d="M1373.15,602.276h-3.615v-3.614h3.615Zm-3.416-.2h3.217V598.86h-3.217Z" fill="#fff"/>
          </g>
          <g id="Grupo_950" data-name="Grupo 950">
            <path id="Caminho_793" data-name="Caminho 793" d="M1356.069,605.692h-3.615v-3.614h3.615Zm-3.417-.2h3.219v-3.218h-3.219Z" fill="#fff"/>
          </g>
          <g id="Grupo_951" data-name="Grupo 951">
            <path id="Caminho_794" data-name="Caminho 794" d="M1352.652,605.692h-3.614v-3.614h3.614Zm-3.416-.2h3.218v-3.218h-3.218Z" fill="#fff"/>
          </g>
          <g id="Grupo_952" data-name="Grupo 952">
            <path id="Caminho_795" data-name="Caminho 795" d="M1349.236,605.692h-3.614v-3.614h3.614Zm-3.416-.2h3.218v-3.218h-3.218Z" fill="#fff"/>
          </g>
          <g id="Grupo_953" data-name="Grupo 953">
            <path id="Caminho_796" data-name="Caminho 796" d="M1359.485,605.692h-3.615v-3.614h3.615Zm-3.416-.2h3.218v-3.218h-3.218Z" fill="#fff"/>
          </g>
          <g id="Grupo_954" data-name="Grupo 954">
            <path id="Caminho_797" data-name="Caminho 797" d="M1362.9,605.692h-3.614v-3.614h3.614Zm-3.416-.2h3.218v-3.218h-3.218Z" fill="#fff"/>
          </g>
          <g id="Grupo_955" data-name="Grupo 955">
            <path id="Caminho_798" data-name="Caminho 798" d="M1366.317,605.692H1362.7v-3.614h3.614Zm-3.416-.2h3.218v-3.218H1362.9Z" fill="#fff"/>
          </g>
          <g id="Grupo_956" data-name="Grupo 956">
            <path id="Caminho_799" data-name="Caminho 799" d="M1369.734,605.692h-3.615v-3.614h3.615Zm-3.417-.2h3.218v-3.218h-3.218Z" fill="#fff"/>
          </g>
          <g id="Grupo_957" data-name="Grupo 957">
            <path id="Caminho_800" data-name="Caminho 800" d="M1373.15,605.692h-3.615v-3.614h3.615Zm-3.416-.2h3.217v-3.218h-3.217Z" fill="#fff"/>
          </g>
          <g id="Grupo_958" data-name="Grupo 958">
            <path id="Caminho_801" data-name="Caminho 801" d="M1356.069,609.109h-3.615v-3.615h3.615Zm-3.417-.2h3.219v-3.219h-3.219Z" fill="#fff"/>
          </g>
          <g id="Grupo_959" data-name="Grupo 959">
            <path id="Caminho_802" data-name="Caminho 802" d="M1352.652,609.109h-3.614v-3.615h3.614Zm-3.416-.2h3.218v-3.219h-3.218Z" fill="#fff"/>
          </g>
          <g id="Grupo_960" data-name="Grupo 960">
            <path id="Caminho_803" data-name="Caminho 803" d="M1349.236,609.109h-3.614v-3.615h3.614Zm-3.416-.2h3.218v-3.219h-3.218Z" fill="#fff"/>
          </g>
          <g id="Grupo_961" data-name="Grupo 961">
            <path id="Caminho_804" data-name="Caminho 804" d="M1359.485,609.109h-3.615v-3.615h3.615Zm-3.416-.2h3.218v-3.219h-3.218Z" fill="#fff"/>
          </g>
          <g id="Grupo_962" data-name="Grupo 962">
            <path id="Caminho_805" data-name="Caminho 805" d="M1362.9,609.109h-3.614v-3.615h3.614Zm-3.416-.2h3.218v-3.219h-3.218Z" fill="#fff"/>
          </g>
          <g id="Grupo_963" data-name="Grupo 963">
            <path id="Caminho_806" data-name="Caminho 806" d="M1366.317,609.109H1362.7v-3.615h3.614Zm-3.416-.2h3.218v-3.219H1362.9Z" fill="#fff"/>
          </g>
          <g id="Grupo_964" data-name="Grupo 964">
            <path id="Caminho_807" data-name="Caminho 807" d="M1369.734,609.109h-3.615v-3.615h3.615Zm-3.417-.2h3.218v-3.219h-3.218Z" fill="#fff"/>
          </g>
          <g id="Grupo_965" data-name="Grupo 965">
            <path id="Caminho_808" data-name="Caminho 808" d="M1373.15,609.109h-3.615v-3.615h3.615Zm-3.416-.2h3.217v-3.219h-3.217Z" fill="#fff"/>
          </g>
          <g id="Grupo_966" data-name="Grupo 966">
            <path id="Caminho_809" data-name="Caminho 809" d="M1356.069,612.525h-3.615v-3.614h3.615Zm-3.417-.2h3.219v-3.218h-3.219Z" fill="#fff"/>
          </g>
          <g id="Grupo_967" data-name="Grupo 967">
            <path id="Caminho_810" data-name="Caminho 810" d="M1352.652,612.525h-3.614v-3.614h3.614Zm-3.416-.2h3.218v-3.218h-3.218Z" fill="#fff"/>
          </g>
          <g id="Grupo_968" data-name="Grupo 968">
            <path id="Caminho_811" data-name="Caminho 811" d="M1349.236,612.525h-3.614v-3.614h3.614Zm-3.416-.2h3.218v-3.218h-3.218Z" fill="#fff"/>
          </g>
          <g id="Grupo_969" data-name="Grupo 969">
            <path id="Caminho_812" data-name="Caminho 812" d="M1359.485,612.525h-3.615v-3.614h3.615Zm-3.416-.2h3.218v-3.218h-3.218Z" fill="#fff"/>
          </g>
          <g id="Grupo_970" data-name="Grupo 970">
            <path id="Caminho_813" data-name="Caminho 813" d="M1362.9,612.525h-3.614v-3.614h3.614Zm-3.416-.2h3.218v-3.218h-3.218Z" fill="#fff"/>
          </g>
          <g id="Grupo_971" data-name="Grupo 971">
            <path id="Caminho_814" data-name="Caminho 814" d="M1366.317,612.525H1362.7v-3.614h3.614Zm-3.416-.2h3.218v-3.218H1362.9Z" fill="#fff"/>
          </g>
          <g id="Grupo_972" data-name="Grupo 972">
            <path id="Caminho_815" data-name="Caminho 815" d="M1369.734,612.525h-3.615v-3.614h3.615Zm-3.417-.2h3.218v-3.218h-3.218Z" fill="#fff"/>
          </g>
          <g id="Grupo_973" data-name="Grupo 973">
            <path id="Caminho_816" data-name="Caminho 816" d="M1373.15,612.525h-3.615v-3.614h3.615Zm-3.416-.2h3.217v-3.218h-3.217Z" fill="#fff"/>
          </g>
          <g id="Grupo_974" data-name="Grupo 974">
            <path id="Caminho_817" data-name="Caminho 817" d="M1356.069,615.941h-3.615v-3.614h3.615Zm-3.417-.2h3.219v-3.218h-3.219Z" fill="#fff"/>
          </g>
          <g id="Grupo_975" data-name="Grupo 975">
            <path id="Caminho_818" data-name="Caminho 818" d="M1352.652,615.941h-3.614v-3.614h3.614Zm-3.416-.2h3.218v-3.218h-3.218Z" fill="#fff"/>
          </g>
          <g id="Grupo_976" data-name="Grupo 976">
            <path id="Caminho_819" data-name="Caminho 819" d="M1349.236,615.941h-3.614v-3.614h3.614Zm-3.416-.2h3.218v-3.218h-3.218Z" fill="#fff"/>
          </g>
          <g id="Grupo_977" data-name="Grupo 977">
            <path id="Caminho_820" data-name="Caminho 820" d="M1359.485,615.941h-3.615v-3.614h3.615Zm-3.416-.2h3.218v-3.218h-3.218Z" fill="#fff"/>
          </g>
          <g id="Grupo_978" data-name="Grupo 978">
            <path id="Caminho_821" data-name="Caminho 821" d="M1362.9,615.941h-3.614v-3.614h3.614Zm-3.416-.2h3.218v-3.218h-3.218Z" fill="#fff"/>
          </g>
          <g id="Grupo_979" data-name="Grupo 979">
            <path id="Caminho_822" data-name="Caminho 822" d="M1366.317,615.941H1362.7v-3.614h3.614Zm-3.416-.2h3.218v-3.218H1362.9Z" fill="#fff"/>
          </g>
          <g id="Grupo_980" data-name="Grupo 980">
            <path id="Caminho_823" data-name="Caminho 823" d="M1369.734,615.941h-3.615v-3.614h3.615Zm-3.417-.2h3.218v-3.218h-3.218Z" fill="#fff"/>
          </g>
          <g id="Grupo_981" data-name="Grupo 981">
            <path id="Caminho_824" data-name="Caminho 824" d="M1373.15,615.941h-3.615v-3.614h3.615Zm-3.416-.2h3.217v-3.218h-3.217Z" fill="#fff"/>
          </g>
          <g id="Grupo_982" data-name="Grupo 982">
            <path id="Caminho_825" data-name="Caminho 825" d="M1356.069,619.357h-3.615v-3.614h3.615Zm-3.417-.2h3.219v-3.218h-3.219Z" fill="#fff"/>
          </g>
          <g id="Grupo_983" data-name="Grupo 983">
            <path id="Caminho_826" data-name="Caminho 826" d="M1352.652,619.357h-3.614v-3.614h3.614Zm-3.416-.2h3.218v-3.218h-3.218Z" fill="#fff"/>
          </g>
          <g id="Grupo_984" data-name="Grupo 984">
            <path id="Caminho_827" data-name="Caminho 827" d="M1349.236,619.357h-3.614v-3.614h3.614Zm-3.416-.2h3.218v-3.218h-3.218Z" fill="#fff"/>
          </g>
          <g id="Grupo_985" data-name="Grupo 985">
            <path id="Caminho_828" data-name="Caminho 828" d="M1359.485,619.357h-3.615v-3.614h3.615Zm-3.416-.2h3.218v-3.218h-3.218Z" fill="#fff"/>
          </g>
          <g id="Grupo_986" data-name="Grupo 986">
            <path id="Caminho_829" data-name="Caminho 829" d="M1362.9,619.357h-3.614v-3.614h3.614Zm-3.416-.2h3.218v-3.218h-3.218Z" fill="#fff"/>
          </g>
          <g id="Grupo_987" data-name="Grupo 987">
            <path id="Caminho_830" data-name="Caminho 830" d="M1366.317,619.357H1362.7v-3.614h3.614Zm-3.416-.2h3.218v-3.218H1362.9Z" fill="#fff"/>
          </g>
          <g id="Grupo_988" data-name="Grupo 988">
            <path id="Caminho_831" data-name="Caminho 831" d="M1369.734,619.357h-3.615v-3.614h3.615Zm-3.417-.2h3.218v-3.218h-3.218Z" fill="#fff"/>
          </g>
          <g id="Grupo_989" data-name="Grupo 989">
            <path id="Caminho_832" data-name="Caminho 832" d="M1373.15,619.357h-3.615v-3.614h3.615Zm-3.416-.2h3.217v-3.218h-3.217Z" fill="#fff"/>
          </g>
          <g id="Grupo_990" data-name="Grupo 990">
            <path id="Caminho_833" data-name="Caminho 833" d="M1356.069,622.774h-3.615v-3.615h3.615Zm-3.417-.2h3.219v-3.218h-3.219Z" fill="#fff"/>
          </g>
          <g id="Grupo_991" data-name="Grupo 991">
            <path id="Caminho_834" data-name="Caminho 834" d="M1352.652,622.774h-3.614v-3.615h3.614Zm-3.416-.2h3.218v-3.218h-3.218Z" fill="#fff"/>
          </g>
          <g id="Grupo_992" data-name="Grupo 992">
            <path id="Caminho_835" data-name="Caminho 835" d="M1349.236,622.774h-3.614v-3.615h3.614Zm-3.416-.2h3.218v-3.218h-3.218Z" fill="#fff"/>
          </g>
          <g id="Grupo_993" data-name="Grupo 993">
            <path id="Caminho_836" data-name="Caminho 836" d="M1359.485,622.774h-3.615v-3.615h3.615Zm-3.416-.2h3.218v-3.218h-3.218Z" fill="#fff"/>
          </g>
          <g id="Grupo_994" data-name="Grupo 994">
            <path id="Caminho_837" data-name="Caminho 837" d="M1362.9,622.774h-3.614v-3.615h3.614Zm-3.416-.2h3.218v-3.218h-3.218Z" fill="#fff"/>
          </g>
          <g id="Grupo_995" data-name="Grupo 995">
            <path id="Caminho_838" data-name="Caminho 838" d="M1366.317,622.774H1362.7v-3.615h3.614Zm-3.416-.2h3.218v-3.218H1362.9Z" fill="#fff"/>
          </g>
          <g id="Grupo_996" data-name="Grupo 996">
            <path id="Caminho_839" data-name="Caminho 839" d="M1369.734,622.774h-3.615v-3.615h3.615Zm-3.417-.2h3.218v-3.218h-3.218Z" fill="#fff"/>
          </g>
          <g id="Grupo_997" data-name="Grupo 997">
            <path id="Caminho_840" data-name="Caminho 840" d="M1373.15,622.774h-3.615v-3.615h3.615Zm-3.416-.2h3.217v-3.218h-3.217Z" fill="#fff"/>
          </g>
          <g id="Grupo_998" data-name="Grupo 998">
            <path id="Caminho_841" data-name="Caminho 841" d="M1356.069,626.19h-3.615v-3.615h3.615Zm-3.417-.2h3.219v-3.218h-3.219Z" fill="#fff"/>
          </g>
          <g id="Grupo_999" data-name="Grupo 999">
            <path id="Caminho_842" data-name="Caminho 842" d="M1352.652,626.19h-3.614v-3.615h3.614Zm-3.416-.2h3.218v-3.218h-3.218Z" fill="#fff"/>
          </g>
          <g id="Grupo_1000" data-name="Grupo 1000">
            <path id="Caminho_843" data-name="Caminho 843" d="M1349.236,626.19h-3.614v-3.615h3.614Zm-3.416-.2h3.218v-3.218h-3.218Z" fill="#fff"/>
          </g>
          <g id="Grupo_1001" data-name="Grupo 1001">
            <path id="Caminho_844" data-name="Caminho 844" d="M1359.485,626.19h-3.615v-3.615h3.615Zm-3.416-.2h3.218v-3.218h-3.218Z" fill="#fff"/>
          </g>
          <g id="Grupo_1002" data-name="Grupo 1002">
            <path id="Caminho_845" data-name="Caminho 845" d="M1362.9,626.19h-3.614v-3.615h3.614Zm-3.416-.2h3.218v-3.218h-3.218Z" fill="#fff"/>
          </g>
          <g id="Grupo_1003" data-name="Grupo 1003">
            <path id="Caminho_846" data-name="Caminho 846" d="M1366.317,626.19H1362.7v-3.615h3.614Zm-3.416-.2h3.218v-3.218H1362.9Z" fill="#fff"/>
          </g>
          <g id="Grupo_1004" data-name="Grupo 1004">
            <path id="Caminho_847" data-name="Caminho 847" d="M1369.734,626.19h-3.615v-3.615h3.615Zm-3.417-.2h3.218v-3.218h-3.218Z" fill="#fff"/>
          </g>
          <g id="Grupo_1005" data-name="Grupo 1005">
            <path id="Caminho_848" data-name="Caminho 848" d="M1373.15,626.19h-3.615v-3.615h3.615Zm-3.416-.2h3.217v-3.218h-3.217Z" fill="#fff"/>
          </g>
          <g id="Grupo_1006" data-name="Grupo 1006">
            <path id="Caminho_849" data-name="Caminho 849" d="M1356.069,629.5h-3.615v-3.615h3.615Zm-3.417-.2h3.219v-3.219h-3.219Z" fill="#fff"/>
          </g>
          <g id="Grupo_1007" data-name="Grupo 1007">
            <path id="Caminho_850" data-name="Caminho 850" d="M1352.652,629.5h-3.614v-3.615h3.614Zm-3.416-.2h3.218v-3.219h-3.218Z" fill="#fff"/>
          </g>
          <g id="Grupo_1008" data-name="Grupo 1008">
            <path id="Caminho_851" data-name="Caminho 851" d="M1349.236,629.5h-3.614v-3.615h3.614Zm-3.416-.2h3.218v-3.219h-3.218Z" fill="#fff"/>
          </g>
          <g id="Grupo_1009" data-name="Grupo 1009">
            <path id="Caminho_852" data-name="Caminho 852" d="M1359.485,629.5h-3.615v-3.615h3.615Zm-3.416-.2h3.218v-3.219h-3.218Z" fill="#fff"/>
          </g>
          <g id="Grupo_1010" data-name="Grupo 1010">
            <path id="Caminho_853" data-name="Caminho 853" d="M1362.9,629.5h-3.614v-3.615h3.614Zm-3.416-.2h3.218v-3.219h-3.218Z" fill="#fff"/>
          </g>
          <g id="Grupo_1011" data-name="Grupo 1011">
            <path id="Caminho_854" data-name="Caminho 854" d="M1366.317,629.5H1362.7v-3.615h3.614Zm-3.416-.2h3.218v-3.219H1362.9Z" fill="#fff"/>
          </g>
          <g id="Grupo_1012" data-name="Grupo 1012">
            <path id="Caminho_855" data-name="Caminho 855" d="M1369.734,629.5h-3.615v-3.615h3.615Zm-3.417-.2h3.218v-3.219h-3.218Z" fill="#fff"/>
          </g>
          <g id="Grupo_1013" data-name="Grupo 1013">
            <path id="Caminho_856" data-name="Caminho 856" d="M1373.15,629.5h-3.615v-3.615h3.615Zm-3.416-.2h3.217v-3.219h-3.217Z" fill="#fff"/>
          </g>
          <g id="Grupo_1014" data-name="Grupo 1014">
            <path id="Caminho_857" data-name="Caminho 857" d="M1356.069,632.915h-3.615V629.3h3.615Zm-3.417-.2h3.219V629.5h-3.219Z" fill="#fff"/>
          </g>
          <g id="Grupo_1015" data-name="Grupo 1015">
            <path id="Caminho_858" data-name="Caminho 858" d="M1352.652,632.915h-3.614V629.3h3.614Zm-3.416-.2h3.218V629.5h-3.218Z" fill="#fff"/>
          </g>
          <g id="Grupo_1016" data-name="Grupo 1016">
            <path id="Caminho_859" data-name="Caminho 859" d="M1349.236,632.915h-3.614V629.3h3.614Zm-3.416-.2h3.218V629.5h-3.218Z" fill="#fff"/>
          </g>
          <g id="Grupo_1017" data-name="Grupo 1017">
            <path id="Caminho_860" data-name="Caminho 860" d="M1359.485,632.915h-3.615V629.3h3.615Zm-3.416-.2h3.218V629.5h-3.218Z" fill="#fff"/>
          </g>
          <g id="Grupo_1018" data-name="Grupo 1018">
            <path id="Caminho_861" data-name="Caminho 861" d="M1362.9,632.915h-3.614V629.3h3.614Zm-3.416-.2h3.218V629.5h-3.218Z" fill="#fff"/>
          </g>
          <g id="Grupo_1019" data-name="Grupo 1019">
            <path id="Caminho_862" data-name="Caminho 862" d="M1366.317,632.915H1362.7V629.3h3.614Zm-3.416-.2h3.218V629.5H1362.9Z" fill="#fff"/>
          </g>
          <g id="Grupo_1020" data-name="Grupo 1020">
            <path id="Caminho_863" data-name="Caminho 863" d="M1369.734,632.915h-3.615V629.3h3.615Zm-3.417-.2h3.218V629.5h-3.218Z" fill="#fff"/>
          </g>
          <g id="Grupo_1021" data-name="Grupo 1021">
            <path id="Caminho_864" data-name="Caminho 864" d="M1373.15,632.915h-3.615V629.3h3.615Zm-3.416-.2h3.217V629.5h-3.217Z" fill="#fff"/>
          </g>
          <g id="Grupo_1022" data-name="Grupo 1022">
            <path id="Caminho_865" data-name="Caminho 865" d="M1356.069,636.331h-3.615v-3.614h3.615Zm-3.417-.2h3.219v-3.218h-3.219Z" fill="#fff"/>
          </g>
          <g id="Grupo_1023" data-name="Grupo 1023">
            <path id="Caminho_866" data-name="Caminho 866" d="M1352.652,636.331h-3.614v-3.614h3.614Zm-3.416-.2h3.218v-3.218h-3.218Z" fill="#fff"/>
          </g>
          <g id="Grupo_1024" data-name="Grupo 1024">
            <path id="Caminho_867" data-name="Caminho 867" d="M1349.236,636.331h-3.614v-3.614h3.614Zm-3.416-.2h3.218v-3.218h-3.218Z" fill="#fff"/>
          </g>
          <g id="Grupo_1025" data-name="Grupo 1025">
            <path id="Caminho_868" data-name="Caminho 868" d="M1359.485,636.331h-3.615v-3.614h3.615Zm-3.416-.2h3.218v-3.218h-3.218Z" fill="#fff"/>
          </g>
          <g id="Grupo_1026" data-name="Grupo 1026">
            <path id="Caminho_869" data-name="Caminho 869" d="M1362.9,636.331h-3.614v-3.614h3.614Zm-3.416-.2h3.218v-3.218h-3.218Z" fill="#fff"/>
          </g>
          <g id="Grupo_1027" data-name="Grupo 1027">
            <path id="Caminho_870" data-name="Caminho 870" d="M1366.317,636.331H1362.7v-3.614h3.614Zm-3.416-.2h3.218v-3.218H1362.9Z" fill="#fff"/>
          </g>
          <g id="Grupo_1028" data-name="Grupo 1028">
            <path id="Caminho_871" data-name="Caminho 871" d="M1369.734,636.331h-3.615v-3.614h3.615Zm-3.417-.2h3.218v-3.218h-3.218Z" fill="#fff"/>
          </g>
          <g id="Grupo_1029" data-name="Grupo 1029">
            <path id="Caminho_872" data-name="Caminho 872" d="M1373.15,636.331h-3.615v-3.614h3.615Zm-3.416-.2h3.217v-3.218h-3.217Z" fill="#fff"/>
          </g>
          <g id="Grupo_1030" data-name="Grupo 1030">
            <path id="Caminho_873" data-name="Caminho 873" d="M1356.069,639.748h-3.615v-3.615h3.615Zm-3.417-.2h3.219v-3.218h-3.219Z" fill="#fff"/>
          </g>
          <g id="Grupo_1031" data-name="Grupo 1031">
            <path id="Caminho_874" data-name="Caminho 874" d="M1352.652,639.748h-3.614v-3.615h3.614Zm-3.416-.2h3.218v-3.218h-3.218Z" fill="#fff"/>
          </g>
          <g id="Grupo_1032" data-name="Grupo 1032">
            <path id="Caminho_875" data-name="Caminho 875" d="M1349.236,639.748h-3.614v-3.615h3.614Zm-3.416-.2h3.218v-3.218h-3.218Z" fill="#fff"/>
          </g>
          <g id="Grupo_1033" data-name="Grupo 1033">
            <path id="Caminho_876" data-name="Caminho 876" d="M1359.485,639.748h-3.615v-3.615h3.615Zm-3.416-.2h3.218v-3.218h-3.218Z" fill="#fff"/>
          </g>
          <g id="Grupo_1034" data-name="Grupo 1034">
            <path id="Caminho_877" data-name="Caminho 877" d="M1362.9,639.748h-3.614v-3.615h3.614Zm-3.416-.2h3.218v-3.218h-3.218Z" fill="#fff"/>
          </g>
          <g id="Grupo_1035" data-name="Grupo 1035">
            <path id="Caminho_878" data-name="Caminho 878" d="M1366.317,639.748H1362.7v-3.615h3.614Zm-3.416-.2h3.218v-3.218H1362.9Z" fill="#fff"/>
          </g>
          <g id="Grupo_1036" data-name="Grupo 1036">
            <path id="Caminho_879" data-name="Caminho 879" d="M1369.734,639.748h-3.615v-3.615h3.615Zm-3.417-.2h3.218v-3.218h-3.218Z" fill="#fff"/>
          </g>
          <g id="Grupo_1037" data-name="Grupo 1037">
            <path id="Caminho_880" data-name="Caminho 880" d="M1373.15,639.748h-3.615v-3.615h3.615Zm-3.416-.2h3.217v-3.218h-3.217Z" fill="#fff"/>
          </g>
          <g id="Grupo_1038" data-name="Grupo 1038">
            <path id="Caminho_881" data-name="Caminho 881" d="M1356.069,643.164h-3.615v-3.615h3.615Zm-3.417-.2h3.219v-3.217h-3.219Z" fill="#fff"/>
          </g>
          <g id="Grupo_1039" data-name="Grupo 1039">
            <path id="Caminho_882" data-name="Caminho 882" d="M1352.652,643.164h-3.614v-3.615h3.614Zm-3.416-.2h3.218v-3.217h-3.218Z" fill="#fff"/>
          </g>
          <g id="Grupo_1040" data-name="Grupo 1040">
            <path id="Caminho_883" data-name="Caminho 883" d="M1349.236,643.164h-3.614v-3.615h3.614Zm-3.416-.2h3.218v-3.217h-3.218Z" fill="#fff"/>
          </g>
          <g id="Grupo_1041" data-name="Grupo 1041">
            <path id="Caminho_884" data-name="Caminho 884" d="M1359.485,643.164h-3.615v-3.615h3.615Zm-3.416-.2h3.218v-3.217h-3.218Z" fill="#fff"/>
          </g>
          <g id="Grupo_1042" data-name="Grupo 1042">
            <path id="Caminho_885" data-name="Caminho 885" d="M1362.9,643.164h-3.614v-3.615h3.614Zm-3.416-.2h3.218v-3.217h-3.218Z" fill="#fff"/>
          </g>
          <g id="Grupo_1043" data-name="Grupo 1043">
            <path id="Caminho_886" data-name="Caminho 886" d="M1366.317,643.164H1362.7v-3.615h3.614Zm-3.416-.2h3.218v-3.217H1362.9Z" fill="#fff"/>
          </g>
          <g id="Grupo_1044" data-name="Grupo 1044">
            <path id="Caminho_887" data-name="Caminho 887" d="M1369.734,643.164h-3.615v-3.615h3.615Zm-3.417-.2h3.218v-3.217h-3.218Z" fill="#fff"/>
          </g>
          <g id="Grupo_1045" data-name="Grupo 1045">
            <path id="Caminho_888" data-name="Caminho 888" d="M1373.15,643.164h-3.615v-3.615h3.615Zm-3.416-.2h3.217v-3.217h-3.217Z" fill="#fff"/>
          </g>
        </g>
        <rect id="Retângulo_678" data-name="Retângulo 678" width="17.847" height="50.008" transform="translate(1359.386 595.963)" opacity="0.1" style="isolation: isolate"/>
        <path id="Caminho_889" data-name="Caminho 889" d="M1372.448,635.057l-.923-.533v.335H1347.78v.4h23.745v.335Z" fill="#fff"/>
        <path id="Caminho_890" data-name="Caminho 890" d="M1346.635,608.316l-.533.923h.334v23.745h.4V609.239h.335Z" fill="#fff"/>
        <g id="Grupo_1047" data-name="Grupo 1047">
          <path id="Caminho_891" data-name="Caminho 891" d="M1370.328,633.51h-21.885V608.316h21.886V633.51Zm-20.5-1.388h19.11V609.7h-19.11v22.418Z" fill="#fff"/>
        </g>
        <g id="Grupo_1048" data-name="Grupo 1048">
          <path id="Caminho_892" data-name="Caminho 892" d="M1357.418,618.623h-4.969l-1.536-4.725,4.02-2.921,4.02,2.921Zm-4.261-.974h3.553l1.1-3.379-2.874-2.089-2.875,2.089Z" fill="#fff"/>
        </g>
      </g>
      <g id="Grupo_1054" data-name="Grupo 1054">
        <g id="Grupo_1050" data-name="Grupo 1050">
          <path id="Caminho_893" data-name="Caminho 893" d="M1377.742,594.588a.917.917,0,0,0-.565-1.148l-.654-.3a.826.826,0,1,0-.673,1.472l.654.3A.916.916,0,0,0,1377.742,594.588Z" fill="#e7e6e6"/>
        </g>
        <g id="Grupo_1051" data-name="Grupo 1051">
          <path id="Caminho_894" data-name="Caminho 894" d="M1368.058,615.752l-2.794,2.863.339-3.986Z" fill="#e9a954"/>
        </g>
        <path id="Caminho_895" data-name="Caminho 895" d="M1365.3,618.581l-.032.033,0-.046-.024.089Z" fill="none"/>
        <rect id="Retângulo_679" data-name="Retângulo 679" width="23.246" height="2.702" transform="matrix(0.416, -0.909, 0.909, 0.416, 1365.606, 614.627)" fill="#136fb7"/>
        <g id="Grupo_1052" data-name="Grupo 1052">
          <path id="Caminho_896" data-name="Caminho 896" d="M1365.6,614.629l-.336,3.939.964-3.652Z" fill="#231f20" opacity="0.2" style="isolation: isolate"/>
          <path id="Caminho_897" data-name="Caminho 897" d="M1365.3,618.581l2.13-3.118-1.2-.547-.964,3.652,0,.046Z" fill="#231f20" opacity="0.4" style="isolation: isolate"/>
          <path id="Caminho_898" data-name="Caminho 898" d="M1368.058,615.752l-.631-.289-2.13,3.118Z" fill="#231f20" opacity="0.5" style="isolation: isolate"/>
          <rect id="Retângulo_680" data-name="Retângulo 680" width="23.246" height="1.314" transform="matrix(0.416, -0.909, 0.909, 0.416, 1366.232, 614.919)" fill="#231f20" opacity="0.4" style="isolation: isolate"/>
          <rect id="Retângulo_681" data-name="Retângulo 681" width="23.246" height="0.694" transform="matrix(0.416, -0.909, 0.909, 0.416, 1367.426, 615.466)" fill="#231f20" opacity="0.5" style="isolation: isolate"/>
          <rect id="Retângulo_682" data-name="Retângulo 682" width="23.246" height="0.694" transform="matrix(0.416, -0.909, 0.909, 0.416, 1365.6, 614.63)" fill="#231f20" opacity="0.2" style="isolation: isolate"/>
        </g>
        <g id="Grupo_1053" data-name="Grupo 1053">
          <path id="Caminho_899" data-name="Caminho 899" d="M1366.559,615.066l.539.247h0Z" fill="none"/>
        </g>
        <path id="Caminho_900" data-name="Caminho 900" d="M1365.339,617.74l-.075.875.613-.628Z" fill="#fff"/>
      </g>
      <g id="Grupo_1062" data-name="Grupo 1062">
        <rect id="Retângulo_683" data-name="Retângulo 683" width="7.535" height="0.633" transform="translate(1353.895 601.643)" fill="#f1f1f1"/>
        <g id="Grupo_1059" data-name="Grupo 1059">
          <g id="Grupo_1057" data-name="Grupo 1057">
            <g id="Grupo_1056" data-name="Grupo 1056">
              <g id="Grupo_1055" data-name="Grupo 1055">
                <path id="Caminho_901" data-name="Caminho 901" d="M1363.032,608.867l.029.062.2.167,0-.263-.029-.062Z" fill="#231f20"/>
                <rect id="Retângulo_684" data-name="Retângulo 684" width="0.226" height="1.089" transform="translate(1362.573 607.883) rotate(-25.004)" fill="#d1d2d3"/>
              </g>
              <rect id="Retângulo_685" data-name="Retângulo 685" width="0.882" height="0.145" transform="translate(1362.401 608.293) rotate(-24.999)" fill="#d1d2d3"/>
              <path id="Caminho_902" data-name="Caminho 902" d="M1363.049,608.368l-.205.1-.221-.115.483-.225Z" fill="#d1d2d3"/>
            </g>
            <rect id="Retângulo_686" data-name="Retângulo 686" width="1.448" height="12.486" transform="translate(1356.872 597.094) rotate(-25.004)" fill="#145c2f"/>
          </g>
          <g id="Grupo_1058" data-name="Grupo 1058">
            <rect id="Retângulo_687" data-name="Retângulo 687" width="12.486" height="1.448" transform="translate(1351.865 607.798) rotate(-65.001)" fill="#929497"/>
            <rect id="Retângulo_688" data-name="Retângulo 688" width="12.486" height="1.448" transform="translate(1351.865 607.798) rotate(-65.001)" fill="#145c2f"/>
            <path id="Caminho_903" data-name="Caminho 903" d="M1352.615,608.148l-.186-.087-.374.8.005.231.18-.145h0Z" fill="#231f20"/>
          </g>
        </g>
        <rect id="Retângulo_689" data-name="Retângulo 689" width="1.108" height="2.694" transform="translate(1357.109 592.712)" fill="#e7e6e6"/>
        <path id="Caminho_904" data-name="Caminho 904" d="M1358.182,596.483l-1.312.611,1.437,3.081a2.537,2.537,0,0,0,1.242-.76Z" opacity="0.1" style="isolation: isolate"/>
        <circle id="Background-2" data-name="Background" cx="2.533" cy="2.533" r="2.533" transform="translate(1355.13 594.779)" fill="#145c2f"/>
        <circle id="Background-3" data-name="Background" cx="1.88" cy="1.88" r="1.88" transform="translate(1355.783 595.433)" fill="#e7e6e6"/>
        <g id="Grupo_1060" data-name="Grupo 1060">
          <path id="Caminho_905" data-name="Caminho 905" d="M1356,597.5a1.879,1.879,0,0,1,2.984-1.521,1.88,1.88,0,1,0-2.427,2.857A1.874,1.874,0,0,1,1356,597.5Z" fill="#929497"/>
        </g>
        <path id="Caminho_906" data-name="Caminho 906" d="M1358.508,591.164a.453.453,0,0,0-.452-.452h-.786a.454.454,0,0,0-.453.452v2.121a.454.454,0,0,0,.453.452h.786a.453.453,0,0,0,.452-.452Z" fill="#145c2f"/>
        <g id="Grupo_1061" data-name="Grupo 1061">
          <path id="Caminho_907" data-name="Caminho 907" d="M1357.881,601.96c0,.456-.1.829-.218.829s-.219-.373-.219-.829.1-.83.219-.83S1357.881,601.5,1357.881,601.96Z" fill="#231f20"/>
        </g>
        <circle id="Elipse_64" data-name="Elipse 64" cx="0.412" cy="0.412" r="0.412" transform="translate(1357.251 596.901)" fill="#231f20"/>
      </g>
      <g id="Grupo_1064" data-name="Grupo 1064">
        <rect id="Retângulo_690" data-name="Retângulo 690" width="7.345" height="3.576" transform="translate(1350.589 647.893)" fill="#fff8ea"/>
        <rect id="Retângulo_691" data-name="Retângulo 691" width="5.344" height="3.79" transform="translate(1351.589 647.786)" fill="#017692"/>
        <g id="Grupo_1063" data-name="Grupo 1063">
          <path id="Caminho_908" data-name="Caminho 908" d="M1351.857,650.1v-.846h.624v.143h-.454v.188h.423v.142h-.423v.23h.47v.143Z" fill="#67c8d4"/>
          <path id="Caminho_909" data-name="Caminho 909" d="M1352.642,650.1v-.846H1353a.614.614,0,0,1,.2.023.193.193,0,0,1,.1.081.248.248,0,0,1,.037.133.225.225,0,0,1-.056.157.266.266,0,0,1-.167.079.394.394,0,0,1,.091.07.922.922,0,0,1,.1.138l.1.165h-.2l-.123-.184a1.376,1.376,0,0,0-.09-.125.127.127,0,0,0-.051-.035.284.284,0,0,0-.085-.01h-.035v.353h-.17Zm.17-.488h.126a.636.636,0,0,0,.153-.011.088.088,0,0,0,.047-.035.107.107,0,0,0,.017-.064.1.1,0,0,0-.022-.069.11.11,0,0,0-.064-.033c-.014,0-.055,0-.124,0h-.133Z" fill="#67c8d4"/>
          <path id="Caminho_910" data-name="Caminho 910" d="M1354.25,650.1h-.185l-.074-.192h-.336l-.07.192h-.18l.328-.846h.179Zm-.313-.335-.116-.314-.114.314Z" fill="#67c8d4"/>
          <path id="Caminho_911" data-name="Caminho 911" d="M1354.3,649.829l.165-.016a.2.2,0,0,0,.061.122.182.182,0,0,0,.123.04.191.191,0,0,0,.124-.035.108.108,0,0,0,.041-.082.08.08,0,0,0-.017-.051.148.148,0,0,0-.061-.037c-.02-.007-.066-.019-.136-.037a.457.457,0,0,1-.192-.083.222.222,0,0,1-.078-.17.21.21,0,0,1,.037-.121.225.225,0,0,1,.1-.086.414.414,0,0,1,.166-.029.351.351,0,0,1,.238.07.241.241,0,0,1,.084.186l-.17.007a.142.142,0,0,0-.047-.093.163.163,0,0,0-.107-.029.2.2,0,0,0-.116.03.063.063,0,0,0-.027.053.063.063,0,0,0,.025.051.444.444,0,0,0,.156.057.767.767,0,0,1,.183.061.227.227,0,0,1,.093.086.245.245,0,0,1,.034.134.251.251,0,0,1-.04.137.247.247,0,0,1-.114.094.466.466,0,0,1-.183.031.366.366,0,0,1-.245-.074A.325.325,0,0,1,1354.3,649.829Z" fill="#67c8d4"/>
          <path id="Caminho_912" data-name="Caminho 912" d="M1355.124,650.1v-.846h.624v.143h-.454v.188h.422v.142h-.422v.23h.47v.143Z" fill="#67c8d4"/>
          <path id="Caminho_913" data-name="Caminho 913" d="M1355.909,650.1v-.846h.358a.607.607,0,0,1,.2.023.189.189,0,0,1,.1.081.241.241,0,0,1,.037.133.224.224,0,0,1-.055.157.269.269,0,0,1-.167.079.394.394,0,0,1,.091.07,1,1,0,0,1,.1.138l.1.165h-.2l-.123-.184a1.248,1.248,0,0,0-.089-.125.126.126,0,0,0-.051-.035.291.291,0,0,0-.086-.01h-.034v.353h-.17Zm.17-.488h.125a.626.626,0,0,0,.153-.011.091.091,0,0,0,.048-.035.115.115,0,0,0,.017-.064.1.1,0,0,0-.023-.069.107.107,0,0,0-.064-.033c-.013,0-.055,0-.124,0h-.132v.215Z" fill="#67c8d4"/>
        </g>
      </g>
      <g id="Grupo_1066" data-name="Grupo 1066">
        <rect id="Retângulo_692" data-name="Retângulo 692" width="33.346" height="42.492" transform="translate(1380.219 671.498)" fill="#144e5b"/>
        <rect id="Retângulo_693" data-name="Retângulo 693" width="30.143" height="38.411" transform="translate(1381.82 673.539)" fill="#fff"/>
        <rect id="Retângulo_694" data-name="Retângulo 694" width="14.713" height="3.757" transform="translate(1389.535 671.498)" fill="#051f3b"/>
        <rect id="Retângulo_695" data-name="Retângulo 695" width="11.159" height="0.816" transform="translate(1391.312 670.682)" fill="#051f3b"/>
        <circle id="Elipse_65" data-name="Elipse 65" cx="1.571" cy="1.571" r="1.571" transform="translate(1395.321 669.111)" fill="#051f3b"/>
        <g id="Grupo_1065" data-name="Grupo 1065">
          <rect id="Retângulo_696" data-name="Retângulo 696" width="25.241" height="8.745" transform="translate(1384.271 676.545)" fill="#e6e7e8"/>
          <rect id="Retângulo_697" data-name="Retângulo 697" width="25.241" height="1.508" transform="translate(1384.271 686.639)" fill="#bcbec0"/>
          <rect id="Retângulo_698" data-name="Retângulo 698" width="25.241" height="1.508" transform="translate(1384.271 690.132)" fill="#bcbec0"/>
          <rect id="Retângulo_699" data-name="Retângulo 699" width="10.582" height="1.508" transform="translate(1384.271 693.134)" fill="#bcbec0"/>
          <rect id="Retângulo_700" data-name="Retângulo 700" width="10.582" height="1.508" transform="translate(1384.271 695.53)" fill="#bcbec0"/>
          <rect id="Retângulo_701" data-name="Retângulo 701" width="25.241" height="1.508" transform="translate(1384.271 698.149)" fill="#bcbec0"/>
          <rect id="Retângulo_702" data-name="Retângulo 702" width="25.241" height="1.508" transform="translate(1384.271 701.403)" fill="#bcbec0"/>
          <rect id="Retângulo_703" data-name="Retângulo 703" width="25.241" height="1.508" transform="translate(1384.271 704.578)" fill="#bcbec0"/>
          <rect id="Retângulo_704" data-name="Retângulo 704" width="17.58" height="1.508" transform="translate(1384.271 707.436)" fill="#bcbec0"/>
          <rect id="Retângulo_705" data-name="Retângulo 705" width="13.206" height="3.904" transform="translate(1396.306 693.134)" fill="#e2606c"/>
        </g>
      </g>
    </g>
  </g>
</svg>
