<svg xmlns="http://www.w3.org/2000/svg" width="131.872" height="131.872" viewBox="0 0 131.872 131.872">
  <g id="foto-e-video-icon" transform="translate(-1276.987 -339.377)">
    <circle id="Background_2" data-name="Background 2" cx="65.936" cy="65.936" r="65.936" transform="translate(1276.987 339.377)" fill="#fce37c"/>
    <g id="Photography">
      <g id="Grupo_632" data-name="Grupo 632">
        <path id="Caminho_670" data-name="Caminho 670" d="M1344.651,348.2l-20.876,1.707-16.861.012v23.544h50.845V352.523Z" fill="#2db09a"/>
        <path id="Caminho_671" data-name="Caminho 671" d="M1318.808,346.2a.368.368,0,0,1-.368.368h-9a.368.368,0,0,1-.368-.368v-1.233a.369.369,0,0,1,.368-.369h9a.37.37,0,0,1,.368.369Z" fill="#e6e7e8"/>
        <path id="Caminho_672" data-name="Caminho 672" d="M1326.977,344.814a.368.368,0,0,1-.368.368h-6.8a.369.369,0,0,1-.369-.368V344a.369.369,0,0,1,.369-.368h6.8a.368.368,0,0,1,.368.368Z" fill="#2db09a"/>
        <rect id="Retângulo_418" data-name="Retângulo 418" width="6.334" height="0.81" transform="translate(1320.042 345.182)" fill="#e6e7e8"/>
        <path id="Caminho_673" data-name="Caminho 673" d="M1306.913,345.992h21.016l-.012-2.357h29.842v8.888h-15.025l-4.689-2.624-31.13.021Z" fill="#fff"/>
        <path id="Caminho_674" data-name="Caminho 674" d="M1336.043,347.351a.316.316,0,0,1-.315.315h-4.786a.316.316,0,0,1-.315-.315v-1.558a.315.315,0,0,1,.315-.314h4.786a.315.315,0,0,1,.315.314Z" fill="#5a748a"/>
        <path id="Caminho_675" data-name="Caminho 675" d="M1353.977,351a.369.369,0,0,1-.368.368h-8.153a.369.369,0,0,1-.368-.368v-5.6a.369.369,0,0,1,.368-.368h8.153a.369.369,0,0,1,.368.368Z" fill="#93b6c6"/>
        <g id="Grupo_630" data-name="Grupo 630" opacity="0.1">
          <path id="Caminho_676" data-name="Caminho 676" d="M1346.143,345.587h7.834V345.4a.369.369,0,0,0-.368-.368h-8.153a.369.369,0,0,0-.368.368V351a.369.369,0,0,0,.368.368h.319v-5.413A.369.369,0,0,1,1346.143,345.587Z"/>
        </g>
        <path id="Caminho_677" data-name="Caminho 677" d="M1352.449,349.912a.37.37,0,0,1-.368.368h-5.1a.369.369,0,0,1-.368-.368v-3.42a.369.369,0,0,1,.368-.368h5.1a.37.37,0,0,1,.368.368Z" fill="#7b96aa"/>
        <path id="Caminho_678" data-name="Caminho 678" d="M1350.837,348.764a.369.369,0,0,1-.368.368H1348.6a.369.369,0,0,1-.368-.368v-1.123a.369.369,0,0,1,.368-.369h1.873a.369.369,0,0,1,.368.369Z" fill="#5a748a"/>
        <rect id="Retângulo_419" data-name="Retângulo 419" width="50.845" height="1.326" transform="translate(1306.913 372.139)" fill="#fff"/>
        <path id="Caminho_679" data-name="Caminho 679" d="M1357.758,364.248l-11.4-11.4-18.064,18.064,2.557,2.557h26.91Z" opacity="0.1" style="isolation: isolate"/>
        <circle id="Elipse_41" data-name="Elipse 41" cx="12.779" cy="12.779" r="12.779" transform="translate(1324.459 349.018)" fill="#fff"/>
        <circle id="Elipse_42" data-name="Elipse 42" cx="10.441" cy="10.441" r="10.441" transform="translate(1326.797 351.356)" fill="#92b7cb"/>
        <circle id="Elipse_43" data-name="Elipse 43" cx="10.441" cy="10.441" r="10.441" transform="translate(1326.797 351.356)" fill="#93b6c6"/>
        <g id="Grupo_631" data-name="Grupo 631" opacity="0.1">
          <path id="Caminho_680" data-name="Caminho 680" d="M1338.612,352.523a10.393,10.393,0,0,1,6.039,1.923,10.441,10.441,0,1,0-13.452,15.869,10.44,10.44,0,0,1,7.413-17.792Z"/>
        </g>
        <circle id="Elipse_44" data-name="Elipse 44" cx="7.476" cy="7.476" r="7.476" transform="translate(1329.762 354.321)" fill="#7b96aa"/>
        <circle id="Elipse_45" data-name="Elipse 45" cx="4.235" cy="4.235" r="4.235" transform="translate(1333.002 357.562)" fill="#475e70"/>
        <circle id="Elipse_46" data-name="Elipse 46" cx="1.915" cy="1.915" r="1.915" transform="translate(1335.322 359.882)" fill="#5a748a"/>
        <circle id="Elipse_47" data-name="Elipse 47" cx="1.181" cy="1.181" r="1.181" transform="translate(1336.921 359.882)" fill="#fff"/>
        <circle id="Elipse_48" data-name="Elipse 48" cx="1.01" cy="1.01" r="1.01" transform="translate(1325.21 351.061)" fill="#fff"/>
        <rect id="Retângulo_420" data-name="Retângulo 420" width="6.702" height="27.472" transform="translate(1306.913 345.992)" opacity="0.2" style="isolation: isolate"/>
      </g>
      <g id="Grupo_635" data-name="Grupo 635">
        <path id="Caminho_681" data-name="Caminho 681" d="M1375.111,460.787a2.666,2.666,0,0,1-2.658,2.658h-30.615a2.666,2.666,0,0,1-2.658-2.658V442.715a2.665,2.665,0,0,1,2.658-2.657h30.615a2.665,2.665,0,0,1,2.658,2.657v18.072Z" fill="#2db09a"/>
        <path id="Caminho_682" data-name="Caminho 682" d="M1372.453,440.058h-30.615a2.665,2.665,0,0,0-2.658,2.657v3.356h35.931v-3.356A2.665,2.665,0,0,0,1372.453,440.058Z" opacity="0.1" style="isolation: isolate"/>
        <path id="Caminho_683" data-name="Caminho 683" d="M1341.838,463.445h30.615a2.666,2.666,0,0,0,2.658-2.658v-3.355H1339.18v3.355A2.666,2.666,0,0,0,1341.838,463.445Z" opacity="0.1" style="isolation: isolate"/>
        <path id="Caminho_684" data-name="Caminho 684" d="M1370.551,443.667a.533.533,0,0,1-.532.531h-3.3a.533.533,0,0,1-.532-.531v-1.2a.534.534,0,0,1,.532-.532h3.3a.534.534,0,0,1,.532.532Z" fill="#fff"/>
        <circle id="Elipse_49" data-name="Elipse 49" cx="0.718" cy="0.718" r="0.718" transform="translate(1345.929 442.347)" fill="#fff"/>
        <rect id="Retângulo_421" data-name="Retângulo 421" width="4.252" height="0.773" transform="translate(1366.245 439.285)" fill="#ee2136"/>
        <rect id="Retângulo_422" data-name="Retângulo 422" width="3.614" height="0.532" transform="translate(1366.564 438.753)" fill="#fff"/>
        <path id="Caminho_685" data-name="Caminho 685" d="M1349.68,439.285v.387h-2.02v-.387h-4.075v.773h10.17v-.773Z" fill="#fff"/>
        <g id="Grupo_634" data-name="Grupo 634">
          <circle id="Elipse_50" data-name="Elipse 50" cx="8.564" cy="8.564" r="8.564" transform="translate(1348.581 443.187)" fill="#f1f1f1"/>
          <circle id="Elipse_51" data-name="Elipse 51" cx="6.858" cy="6.858" r="6.858" transform="translate(1350.287 444.893)" fill="#bcbdbf"/>
          <g id="Grupo_633" data-name="Grupo 633" opacity="0.1">
            <path id="Caminho_686" data-name="Caminho 686" d="M1358.143,445.891a6.832,6.832,0,0,1,4.325,1.536,6.858,6.858,0,1,0-9.647,9.646,6.857,6.857,0,0,1,5.322-11.182Z"/>
          </g>
          <circle id="Elipse_52" data-name="Elipse 52" cx="2.738" cy="2.738" r="2.738" transform="translate(1354.407 449.013)" fill="#59595c"/>
          <circle id="Elipse_53" data-name="Elipse 53" cx="2.022" cy="2.022" r="2.022" transform="translate(1355.124 449.73)" fill="#424143"/>
          <circle id="Elipse_54" data-name="Elipse 54" cx="0.998" cy="0.998" r="0.998" transform="translate(1356.147 450.753)" fill="#231f20"/>
          <circle id="Elipse_55" data-name="Elipse 55" cx="0.529" cy="0.529" r="0.529" transform="translate(1356.951 450.376)" fill="#fff"/>
        </g>
      </g>
      <g id="Grupo_637" data-name="Grupo 637">
        <path id="Caminho_687" data-name="Caminho 687" d="M1297.659,383.99l-.261-1.168V380.93c-.638-1.065-8.449-.97-8.449-.97s-7.81-.1-8.449.97v1.892l-.26,1.168-.576,2.456v9.632l.558,3.228v15.97l.157.157v4.094l.784.674h.283v2a1.7,1.7,0,0,1,1.029,1.384v1.49l1.242,1.49v1.727s.532,1.152,5.232,1.152,5.233-1.152,5.233-1.152v-1.727l1.242-1.49v-1.49a1.7,1.7,0,0,1,1.028-1.384v-2h.284l.783-.674v-4.094l.157-.157v-15.97l.559-3.228v-9.632Z" fill="#fff"/>
        <g id="Grupo_636" data-name="Grupo 636">
          <path id="Caminho_688" data-name="Caminho 688" d="M1288.95,426.563h-5.233v1.726s.532,1.153,5.233,1.153,5.232-1.153,5.232-1.153v-1.726Z" fill="#046"/>
          <path id="Caminho_689" data-name="Caminho 689" d="M1288.95,415.432h-8.57v4.095l.783.674h15.574l.783-.674v-4.095Z" fill="#046"/>
          <path id="Caminho_690" data-name="Caminho 690" d="M1288.95,396.078h-9.286l.559,3.228v10.82h17.454v-10.82l.559-3.228Z" fill="#046"/>
          <path id="Caminho_691" data-name="Caminho 691" d="M1297.659,383.99l-.26-1.168h-16.9l-.26,1.168-.576,2.457h18.571Z" fill="#046"/>
        </g>
      </g>
      <g id="Grupo_658" data-name="Grupo 658">
        <g id="Grupo_638" data-name="Grupo 638">
          <path id="Caminho_692" data-name="Caminho 692" d="M1377.965,352.789a.664.664,0,0,0-.662.663V373.2a.664.664,0,0,0,.662.663h13.577a.665.665,0,0,0,.663-.663V353.452a.665.665,0,0,0-.663-.663Z" fill="#fff"/>
        </g>
        <rect id="Retângulo_423" data-name="Retângulo 423" width="12.214" height="17.914" transform="translate(1378.647 354.369)" fill="#86d6f7"/>
        <circle id="Elipse_56" data-name="Elipse 56" cx="1.044" cy="1.044" r="1.044" transform="translate(1379.734 356.451)" fill="#f8f07a"/>
        <g id="Grupo_639" data-name="Grupo 639">
          <path id="Caminho_693" data-name="Caminho 693" d="M1378.645,369.65l4.011-6.948,4.011,6.948Z" fill="#45a350"/>
          <path id="Caminho_694" data-name="Caminho 694" d="M1380.206,369.65l5.315-9.206,5.315,9.206Z" fill="#57bb67"/>
          <rect id="Retângulo_424" data-name="Retângulo 424" width="12.214" height="2.652" transform="translate(1378.647 369.631)" fill="#fdc689"/>
        </g>
        <g id="Grupo_643" data-name="Grupo 643">
          <g id="Grupo_640" data-name="Grupo 640">
            <path id="Caminho_695" data-name="Caminho 695" d="M1387.971,355.4a.2.2,0,0,1-.2.2h-2.121a.2.2,0,0,1-.2-.2v-.221a.2.2,0,0,1,.2-.2h2.121a.2.2,0,0,1,.2.2Z" fill="#fff"/>
          </g>
          <g id="Grupo_641" data-name="Grupo 641">
            <path id="Caminho_696" data-name="Caminho 696" d="M1389.02,355.711a.2.2,0,0,1-.2.2h-2.12a.2.2,0,0,1-.2-.2v-.221a.2.2,0,0,1,.2-.2h2.12a.2.2,0,0,1,.2.2Z" fill="#fff"/>
          </g>
          <g id="Grupo_642" data-name="Grupo 642">
            <path id="Caminho_697" data-name="Caminho 697" d="M1389.737,355.247a.2.2,0,0,1-.2.2h-2.121a.2.2,0,0,1-.2-.2v-.22a.2.2,0,0,1,.2-.2h2.121a.2.2,0,0,1,.2.2Z" fill="#fff"/>
          </g>
        </g>
        <g id="Grupo_647" data-name="Grupo 647">
          <g id="Grupo_644" data-name="Grupo 644">
            <path id="Caminho_698" data-name="Caminho 698" d="M1381.99,358.04a.127.127,0,0,1-.126.126h-1.344a.127.127,0,0,1-.126-.126v-.14a.126.126,0,0,1,.126-.126h1.344a.127.127,0,0,1,.126.126Z" fill="#fff"/>
          </g>
          <g id="Grupo_645" data-name="Grupo 645">
            <path id="Caminho_699" data-name="Caminho 699" d="M1382.655,358.236a.127.127,0,0,1-.126.126h-1.344a.127.127,0,0,1-.126-.126v-.14a.126.126,0,0,1,.126-.126h1.344a.126.126,0,0,1,.126.126Z" fill="#fff"/>
          </g>
          <g id="Grupo_646" data-name="Grupo 646">
            <path id="Caminho_700" data-name="Caminho 700" d="M1383.11,357.942a.127.127,0,0,1-.126.126h-1.344a.127.127,0,0,1-.126-.126v-.14a.127.127,0,0,1,.126-.126h1.344a.127.127,0,0,1,.126.126Z" fill="#fff"/>
          </g>
        </g>
        <g id="Grupo_648" data-name="Grupo 648">
          <path id="Caminho_701" data-name="Caminho 701" d="M1380.585,370.286c0,.077-.089.14-.2.14h-1.11c-.109,0-.2-.063-.2-.14s.09-.141.2-.141h1.11C1380.5,370.145,1380.585,370.208,1380.585,370.286Z" fill="#dda46b"/>
        </g>
        <g id="Grupo_649" data-name="Grupo 649">
          <path id="Caminho_702" data-name="Caminho 702" d="M1381.713,370.934c0,.078-.09.141-.2.141h-1.11c-.109,0-.2-.063-.2-.141s.09-.14.2-.14h1.11C1381.623,370.794,1381.713,370.857,1381.713,370.934Z" fill="#dda46b"/>
        </g>
        <g id="Grupo_650" data-name="Grupo 650">
          <path id="Caminho_703" data-name="Caminho 703" d="M1382.656,371.627c0,.078-.089.141-.2.141h-1.11c-.109,0-.2-.063-.2-.141s.089-.14.2-.14h1.11C1382.567,371.487,1382.656,371.55,1382.656,371.627Z" fill="#dda46b"/>
        </g>
        <g id="Grupo_651" data-name="Grupo 651">
          <path id="Caminho_704" data-name="Caminho 704" d="M1383.848,370.264c0,.077-.089.14-.2.14h-1.11c-.109,0-.2-.063-.2-.14s.089-.141.2-.141h1.11C1383.759,370.123,1383.848,370.186,1383.848,370.264Z" fill="#dda46b"/>
        </g>
        <g id="Grupo_652" data-name="Grupo 652">
          <path id="Caminho_705" data-name="Caminho 705" d="M1384.976,370.912c0,.078-.089.141-.2.141h-1.11c-.109,0-.2-.063-.2-.141s.089-.141.2-.141h1.11C1384.887,370.771,1384.976,370.835,1384.976,370.912Z" fill="#dda46b"/>
        </g>
        <g id="Grupo_653" data-name="Grupo 653">
          <path id="Caminho_706" data-name="Caminho 706" d="M1385.919,371.605c0,.078-.089.141-.2.141h-1.109c-.11,0-.2-.063-.2-.141s.089-.14.2-.14h1.109C1385.83,371.465,1385.919,371.528,1385.919,371.605Z" fill="#dda46b"/>
        </g>
        <g id="Grupo_654" data-name="Grupo 654">
          <path id="Caminho_707" data-name="Caminho 707" d="M1386.673,370.242c0,.077-.089.14-.2.14h-1.11c-.109,0-.2-.063-.2-.14s.089-.141.2-.141h1.11C1386.584,370.1,1386.673,370.164,1386.673,370.242Z" fill="#dda46b"/>
        </g>
        <g id="Grupo_655" data-name="Grupo 655">
          <path id="Caminho_708" data-name="Caminho 708" d="M1387.8,370.89c0,.078-.089.141-.2.141h-1.11c-.109,0-.2-.063-.2-.141s.089-.14.2-.14h1.11C1387.712,370.749,1387.8,370.813,1387.8,370.89Z" fill="#dda46b"/>
        </g>
        <g id="Grupo_656" data-name="Grupo 656">
          <path id="Caminho_709" data-name="Caminho 709" d="M1388.744,371.583c0,.078-.089.141-.2.141h-1.109c-.11,0-.2-.063-.2-.141s.089-.14.2-.14h1.109C1388.655,371.443,1388.744,371.506,1388.744,371.583Z" fill="#dda46b"/>
        </g>
        <g id="Grupo_657" data-name="Grupo 657">
          <path id="Caminho_710" data-name="Caminho 710" d="M1390.252,370.219c0,.078-.09.141-.2.141h-1.11c-.109,0-.2-.063-.2-.141s.09-.14.2-.14h1.11C1390.162,370.079,1390.252,370.142,1390.252,370.219Z" fill="#dda46b"/>
        </g>
        <path id="Caminho_711" data-name="Caminho 711" d="M1390.86,370.727h-.789c-.109,0-.2.064-.2.141s.09.141.2.141h.789Z" fill="#dda46b"/>
      </g>
      <g id="Grupo_672" data-name="Grupo 672">
        <g id="Grupo_659" data-name="Grupo 659">
          <path id="Caminho_712" data-name="Caminho 712" d="M1384.619,359.114a.664.664,0,0,0-.662.663v19.747a.665.665,0,0,0,.662.663H1398.2a.666.666,0,0,0,.663-.663V359.777a.665.665,0,0,0-.663-.663Z" fill="#fff"/>
        </g>
        <rect id="Retângulo_425" data-name="Retângulo 425" width="12.214" height="17.914" transform="translate(1385.301 360.693)" fill="#e42028"/>
        <g id="Grupo_671" data-name="Grupo 671">
          <g id="Grupo_660" data-name="Grupo 660">
            <path id="Caminho_713" data-name="Caminho 713" d="M1395.932,372.646l-3.245-.616a8.25,8.25,0,0,0-2.558,0l-3.245.616a1.64,1.64,0,0,0-1.28,1.545v.423a9.168,9.168,0,0,0,11.608,0v-.427A1.642,1.642,0,0,0,1395.932,372.646Z" fill="#fff"/>
          </g>
          <path id="Caminho_714" data-name="Caminho 714" d="M1391.411,362.614h0a3.5,3.5,0,0,0-3.441,3.225,4.844,4.844,0,0,0,.239,2.069h6.4a4.826,4.826,0,0,0,.24-2.069A3.5,3.5,0,0,0,1391.411,362.614Z" fill="#231f20"/>
          <g id="Grupo_661" data-name="Grupo 661">
            <rect id="Retângulo_426" data-name="Retângulo 426" width="2.48" height="2.259" transform="translate(1390.17 370.365)" fill="#ffdea2"/>
          </g>
          <g id="Grupo_662" data-name="Grupo 662" opacity="0.1">
            <rect id="Retângulo_427" data-name="Retângulo 427" width="2.48" height="2.259" transform="translate(1390.17 370.365)" fill="#231f20"/>
          </g>
          <g id="Grupo_664" data-name="Grupo 664">
            <g id="Grupo_663" data-name="Grupo 663">
              <path id="Caminho_715" data-name="Caminho 715" d="M1394.311,368.568a.565.565,0,1,0,0-1.129h-.211v1.129Z" fill="#ffdea2"/>
              <path id="Caminho_716" data-name="Caminho 716" d="M1388.72,367.439h-.211a.565.565,0,1,0,0,1.129h.211Z" fill="#ffdea2"/>
            </g>
          </g>
          <g id="Grupo_666" data-name="Grupo 666" opacity="0.1">
            <g id="Grupo_665" data-name="Grupo 665">
              <path id="Caminho_717" data-name="Caminho 717" d="M1394.311,368.568a.565.565,0,1,0,0-1.129h-.211v1.129Z" fill="#231f20"/>
              <path id="Caminho_718" data-name="Caminho 718" d="M1388.72,367.439h-.211a.565.565,0,1,0,0,1.129h.211Z" fill="#231f20"/>
            </g>
          </g>
          <ellipse id="Elipse_57" data-name="Elipse 57" cx="2.887" cy="3.421" rx="2.887" ry="3.421" transform="translate(1388.523 364.098)" fill="#ffdea2"/>
          <g id="Grupo_667" data-name="Grupo 667">
            <path id="Caminho_719" data-name="Caminho 719" d="M1389.385,364.57a.114.114,0,0,0,0-.027Z" fill="#716558"/>
          </g>
          <rect id="Retângulo_428" data-name="Retângulo 428" width="0.001" height="0.844" transform="translate(1393.083 372.099) rotate(-79.251)" fill="#9a8379"/>
          <path id="Caminho_720" data-name="Caminho 720" d="M1392.672,372.106h-2.535l.98,1.165-.115,3.407c.135.005.272.009.409.009s.271,0,.406-.009l-.115-3.419Z" fill="#45aadf"/>
          <g id="Grupo_668" data-name="Grupo 668">
            <path id="Caminho_721" data-name="Caminho 721" d="M1394.166,366.492a2.991,2.991,0,0,0-2.755-2.394c-.036,0-.071,0-.107,0A3.287,3.287,0,0,1,1394.166,366.492Z" fill="#ffdea2"/>
            <path id="Caminho_722" data-name="Caminho 722" d="M1389.347,365.128a3.755,3.755,0,0,0-.823,2.391,2.929,2.929,0,1,0,5.774,0c0-.031,0-.062,0-.093A9.942,9.942,0,0,1,1389.347,365.128Z" fill="#ffdea2"/>
            <path id="Caminho_723" data-name="Caminho 723" d="M1394.166,366.492a3.287,3.287,0,0,0-2.862-2.391,2.7,2.7,0,0,0-1.958,1.027,9.952,9.952,0,0,0,4.95,2.3A4.006,4.006,0,0,0,1394.166,366.492Z" fill="#231f20" opacity="0.1" style="isolation: isolate"/>
          </g>
          <g id="Grupo_669" data-name="Grupo 669">
            <path id="Caminho_724" data-name="Caminho 724" d="M1391.354,363.933a2.9,2.9,0,0,0-2.029.858,9.88,9.88,0,0,0,5.209,2.48A3.453,3.453,0,0,0,1391.354,363.933Z" fill="#231f20"/>
          </g>
          <g id="Grupo_670" data-name="Grupo 670">
            <path id="Caminho_725" data-name="Caminho 725" d="M1390.17,371.116l1.24.987-.838,1.261-.838-1.261Z" fill="#d1d3d4"/>
            <path id="Caminho_726" data-name="Caminho 726" d="M1392.65,371.116l-1.24.987.838,1.261.838-1.261Z" fill="#d1d3d4"/>
          </g>
        </g>
      </g>
      <g id="Grupo_685" data-name="Grupo 685">
        <path id="Caminho_727" data-name="Caminho 727" d="M1406.183,415.723a1.651,1.651,0,0,1-1.647,1.646h-18.5a1.652,1.652,0,0,1-1.647-1.646V387.161a1.652,1.652,0,0,1,1.647-1.646h18.5a1.651,1.651,0,0,1,1.647,1.646v28.562Z" fill="#0f142b"/>
        <rect id="Retângulo_429" data-name="Retângulo 429" width="17.78" height="28.097" transform="translate(1386.396 387.394)" fill="#fff"/>
        <g id="Grupo_684" data-name="Grupo 684">
          <g id="Grupo_683" data-name="Grupo 683">
            <g id="Grupo_673" data-name="Grupo 673">
              <path id="Caminho_728" data-name="Caminho 728" d="M1400.818,405.106l-3.968-.754a10.073,10.073,0,0,0-3.129,0l-3.968.754a2,2,0,0,0-1.564,1.889v.516a11.207,11.207,0,0,0,14.193.006v-.522A2,2,0,0,0,1400.818,405.106Z" fill="#009fb9"/>
            </g>
            <path id="Caminho_729" data-name="Caminho 729" d="M1395.289,392.838h0a4.275,4.275,0,0,0-4.207,3.943,5.924,5.924,0,0,0,.292,2.53h7.83a5.906,5.906,0,0,0,.293-2.53A4.276,4.276,0,0,0,1395.289,392.838Z" fill="#231f20"/>
            <g id="Grupo_674" data-name="Grupo 674">
              <rect id="Retângulo_430" data-name="Retângulo 430" width="3.032" height="2.763" transform="translate(1393.772 402.316)" fill="#ffdea2"/>
            </g>
            <g id="Grupo_675" data-name="Grupo 675" opacity="0.1">
              <rect id="Retângulo_431" data-name="Retângulo 431" width="3.032" height="2.763" transform="translate(1393.772 402.316)" fill="#231f20"/>
            </g>
            <g id="Grupo_677" data-name="Grupo 677">
              <g id="Grupo_676" data-name="Grupo 676">
                <path id="Caminho_730" data-name="Caminho 730" d="M1398.835,400.118a.69.69,0,1,0,0-1.38h-.257v1.38Z" fill="#ffdea2"/>
                <path id="Caminho_731" data-name="Caminho 731" d="M1392,398.738h-.258a.69.69,0,1,0,0,1.38H1392Z" fill="#ffdea2"/>
              </g>
            </g>
            <g id="Grupo_679" data-name="Grupo 679" opacity="0.1">
              <g id="Grupo_678" data-name="Grupo 678">
                <path id="Caminho_732" data-name="Caminho 732" d="M1398.835,400.118a.69.69,0,1,0,0-1.38h-.257v1.38Z" fill="#231f20"/>
                <path id="Caminho_733" data-name="Caminho 733" d="M1392,398.738h-.258a.69.69,0,1,0,0,1.38H1392Z" fill="#231f20"/>
              </g>
            </g>
            <ellipse id="Elipse_58" data-name="Elipse 58" cx="3.531" cy="4.184" rx="3.531" ry="4.184" transform="translate(1391.759 394.652)" fill="#ffdea2"/>
            <g id="Grupo_680" data-name="Grupo 680">
              <path id="Caminho_734" data-name="Caminho 734" d="M1392.812,395.23a.169.169,0,0,0,0-.033Z" fill="#716558"/>
            </g>
            <rect id="Retângulo_432" data-name="Retângulo 432" width="0.001" height="1.032" transform="translate(1397.334 404.443) rotate(-79.245)" fill="#9a8379"/>
            <path id="Caminho_735" data-name="Caminho 735" d="M1396.832,404.444h-3.1l1.2,1.426-.141,4.165c.166.007.333.012.5.012s.332-.005.5-.012l-.14-4.18Z" fill="#f1f1f1"/>
            <g id="Grupo_681" data-name="Grupo 681">
              <path id="Caminho_736" data-name="Caminho 736" d="M1398.658,397.581a3.657,3.657,0,0,0-3.369-2.929c-.043,0-.086,0-.13,0A4.02,4.02,0,0,1,1398.658,397.581Z" fill="#ffdea2"/>
              <path id="Caminho_737" data-name="Caminho 737" d="M1392.765,395.912a4.6,4.6,0,0,0-1.006,2.924c0,2.31,1.58,4.184,3.53,4.184s3.531-1.874,3.531-4.184c0-.038,0-.076,0-.114A12.162,12.162,0,0,1,1392.765,395.912Z" fill="#ffdea2"/>
            </g>
            <g id="Grupo_682" data-name="Grupo 682">
              <path id="Caminho_738" data-name="Caminho 738" d="M1393.772,403.234l1.516,1.207-1.025,1.542-1.025-1.542Z" fill="#008f9e"/>
              <path id="Caminho_739" data-name="Caminho 739" d="M1396.8,403.234l-1.516,1.207,1.025,1.542,1.025-1.542Z" fill="#008f9e"/>
            </g>
          </g>
        </g>
        <path id="Caminho_740" data-name="Caminho 740" d="M1391.522,397.784a5.094,5.094,0,0,0,2.369-1.872s1.1,1.79,4.225,1.968a4.343,4.343,0,0,1-1.207-.919,4.643,4.643,0,0,0,2.053.924l-1.532-3.517-2.8-.246-1.756.37-.246.988Z" fill="#231f20"/>
      </g>
      <g id="Grupo_687" data-name="Grupo 687">
        <g id="Grupo_686" data-name="Grupo 686">
          <path id="Caminho_741" data-name="Caminho 741" d="M1317.812,458.448v.521h17.9v-.521h-1.368V457.08h1.368V445.418h-1.368v-1.369h1.368v-.431h-17.9v.431h1.368v1.369h-1.368V457.08h1.368v1.368Zm13.774-14.4h1.368v1.369h-1.368Zm0,13.031h1.368v1.368h-1.368Zm-2.755-13.031h1.369v1.369h-1.369Zm0,13.031h1.369v1.368h-1.369Zm-2.754-13.031h1.368v1.369h-1.368Zm0,13.031h1.368v1.368h-1.368Zm-2.755-13.031h1.368v1.369h-1.368Zm0,13.031h1.368v1.368h-1.368Zm-2.755-13.031h1.368v1.369h-1.368Zm0,13.031h1.368v1.368h-1.368Z" fill="#0f142b"/>
          <rect id="Retângulo_433" data-name="Retângulo 433" width="14.19" height="9.442" transform="translate(1319.703 446.573)" fill="#fff"/>
          <path id="Caminho_742" data-name="Caminho 742" d="M1319.7,456.014v-9.442h14.19Z" opacity="0.1" style="isolation: isolate"/>
        </g>
        <rect id="Retângulo_434" data-name="Retângulo 434" width="14.292" height="15.351" transform="translate(1303.52 443.618)" fill="#003144"/>
        <rect id="Retângulo_435" data-name="Retângulo 435" width="7.146" height="8.696" transform="translate(1310.666 447.43)" fill="#fff"/>
        <path id="Caminho_743" data-name="Caminho 743" d="M1317.644,440.062h-15.568v3.556h17.181v-3.556Z" fill="#046"/>
        <path id="Caminho_744" data-name="Caminho 744" d="M1303.52,458.969h-1.613v3.556h17.518v-3.556Z" fill="#046"/>
        <rect id="Retângulo_436" data-name="Retângulo 436" width="7.007" height="2.944" transform="translate(1307.163 437.118)" fill="#003144"/>
      </g>
      <g id="Grupo_692" data-name="Grupo 692">
        <path id="Caminho_745" data-name="Caminho 745" d="M1379.7,429.994a2.534,2.534,0,0,1-2.527,2.527H1309.44a2.534,2.534,0,0,1-2.527-2.527V380.633a2.534,2.534,0,0,1,2.527-2.527h67.733a2.534,2.534,0,0,1,2.527,2.527Z" fill="#0f142b"/>
        <rect id="Retângulo_437" data-name="Retângulo 437" width="64.907" height="42.43" transform="translate(1310.853 381.657)" fill="#fff"/>
        <path id="Caminho_746" data-name="Caminho 746" d="M1384.572,427.555h-32.725v1.1h-17.081v-1.1h-34.459v3.231a1.739,1.739,0,0,0,1.734,1.734h82.531a1.739,1.739,0,0,0,1.734-1.734v-3.231Z" fill="#f58120"/>
        <g id="Grupo_691" data-name="Grupo 691">
          <g id="Grupo_690" data-name="Grupo 690">
            <rect id="Retângulo_438" data-name="Retângulo 438" width="1.792" height="3.364" transform="translate(1347.254 408.766) rotate(-45)" fill="#282928"/>
            <path id="Caminho_747" data-name="Caminho 747" d="M1356.961,415.421a.631.631,0,0,1,0,.892l-.891.891a.631.631,0,0,1-.892,0l-5.593-5.593a.631.631,0,0,1,0-.892l.891-.892a.633.633,0,0,1,.892,0Z" fill="#3b3c3b"/>
            <g id="Grupo_688" data-name="Grupo 688">
              <path id="Caminho_748" data-name="Caminho 748" d="M1338.148,398.391a7.041,7.041,0,1,0,9.958,0A7.043,7.043,0,0,0,1338.148,398.391Zm8.917,8.917a5.569,5.569,0,1,1,0-7.876A5.569,5.569,0,0,1,1347.065,407.308Z" fill="#3b3c3b"/>
            </g>
            <g id="Grupo_689" data-name="Grupo 689">
              <rect id="Retângulo_439" data-name="Retângulo 439" width="1.597" height="5.807" transform="translate(1342.378 400.569)" fill="#fcb929"/>
              <rect id="Retângulo_440" data-name="Retângulo 440" width="5.807" height="1.597" transform="translate(1340.273 402.674)" fill="#fcb929"/>
            </g>
            <rect id="Retângulo_441" data-name="Retângulo 441" width="2.522" height="1.137" transform="translate(1349.137 411.165) rotate(-45)" fill="#fcb929"/>
          </g>
          <path id="Caminho_749" data-name="Caminho 749" d="M1351.368,409.827l-.446-.446-.446.446-.446.446.8.8,5.682,5.682.445-.446a.631.631,0,0,0,0-.892l-5.593-5.594Z" opacity="0.1" style="isolation: isolate"/>
        </g>
        <path id="Caminho_750" data-name="Caminho 750" d="M1375.76,381.657v42.43h-64.907Z" opacity="0.1" style="isolation: isolate"/>
      </g>
      <g id="Grupo_693" data-name="Grupo 693">
        <rect id="Retângulo_442" data-name="Retângulo 442" width="0.549" height="17.563" transform="translate(1392.86 447.226)" fill="#19203a"/>
        <rect id="Retângulo_443" data-name="Retângulo 443" width="0.548" height="17.562" transform="matrix(0.976, -0.217, 0.217, 0.976, 1399.818, 444.13)" fill="#19203a"/>
        <rect id="Retângulo_444" data-name="Retângulo 444" width="17.562" height="0.548" transform="matrix(0.217, -0.976, 0.976, 0.217, 1382.001, 461.167)" fill="#19203a"/>
        <rect id="Retângulo_445" data-name="Retângulo 445" width="1.34" height="4.937" transform="translate(1392.424 418.931)" fill="#19203a"/>
        <path id="Caminho_751" data-name="Caminho 751" d="M1393.751,447.607a.488.488,0,0,1-.474.5h-.285a.488.488,0,0,1-.475-.5V425.271a.487.487,0,0,1,.475-.5h.285a.487.487,0,0,1,.474.5Z" fill="#0f142b"/>
        <path id="Caminho_752" data-name="Caminho 752" d="M1388.136,434.963a.476.476,0,0,1-.475-.474V434.2a.476.476,0,0,1,.475-.475h9.917a.477.477,0,0,1,.475.475v.285a.476.476,0,0,1-.475.474Z" fill="#0f142b"/>
        <path id="Caminho_753" data-name="Caminho 753" d="M1397.308,434.369a.476.476,0,0,1,.361-.566l.278-.062a.475.475,0,0,1,.566.36l2.151,9.681a.475.475,0,0,1-.36.566l-.278.062a.475.475,0,0,1-.566-.36Z" fill="#0f142b"/>
        <rect id="Retângulo_446" data-name="Retângulo 446" width="1.764" height="0.974" transform="translate(1392.252 464.789)" fill="#0f142b"/>
        <rect id="Retângulo_447" data-name="Retângulo 447" width="1.764" height="0.974" transform="translate(1402.921 460.79)" fill="#0f142b"/>
        <path id="Caminho_754" data-name="Caminho 754" d="M1388.865,434.369a.476.476,0,0,0-.361-.566l-.278-.062a.475.475,0,0,0-.566.36l-2.152,9.681a.476.476,0,0,0,.361.566l.278.062a.475.475,0,0,0,.566-.36Z" fill="#0f142b"/>
        <rect id="Retângulo_448" data-name="Retângulo 448" width="1.764" height="0.974" transform="translate(1381.488 460.79)" fill="#0f142b"/>
        <rect id="Retângulo_449" data-name="Retângulo 449" width="3.228" height="3.291" transform="translate(1391.48 423.868)" fill="#0f142b"/>
        <rect id="Retângulo_450" data-name="Retângulo 450" width="5.127" height="1.013" transform="translate(1390.589 418.931)" fill="#0f142b"/>
        <rect id="Retângulo_451" data-name="Retângulo 451" width="0.364" height="3.386" transform="translate(1395.715 418.931)" fill="#0f142b"/>
        <rect id="Retângulo_452" data-name="Retângulo 452" width="1.582" height="0.364" transform="translate(1395.715 421.953)" fill="#0f142b"/>
        <circle id="Elipse_59" data-name="Elipse 59" cx="0.534" cy="0.534" r="0.534" transform="translate(1396.506 421.601)" fill="#0f142b"/>
      </g>
    </g>
  </g>
</svg>
