<svg xmlns="http://www.w3.org/2000/svg" width="131.872" height="131.872" viewBox="0 0 131.872 131.872">
  <g id="marketing-digital-icon" transform="translate(-524.478 -362.405)">
    <circle id="Background" cx="65.936" cy="65.936" r="65.936" transform="translate(524.478 362.405)" fill="#a868f2"/>
    <g id="Marketing_Target" data-name="Marketing Target">
      <g id="Grupo_560" data-name="Grupo 560">
        <g id="Grupo_558" data-name="Grupo 558">
          <path id="Caminho_591" data-name="Caminho 591" d="M557.585,392.38a4.816,4.816,0,0,0-3.373-1.662H529.239c-1.153,0-2.1.608-2.1,1.351v28.6a2.1,2.1,0,0,0,2.1,2.1h33.108a2.1,2.1,0,0,0,2.1-2.1V403.4a7.226,7.226,0,0,0-1.277-3.759Z" fill="#204863"/>
        </g>
        <rect id="Retângulo_294" data-name="Retângulo 294" width="86.783" height="62.018" transform="translate(528.988 398.339)" fill="#a7a9ac"/>
        <rect id="Retângulo_295" data-name="Retângulo 295" width="86.783" height="62.018" transform="translate(529.617 399.108)" fill="#d1d3d4"/>
        <rect id="Retângulo_296" data-name="Retângulo 296" width="86.783" height="62.018" transform="translate(530.56 399.946)" fill="#fff"/>
        <g id="Grupo_559" data-name="Grupo 559">
          <path id="Caminho_592" data-name="Caminho 592" d="M566.539,394.913a4.819,4.819,0,0,0-3.373,1.662l-5.581,7.266a4.817,4.817,0,0,1-3.373,1.663H529.239a2.1,2.1,0,0,0-2.1,2.1v61.934a2.1,2.1,0,0,0,2.1,2.1h93.9a2.1,2.1,0,0,0,2.1-2.1V397.009a2.1,2.1,0,0,0-2.1-2.1Z" fill="#2d5779"/>
        </g>
      </g>
      <g id="Grupo_561" data-name="Grupo 561">
        <circle id="Elipse_22" data-name="Elipse 22" cx="43.383" cy="43.383" r="43.383" transform="translate(550.62 384.958)" fill="#fc7256"/>
        <circle id="Elipse_23" data-name="Elipse 23" cx="37.759" cy="37.759" r="37.759" transform="translate(556.244 390.582)" fill="#fff"/>
        <circle id="Elipse_24" data-name="Elipse 24" cx="31.064" cy="31.064" r="31.064" transform="translate(562.939 397.277)" fill="#fc7256"/>
        <circle id="Elipse_25" data-name="Elipse 25" cx="25.311" cy="25.311" r="25.311" transform="translate(568.693 403.031)" fill="#fff"/>
        <circle id="Elipse_26" data-name="Elipse 26" cx="17.812" cy="17.812" r="17.812" transform="translate(576.191 410.529)" fill="#fc7256"/>
        <circle id="Elipse_27" data-name="Elipse 27" cx="10.264" cy="10.264" r="10.264" transform="translate(583.739 418.077)" fill="#fff"/>
        <path id="Caminho_593" data-name="Caminho 593" d="M624.245,459.444,594.4,429.6l1.988-1.988L626.2,457.421Z" fill="#231f20" opacity="0.1" style="isolation: isolate"/>
        <path id="Caminho_594" data-name="Caminho 594" d="M638.28,422.271h15.4l-3.571,4.665h-15.4Z" fill="#036587"/>
        <path id="Caminho_595" data-name="Caminho 595" d="M638.286,434.412h15.4l-3.571-4.664h-15.4Z" fill="#036587"/>
        <rect id="Retângulo_297" data-name="Retângulo 297" width="55.705" height="2.812" transform="translate(594.404 426.935)" fill="#077eb3"/>
      </g>
      <g id="Grupo_564" data-name="Grupo 564">
        <g id="Grupo_563" data-name="Grupo 563">
          <circle id="Elipse_28" data-name="Elipse 28" cx="18.496" cy="18.496" r="18.496" transform="translate(532.125 428.071)" fill="#fff"/>
          <g id="Grupo_562" data-name="Grupo 562">
            <path id="Caminho_596" data-name="Caminho 596" d="M568.611,442.263l-.3-.112h-1.453l-1.072-.865-2.249,1.661-1.868-1.661-3.183.588-2.04.242-.346,3.84.83,3.667h3.39l1.885-.277.813,1.488.865,1.729-1.522,1.28,1.28,2.906-.208,1.142,1.129.831a18.516,18.516,0,0,0,4.051-16.459Z" fill="#6dbe45"/>
            <path id="Caminho_597" data-name="Caminho 597" d="M534.569,444.838l1.2.276,1.2.784,1.614.508.83.208.784.345-.415.831-1.291,2.075,1.429,1.707,2.03,1.291v1.153l1.337,2.03a6.824,6.824,0,0,0,0,1.706c.139.415.923,2.583.923,2.583l.784,1.015,1.891.231-1.2-1.938s1.753-2.675,1.891-2.767-.553-1.153-.415-1.292,1.245-1.337,1.245-1.337l1.2-1.523.507-1.983-1.522-2.4a14.437,14.437,0,0,1-1.706-1.338,11.422,11.422,0,0,0-1.108-1.338l-3.09-.092-1.753-.553-.645,1.153-1.476-.738.046-1.219h-1.153l-.646-.995.968-.739,1.984,1.015,1.245-.784,1.338-3.136,1.2-1.522h2.168l.322-.739,1.43-.691.6.4.645-.952-1.245-1.752-.969-.323-.356.336-1.165,1.094-2.721-.646-.369,1.292-1.2-1.522L542.5,434l1.752.462.692-.692,2.214-.323-1.8-1.891h-2.076l-.83,1.337-.831-1.061-2.007-.132a18.485,18.485,0,0,0-7.311,12.266l1.477.254Z" fill="#6dbe45"/>
            <path id="Caminho_598" data-name="Caminho 598" d="M561.759,435.105v.831l-2.444.691.23,1.753-1.383-.847-1.338,1.078.876,1.292,1.338.184,2.26-1.8.646.831s-.415.968,0,1.291a11.428,11.428,0,0,0,2.159.831v-1.569l-1.191-1.061.785-.645,1.429,1.2-.461.83,2.675,1.246s.294-.34.721-.841a18.544,18.544,0,0,0-7.186-9.226l-.776,2.917Z" fill="#6dbe45"/>
          </g>
        </g>
      </g>
      <g id="Grupo_574" data-name="Grupo 574">
        <g id="Grupo_565" data-name="Grupo 565">
          <rect id="Retângulo_298" data-name="Retângulo 298" width="20.826" height="2.136" transform="translate(614.019 468.045)" fill="#eab763"/>
          <rect id="Retângulo_299" data-name="Retângulo 299" width="19.764" height="0.297" transform="translate(614.551 467.748)" fill="#ffe078"/>
          <rect id="Retângulo_300" data-name="Retângulo 300" width="19.764" height="0.296" transform="translate(614.551 470.181)" fill="#ffe078"/>
        </g>
        <g id="Grupo_566" data-name="Grupo 566">
          <rect id="Retângulo_301" data-name="Retângulo 301" width="20.826" height="2.136" transform="translate(614.019 465.315)" fill="#eab763"/>
          <rect id="Retângulo_302" data-name="Retângulo 302" width="19.764" height="0.297" transform="translate(614.551 465.018)" fill="#ffe078"/>
          <rect id="Retângulo_303" data-name="Retângulo 303" width="19.764" height="0.296" transform="translate(614.551 467.452)" fill="#ffe078"/>
        </g>
        <g id="Grupo_567" data-name="Grupo 567">
          <rect id="Retângulo_304" data-name="Retângulo 304" width="20.826" height="2.136" transform="translate(614.019 462.586)" fill="#eab763"/>
          <rect id="Retângulo_305" data-name="Retângulo 305" width="19.764" height="0.297" transform="translate(614.551 462.289)" fill="#ffe078"/>
          <rect id="Retângulo_306" data-name="Retângulo 306" width="19.764" height="0.296" transform="translate(614.551 464.722)" fill="#ffe078"/>
        </g>
        <g id="Grupo_568" data-name="Grupo 568">
          <rect id="Retângulo_307" data-name="Retângulo 307" width="20.826" height="2.136" transform="translate(614.019 459.856)" fill="#eab763"/>
          <rect id="Retângulo_308" data-name="Retângulo 308" width="19.764" height="0.297" transform="translate(614.551 459.559)" fill="#ffe078"/>
          <rect id="Retângulo_309" data-name="Retângulo 309" width="19.764" height="0.296" transform="translate(614.551 461.992)" fill="#ffe078"/>
        </g>
        <g id="Grupo_569" data-name="Grupo 569">
          <rect id="Retângulo_310" data-name="Retângulo 310" width="20.826" height="2.136" transform="translate(614.009 457.118)" fill="#eab763"/>
          <rect id="Retângulo_311" data-name="Retângulo 311" width="19.764" height="0.297" transform="translate(614.54 456.821)" fill="#ffe078"/>
          <rect id="Retângulo_312" data-name="Retângulo 312" width="19.764" height="0.296" transform="translate(614.54 459.255)" fill="#ffe078"/>
        </g>
        <g id="Grupo_570" data-name="Grupo 570">
          <rect id="Retângulo_313" data-name="Retângulo 313" width="20.826" height="2.136" transform="translate(614.009 454.389)" fill="#eab763"/>
          <rect id="Retângulo_314" data-name="Retângulo 314" width="19.764" height="0.297" transform="translate(614.54 454.092)" fill="#ffe078"/>
          <rect id="Retângulo_315" data-name="Retângulo 315" width="19.764" height="0.296" transform="translate(614.54 456.525)" fill="#ffe078"/>
        </g>
        <g id="Grupo_571" data-name="Grupo 571">
          <rect id="Retângulo_316" data-name="Retângulo 316" width="20.826" height="2.136" transform="translate(614.009 451.659)" fill="#eab763"/>
          <rect id="Retângulo_317" data-name="Retângulo 317" width="19.764" height="0.297" transform="translate(614.54 451.362)" fill="#ffe078"/>
          <rect id="Retângulo_318" data-name="Retângulo 318" width="19.764" height="0.296" transform="translate(614.54 453.796)" fill="#ffe078"/>
        </g>
        <g id="Grupo_572" data-name="Grupo 572">
          <rect id="Retângulo_319" data-name="Retângulo 319" width="20.826" height="2.136" transform="translate(614.009 448.93)" fill="#eab763"/>
          <rect id="Retângulo_320" data-name="Retângulo 320" width="19.764" height="0.296" transform="translate(614.54 448.633)" fill="#ffe078"/>
          <rect id="Retângulo_321" data-name="Retângulo 321" width="19.764" height="0.296" transform="translate(614.54 451.066)" fill="#ffe078"/>
        </g>
        <g id="Grupo_573" data-name="Grupo 573">
          <rect id="Retângulo_322" data-name="Retângulo 322" width="20.826" height="2.137" transform="matrix(0.611, -0.792, 0.792, 0.611, 600.137, 469.872)" fill="#eab763"/>
          <rect id="Retângulo_323" data-name="Retângulo 323" width="19.764" height="0.297" transform="matrix(0.611, -0.792, 0.792, 0.611, 600.225, 469.286)" fill="#ffe078"/>
          <rect id="Retângulo_324" data-name="Retângulo 324" width="19.764" height="0.297" transform="matrix(0.611, -0.792, 0.792, 0.611, 602.151, 470.772)" fill="#ffe078"/>
        </g>
      </g>
      <g id="Grupo_577" data-name="Grupo 577">
        <g id="Grupo_575" data-name="Grupo 575">
          <path id="Caminho_599" data-name="Caminho 599" d="M640.872,410.646l7.433,7.75v-7.75Z" fill="#e6e7e8"/>
          <path id="Caminho_600" data-name="Caminho 600" d="M638.531,394.311a19.047,19.047,0,0,0-4.3.485c-5.646,1.308-9.731,5.12-9.731,9.62a7.427,7.427,0,0,0,.293,2.064c1.324,4.591,6.973,8.041,13.742,8.041,7.751,0,14.035-4.524,14.035-10.105S646.282,394.311,638.531,394.311Z" fill="#fff"/>
        </g>
        <g id="Grupo_576" data-name="Grupo 576">
          <path id="Caminho_601" data-name="Caminho 601" d="M623.569,414.18l-4.785,4.989V414.18Z" fill="#d8b509"/>
          <path id="Caminho_602" data-name="Caminho 602" d="M625.076,403.665a12.311,12.311,0,0,1,2.771.312c3.634.843,6.263,3.3,6.263,6.193a4.8,4.8,0,0,1-.188,1.328c-.852,2.955-4.489,5.176-8.846,5.176-4.989,0-9.034-2.912-9.034-6.5S620.087,403.665,625.076,403.665Z" fill="#fedd18"/>
        </g>
      </g>
      <g id="Grupo_581" data-name="Grupo 581">
        <path id="Caminho_603" data-name="Caminho 603" d="M564.027,457.255H543.854v11.7a.867.867,0,0,0,.163.511.792.792,0,0,0,.1.113.625.625,0,0,0,.416.165h27.125a.744.744,0,0,0,.682-.789v-11.7Z" fill="#58cbf5"/>
        <path id="Caminho_604" data-name="Caminho 604" d="M572.164,452.367a.72.72,0,0,0-.089-.094.614.614,0,0,0-.414-.166H544.536a.744.744,0,0,0-.682.789v4.359h28.489V452.9A.852.852,0,0,0,572.164,452.367Z" fill="#7cd9f2"/>
        <g id="Grupo_578" data-name="Grupo 578">
          <path id="Caminho_605" data-name="Caminho 605" d="M549.3,465.406a.791.791,0,0,1-.789.789h-2.368a.791.791,0,0,1-.789-.789v-.846a.791.791,0,0,1,.789-.789h2.368a.791.791,0,0,1,.789.789Z" fill="#fbb040"/>
        </g>
        <g id="Grupo_579" data-name="Grupo 579">
          <path id="Caminho_606" data-name="Caminho 606" d="M545.353,455.907v-2.366h.534a.683.683,0,0,1,.381.111.514.514,0,0,1,.207.292.822.822,0,0,1,.034.252.558.558,0,0,1-.126.381.362.362,0,0,1-.125.092.412.412,0,0,1,.2.18.668.668,0,0,1,.081.234.906.906,0,0,1,.014.164.8.8,0,0,1-.085.381.51.51,0,0,1-.187.2.52.52,0,0,1-.27.083Zm.385-1.4h.149a.218.218,0,0,0,.222-.162.462.462,0,0,0,.021-.149.31.31,0,0,0-.072-.223.224.224,0,0,0-.172-.07h-.149v.6Zm0,1.047h.149a.254.254,0,0,0,.251-.187.416.416,0,0,0,.024-.147.447.447,0,0,0-.075-.288.241.241,0,0,0-.2-.083h-.149v.7Z" fill="#fff"/>
          <path id="Caminho_607" data-name="Caminho 607" d="M547.258,455.364l-.087.543H546.8l.4-2.365h.49l.4,2.365h-.375l-.084-.543Zm.187-1.28-.132.932h.265Z" fill="#fff"/>
          <path id="Caminho_608" data-name="Caminho 608" d="M548.789,453.541l.474,1.59v-1.59h.356v2.366h-.383l-.49-1.515v1.515h-.357v-2.366Z" fill="#fff"/>
          <path id="Caminho_609" data-name="Caminho 609" d="M550.295,455.157v.75h-.357v-2.366h.357v.843l.436-.843h.38l-.488.965.572,1.4h-.419l-.375-.961Z" fill="#fff"/>
        </g>
        <g id="Grupo_580" data-name="Grupo 580">
          <path id="Caminho_610" data-name="Caminho 610" d="M560.979,467.294a.287.287,0,0,1,.289.288v.657a.275.275,0,0,1-.085.2.278.278,0,0,1-.2.084.274.274,0,0,1-.2-.084.281.281,0,0,1-.084-.2v-.657a.288.288,0,0,1,.287-.288Zm.1.284a.1.1,0,0,0-.03-.073.1.1,0,0,0-.073-.031.1.1,0,0,0-.074.031.1.1,0,0,0-.031.073v.659a.1.1,0,0,0,.031.074.1.1,0,0,0,.074.03.1.1,0,0,0,.073-.03.1.1,0,0,0,.03-.074Z" fill="#fff"/>
          <path id="Caminho_611" data-name="Caminho 611" d="M561.939,467.307v.183l-.255,1.022h-.178l.254-1.022h-.367v-.183Z" fill="#fff"/>
          <path id="Caminho_612" data-name="Caminho 612" d="M562.639,468.238a.287.287,0,0,1-.287.287.278.278,0,0,1-.2-.084.273.273,0,0,1-.085-.2v-.657a.289.289,0,0,1,.289-.288.274.274,0,0,1,.2.084.281.281,0,0,1,.084.2Zm-.188-.661a.1.1,0,0,0-.031-.074.1.1,0,0,0-.074-.031.1.1,0,0,0-.074.031.1.1,0,0,0-.03.074v.658a.1.1,0,0,0,.03.074.1.1,0,0,0,.148,0,.1.1,0,0,0,.031-.074Z" fill="#fff"/>
          <path id="Caminho_613" data-name="Caminho 613" d="M563.371,468.238a.287.287,0,0,1-.287.287.28.28,0,0,1-.2-.084.275.275,0,0,1-.084-.2v-.657a.289.289,0,0,1,.289-.288.274.274,0,0,1,.2.084.281.281,0,0,1,.084.2Zm-.188-.661a.1.1,0,0,0-.031-.074.1.1,0,0,0-.074-.031.106.106,0,0,0-.1.105v.658a.1.1,0,0,0,.031.074.1.1,0,0,0,.073.031.106.106,0,0,0,.1-.105Z" fill="#fff"/>
          <path id="Caminho_614" data-name="Caminho 614" d="M563.722,467.49v.258a.178.178,0,0,1,.076-.06.16.16,0,0,1,.061-.01.2.2,0,0,1,.176.083.358.358,0,0,1,.049.2v.26a.3.3,0,0,1-.084.219.274.274,0,0,1-.2.082.258.258,0,0,1-.2-.086.285.285,0,0,1-.076-.2v-.029l.174-.013,0,.041a.107.107,0,0,0,.058.1.08.08,0,0,0,.033.008c.074,0,.112-.039.112-.117v-.3a.111.111,0,0,0-.039-.087.073.073,0,0,0-.051-.016.079.079,0,0,0-.072.037.133.133,0,0,0-.019.069v.033h-.182v-.658h.532v.182h-.35Z" fill="#fff"/>
          <path id="Caminho_615" data-name="Caminho 615" d="M564.209,467.82h.538V468h-.538Z" fill="#fff"/>
          <path id="Caminho_616" data-name="Caminho 616" d="M565.027,468.513v-.927h-.155v-.127a.276.276,0,0,0,.124-.05.239.239,0,0,0,.085-.1h.127v1.2Z" fill="#fff"/>
          <path id="Caminho_617" data-name="Caminho 617" d="M565.36,467.648a.35.35,0,0,1,.092-.261.284.284,0,0,1,.21-.08.271.271,0,0,1,.2.089.3.3,0,0,1,.084.209.534.534,0,0,1-.055.237,1.757,1.757,0,0,1-.139.219c-.02.028-.049.071-.089.131l-.032.049c-.021.032-.037.057-.048.076l-.008.017h.357v.178h-.578v-.167a.365.365,0,0,1,.04-.066l.041-.061.048-.069.129-.181a1.229,1.229,0,0,0,.126-.212.377.377,0,0,0,.033-.145.144.144,0,0,0-.03-.093.11.11,0,0,0-.087-.041.113.113,0,0,0-.108.088.2.2,0,0,0-.01.069v.046h-.179v-.032Z" fill="#fff"/>
          <path id="Caminho_618" data-name="Caminho 618" d="M566.077,467.648a.35.35,0,0,1,.092-.261.284.284,0,0,1,.21-.08.271.271,0,0,1,.2.089.3.3,0,0,1,.084.209.535.535,0,0,1-.055.237,1.768,1.768,0,0,1-.139.219c-.02.028-.05.071-.089.131l-.032.049a.824.824,0,0,0-.048.076l-.008.017h.356v.178h-.577v-.167a.364.364,0,0,1,.04-.066l.041-.061.047-.069c.028-.037.071-.1.13-.181a1.154,1.154,0,0,0,.125-.212.362.362,0,0,0,.034-.145.139.139,0,0,0-.031-.093.107.107,0,0,0-.086-.041.112.112,0,0,0-.108.088.2.2,0,0,0-.01.069v.046h-.179v-.032Z" fill="#fff"/>
          <path id="Caminho_619" data-name="Caminho 619" d="M566.946,468.513v-.927h-.155v-.127a.276.276,0,0,0,.124-.05.24.24,0,0,0,.085-.1h.127v1.2Z" fill="#fff"/>
          <path id="Caminho_620" data-name="Caminho 620" d="M567.252,467.82h.538V468h-.538Z" fill="#fff"/>
          <path id="Caminho_621" data-name="Caminho 621" d="M568.07,468.513v-.927h-.155v-.127a.28.28,0,0,0,.125-.05.255.255,0,0,0,.085-.1h.127v1.2Z" fill="#fff"/>
          <path id="Caminho_622" data-name="Caminho 622" d="M568.4,468.07l.322-.763h.181v.763h.116v.183H568.9v.259h-.181v-.259H568.4v-.183Zm.321,0v-.376l-.15.376Z" fill="#fff"/>
          <path id="Caminho_623" data-name="Caminho 623" d="M569.14,468.07l.321-.763h.182v.763h.116v.183h-.116v.259h-.182v-.259h-.32v-.183Zm.321,0v-.376l-.15.376Z" fill="#fff"/>
          <path id="Caminho_624" data-name="Caminho 624" d="M569.884,468.07l.321-.763h.182v.763h.116v.183h-.116v.259h-.182v-.259h-.321Zm.321,0v-.376l-.15.376Z" fill="#fff"/>
        </g>
      </g>
    </g>
  </g>
</svg>
