<svg xmlns="http://www.w3.org/2000/svg" width="134.64" height="131.872" viewBox="0 0 134.64 131.872">
  <g id="site-e-landing-page-icon" transform="translate(-1011.007 -342.717)">
    <circle id="Background_2" data-name="Background 2" cx="65.936" cy="65.936" r="65.936" transform="translate(1012.391 342.717)" fill="#f37f72"/>
    <g id="Coding">
      <g id="Grupo_610" data-name="Grupo 610">
        <path id="Caminho_646" data-name="Caminho 646" d="M1080.106,452.664a.91.91,0,0,1-.908.908h-45.055a.911.911,0,0,1-.909-.908V436.44a.911.911,0,0,1,.909-.908H1079.2a.91.91,0,0,1,.908.908Z" fill="#f1f2f2"/>
        <rect id="Retângulo_341" data-name="Retângulo 341" width="44.45" height="15.321" transform="translate(1034.445 436.891)" fill="#d1d3d4"/>
        <g id="Grupo_609" data-name="Grupo 609">
          <rect id="Retângulo_342" data-name="Retângulo 342" width="2.453" height="2.453" transform="translate(1035.065 437.511)" fill="#fff"/>
          <rect id="Retângulo_343" data-name="Retângulo 343" width="2.453" height="2.453" transform="translate(1039.135 437.511)" fill="#fff"/>
          <rect id="Retângulo_344" data-name="Retângulo 344" width="2.453" height="2.453" transform="translate(1043.204 437.511)" fill="#fff"/>
          <rect id="Retângulo_345" data-name="Retângulo 345" width="2.453" height="2.453" transform="translate(1047.273 437.511)" fill="#fff"/>
          <rect id="Retângulo_346" data-name="Retângulo 346" width="2.453" height="2.453" transform="translate(1051.343 437.511)" fill="#fff"/>
          <rect id="Retângulo_347" data-name="Retângulo 347" width="2.453" height="2.453" transform="translate(1055.412 437.511)" fill="#fff"/>
          <rect id="Retângulo_348" data-name="Retângulo 348" width="2.453" height="2.453" transform="translate(1059.482 437.511)" fill="#fff"/>
          <rect id="Retângulo_349" data-name="Retângulo 349" width="2.453" height="2.453" transform="translate(1063.551 437.511)" fill="#fff"/>
          <rect id="Retângulo_350" data-name="Retângulo 350" width="2.453" height="2.453" transform="translate(1067.621 437.511)" fill="#fff"/>
          <rect id="Retângulo_351" data-name="Retângulo 351" width="2.453" height="2.453" transform="translate(1071.691 437.511)" fill="#fff"/>
          <rect id="Retângulo_352" data-name="Retângulo 352" width="2.453" height="2.453" transform="translate(1075.76 437.511)" fill="#fff"/>
          <rect id="Retângulo_353" data-name="Retângulo 353" width="2.453" height="2.453" transform="translate(1035.075 441.387)" fill="#fff"/>
          <rect id="Retângulo_354" data-name="Retângulo 354" width="2.453" height="2.453" transform="translate(1039.145 441.387)" fill="#fff"/>
          <rect id="Retângulo_355" data-name="Retângulo 355" width="2.453" height="2.453" transform="translate(1043.214 441.387)" fill="#fff"/>
          <rect id="Retângulo_356" data-name="Retângulo 356" width="2.453" height="2.453" transform="translate(1047.284 441.387)" fill="#fff"/>
          <rect id="Retângulo_357" data-name="Retângulo 357" width="2.453" height="2.453" transform="translate(1051.354 441.387)" fill="#fff"/>
          <rect id="Retângulo_358" data-name="Retângulo 358" width="2.453" height="2.453" transform="translate(1055.423 441.387)" fill="#fff"/>
          <rect id="Retângulo_359" data-name="Retângulo 359" width="2.453" height="2.453" transform="translate(1059.493 441.387)" fill="#fff"/>
          <rect id="Retângulo_360" data-name="Retângulo 360" width="2.453" height="2.453" transform="translate(1063.562 441.387)" fill="#fff"/>
          <rect id="Retângulo_361" data-name="Retângulo 361" width="2.453" height="2.453" transform="translate(1067.631 441.387)" fill="#fff"/>
          <rect id="Retângulo_362" data-name="Retângulo 362" width="2.453" height="2.453" transform="translate(1071.701 441.387)" fill="#fff"/>
          <rect id="Retângulo_363" data-name="Retângulo 363" width="2.453" height="2.453" transform="translate(1075.77 441.387)" fill="#fff"/>
          <rect id="Retângulo_364" data-name="Retângulo 364" width="2.453" height="2.452" transform="translate(1035.086 445.263)" fill="#fff"/>
          <rect id="Retângulo_365" data-name="Retângulo 365" width="2.453" height="2.452" transform="translate(1039.155 445.263)" fill="#fff"/>
          <rect id="Retângulo_366" data-name="Retângulo 366" width="2.453" height="2.452" transform="translate(1043.225 445.263)" fill="#fff"/>
          <rect id="Retângulo_367" data-name="Retângulo 367" width="2.453" height="2.452" transform="translate(1047.294 445.263)" fill="#fff"/>
          <rect id="Retângulo_368" data-name="Retângulo 368" width="2.453" height="2.452" transform="translate(1051.364 445.263)" fill="#fff"/>
          <rect id="Retângulo_369" data-name="Retângulo 369" width="2.453" height="2.452" transform="translate(1055.433 445.263)" fill="#fff"/>
          <rect id="Retângulo_370" data-name="Retângulo 370" width="2.453" height="2.452" transform="translate(1059.503 445.263)" fill="#fff"/>
          <rect id="Retângulo_371" data-name="Retângulo 371" width="2.453" height="2.452" transform="translate(1063.572 445.263)" fill="#fff"/>
          <rect id="Retângulo_372" data-name="Retângulo 372" width="2.453" height="2.452" transform="translate(1071.711 445.263)" fill="#fff"/>
          <rect id="Retângulo_373" data-name="Retângulo 373" width="2.453" height="2.453" transform="translate(1035.096 449.138)" fill="#fff"/>
          <rect id="Retângulo_374" data-name="Retângulo 374" width="2.453" height="2.453" transform="translate(1039.166 449.138)" fill="#fff"/>
          <path id="Caminho_647" data-name="Caminho 647" d="M1055.444,449.138l-.031.045v-.045h-12.177v2.453H1057.9v-2.453Z" fill="#fff"/>
          <rect id="Retângulo_375" data-name="Retângulo 375" width="2.453" height="2.453" transform="translate(1059.513 449.138)" fill="#fff"/>
          <rect id="Retângulo_376" data-name="Retângulo 376" width="2.453" height="2.453" transform="translate(1063.583 449.138)" fill="#fff"/>
          <rect id="Retângulo_377" data-name="Retângulo 377" width="2.453" height="2.453" transform="translate(1067.652 449.138)" fill="#fff"/>
          <rect id="Retângulo_378" data-name="Retângulo 378" width="2.453" height="2.453" transform="translate(1071.722 449.138)" fill="#fff"/>
          <rect id="Retângulo_379" data-name="Retângulo 379" width="2.453" height="2.453" transform="translate(1075.791 449.138)" fill="#fff"/>
        </g>
      </g>
      <g id="Grupo_611" data-name="Grupo 611">
        <rect id="Retângulo_380" data-name="Retângulo 380" width="7.086" height="3.378" transform="translate(1064.224 469.905)" fill="#07162c"/>
        <path id="Caminho_648" data-name="Caminho 648" d="M1073.383,455.167a.868.868,0,1,0-1.736,0h0v2.36h-.861v-3.786h0a.868.868,0,1,0-1.736,0h0v3.786h-.86v-5.109h0a.868.868,0,0,0-1.736,0h0v5.109h-.845v-7.5h0l0-.021a.868.868,0,1,0-1.736,0l0,.021h0v12.11l-1.233-.571v-2.3c2.043-1.766.5-2.853.5-2.853l-2.427,1.882v6.84l3.516,4.767h7.086l2.073-4.508V455.166h0Z" fill="#ffe373"/>
      </g>
      <g id="Grupo_612" data-name="Grupo 612">
        <rect id="Retângulo_381" data-name="Retângulo 381" width="7.086" height="3.377" transform="translate(1041.413 462.571)" fill="#07162c"/>
        <path id="Caminho_649" data-name="Caminho 649" d="M1039.34,447.833a.868.868,0,0,1,1.736,0h0v2.361h.861v-3.787h0a.868.868,0,1,1,1.736,0h0v3.787h.861v-5.109h0a.868.868,0,1,1,1.736,0h0v5.109h.845v-7.5h0l0-.021a.868.868,0,0,1,1.736,0l0,.021h0V454.8l1.232-.571v-2.3c-2.042-1.765-.5-2.853-.5-2.853l2.428,1.882v6.84l-3.516,4.767h-7.086l-2.073-4.508v-10.23Z" fill="#ffe373"/>
      </g>
      <g id="Grupo_616" data-name="Grupo 616">
        <g id="Grupo_613" data-name="Grupo 613">
          <path id="Caminho_650" data-name="Caminho 650" d="M1142.872,385.7l.994-.994-2.56-2.559-1.089,1.089a8.085,8.085,0,0,0-2.254-.885v-1.539h-3.62v1.54a8.083,8.083,0,0,0-2.7,1.158l-1.064-1.064-2.56,2.56,1.133,1.132a8.062,8.062,0,0,0-.928,2.329h-1.54v3.619h1.54a8.1,8.1,0,0,0,.956,2.378l-1.382,1.383,2.56,2.559,1.333-1.333a8.069,8.069,0,0,0,2.648,1.128v1.54h3.62V398.2a8.068,8.068,0,0,0,2.376-.955l1.16,1.16,2.56-2.559-1.11-1.11a8.085,8.085,0,0,0,1.129-2.651h1.569v-3.619h-1.569A8.082,8.082,0,0,0,1142.872,385.7Zm-6.7,10.451a5.875,5.875,0,1,1,5.875-5.875A5.875,5.875,0,0,1,1136.168,396.152Z" fill="#0f142b"/>
          <circle id="Elipse_31" data-name="Elipse 31" cx="4.272" cy="4.272" r="4.272" transform="translate(1131.895 386.005)" fill="#0f142b"/>
        </g>
        <g id="Grupo_614" data-name="Grupo 614">
          <path id="Caminho_651" data-name="Caminho 651" d="M1133.625,402l.528-.529-1.361-1.361-.58.579a4.287,4.287,0,0,0-1.2-.47V399.4h-1.926v.819a4.285,4.285,0,0,0-1.433.616l-.566-.566-1.362,1.361.6.6a4.3,4.3,0,0,0-.494,1.238h-.819V405.4h.819a4.31,4.31,0,0,0,.509,1.265l-.735.735,1.361,1.361.709-.708a4.3,4.3,0,0,0,1.408.6v.819h1.926v-.819a4.271,4.271,0,0,0,1.264-.508l.616.617,1.362-1.361-.591-.591a4.284,4.284,0,0,0,.6-1.409h.834v-1.925h-.834A4.315,4.315,0,0,0,1133.625,402Zm-3.566,5.558a3.125,3.125,0,1,1,3.124-3.125A3.125,3.125,0,0,1,1130.059,407.562Z" fill="#0f142b"/>
          <circle id="Elipse_32" data-name="Elipse 32" cx="2.272" cy="2.272" r="2.272" transform="translate(1127.787 402.165)" fill="#0f142b"/>
        </g>
        <g id="Grupo_615" data-name="Grupo 615">
          <path id="Caminho_652" data-name="Caminho 652" d="M1142.535,402.323l.31-.31-.8-.8-.341.341a2.492,2.492,0,0,0-.7-.277V400.8h-1.131v.481a2.5,2.5,0,0,0-.842.362l-.333-.333-.8.8.354.354a2.524,2.524,0,0,0-.29.727h-.481v1.131h.481a2.5,2.5,0,0,0,.3.743l-.432.432.8.8.417-.416a2.516,2.516,0,0,0,.827.352v.481H1141v-.481a2.511,2.511,0,0,0,.742-.3l.363.362.8-.8-.346-.347a2.54,2.54,0,0,0,.352-.828h.491v-1.131h-.491A2.517,2.517,0,0,0,1142.535,402.323Zm-2.1,3.265a1.836,1.836,0,1,1,1.836-1.835A1.836,1.836,0,0,1,1140.44,405.588Z" fill="#0f142b"/>
          <circle id="Elipse_33" data-name="Elipse 33" cx="1.335" cy="1.335" r="1.335" transform="translate(1139.106 402.418)" fill="#0f142b"/>
        </g>
      </g>
      <g id="Grupo_617" data-name="Grupo 617">
        <path id="Caminho_653" data-name="Caminho 653" d="M1138.525,354.483a4.531,4.531,0,0,0-3.316-1.114v0l-.046,0-.046,0v0a4.468,4.468,0,0,0-3.291,1.114,2.341,2.341,0,0,0-.652,1.6v8.758h1.648v-8.767l0-.054a.787.787,0,0,1,.21-.412,3.053,3.053,0,0,1,2.146-.593c1.818.006,2.333.634,2.353,1.017v8.81h1.648v-8.759A2.34,2.34,0,0,0,1138.525,354.483Z" fill="#0f142b"/>
        <path id="Caminho_654" data-name="Caminho 654" d="M1137.158,359.874a7.65,7.65,0,1,0,5.668,7.389A7.618,7.618,0,0,0,1137.158,359.874Zm-1.982,4.74a1.871,1.871,0,0,1,.7,3.6v2.544h-1.4v-2.544a1.871,1.871,0,0,1,.7-3.6Z" fill="#ffc54e"/>
        <path id="Caminho_655" data-name="Caminho 655" d="M1137.158,359.874a7.651,7.651,0,0,1-5.331,14.268,7.651,7.651,0,1,0,5.331-14.268Z" fill="#231f20" opacity="0.1" style="isolation: isolate"/>
      </g>
      <g id="Grupo_619" data-name="Grupo 619">
        <path id="Caminho_656" data-name="Caminho 656" d="M1140.516,452.737a1.988,1.988,0,0,1-1.983,1.983h-41.789a1.988,1.988,0,0,1-1.983-1.983v-28a1.988,1.988,0,0,1,1.983-1.983h41.789a1.989,1.989,0,0,1,1.983,1.983v28Z" fill="#fff"/>
        <path id="Caminho_657" data-name="Caminho 657" d="M1138.533,422.755h-41.789a1.988,1.988,0,0,0-1.983,1.983v2.306h45.755v-2.306A1.988,1.988,0,0,0,1138.533,422.755Z" fill="#d1d3d4"/>
        <g id="Grupo_618" data-name="Grupo 618">
          <path id="Caminho_658" data-name="Caminho 658" d="M1106.058,441.662v-1.827l7.148-3.835v2.39l-4.939,2.349,4.939,2.369V445.5Z" fill="#aadfed"/>
          <path id="Caminho_659" data-name="Caminho 659" d="M1120.8,433.35l-4.4,14.8h-2.088l4.377-14.8Z" fill="#aadfed"/>
          <path id="Caminho_660" data-name="Caminho 660" d="M1121.9,445.5v-2.389l4.939-2.369-4.939-2.349V436l7.148,3.835v1.827Z" fill="#aadfed"/>
        </g>
        <circle id="Elipse_34" data-name="Elipse 34" cx="1.289" cy="1.289" r="1.289" transform="translate(1127.414 423.631)" fill="#faf071"/>
        <circle id="Elipse_35" data-name="Elipse 35" cx="1.289" cy="1.289" r="1.289" transform="translate(1131.05 423.631)" fill="#ee1e3b"/>
        <circle id="Elipse_36" data-name="Elipse 36" cx="1.289" cy="1.289" r="1.289" transform="translate(1134.851 423.631)" fill="#4993cf"/>
      </g>
      <g id="Grupo_625" data-name="Grupo 625">
        <rect id="Retângulo_382" data-name="Retângulo 382" width="18.098" height="11.701" transform="translate(1068.948 417.898)" fill="#d1d3d4"/>
        <g id="Grupo_620" data-name="Grupo 620">
          <path id="Caminho_661" data-name="Caminho 661" d="M1122.76,417.791a2.35,2.35,0,0,1-2.344,2.343h-84.838a2.35,2.35,0,0,1-2.344-2.343V355.71a2.351,2.351,0,0,1,2.344-2.344h84.838a2.35,2.35,0,0,1,2.343,2.344v62.081Z" fill="#d1d3d4"/>
        </g>
        <path id="Caminho_662" data-name="Caminho 662" d="M1120.416,353.366h-84.838a2.351,2.351,0,0,0-2.344,2.344v52.9l89.526-.132V355.71A2.351,2.351,0,0,0,1120.416,353.366Z" fill="#0f142b"/>
        <rect id="Retângulo_383" data-name="Retângulo 383" width="83.626" height="48.736" transform="translate(1036.183 356.445)" fill="#e6e7e8"/>
        <rect id="Retângulo_384" data-name="Retângulo 384" width="25.347" height="4.328" transform="translate(1065.323 428.47)" fill="#d1d3d4"/>
        <rect id="Retângulo_385" data-name="Retângulo 385" width="18.098" height="2.821" transform="translate(1068.948 420.38)" opacity="0.1" style="isolation: isolate"/>
        <circle id="Elipse_37" data-name="Elipse 37" cx="2.179" cy="2.179" r="2.179" transform="translate(1075.818 411.717)" fill="#0f142b"/>
        <rect id="Retângulo_386" data-name="Retângulo 386" width="83.626" height="5.455" transform="translate(1036.183 356.445)" fill="#fff"/>
        <circle id="Elipse_38" data-name="Elipse 38" cx="1.289" cy="1.289" r="1.289" transform="translate(1108.3 357.883)" fill="#e6e7e8"/>
        <circle id="Elipse_39" data-name="Elipse 39" cx="1.289" cy="1.289" r="1.289" transform="translate(1111.936 357.883)" fill="#e6e7e8"/>
        <circle id="Elipse_40" data-name="Elipse 40" cx="1.289" cy="1.289" r="1.289" transform="translate(1115.736 357.883)" fill="#e6e7e8"/>
        <g id="Grupo_624" data-name="Grupo 624">
          <g id="Grupo_623" data-name="Grupo 623">
            <g id="Grupo_622" data-name="Grupo 622">
              <g id="Grupo_621" data-name="Grupo 621">
                <path id="Caminho_663" data-name="Caminho 663" d="M1064.72,372.4a.161.161,0,0,0,0-.033Z" fill="#716558"/>
              </g>
              <rect id="Retângulo_387" data-name="Retângulo 387" width="0.001" height="1.045" transform="translate(1069.31 381.739) rotate(-79.252)" fill="#9a8379"/>
            </g>
          </g>
          <rect id="Retângulo_388" data-name="Retângulo 388" width="7.932" height="2.423" transform="translate(1048.406 364.84)" fill="#69c8f2"/>
          <rect id="Retângulo_389" data-name="Retângulo 389" width="7.932" height="2.423" transform="translate(1060.754 370.643)" fill="#69c8f2"/>
          <rect id="Retângulo_390" data-name="Retângulo 390" width="7.932" height="2.423" transform="translate(1048.406 370.643)" fill="#ef3a50"/>
          <rect id="Retângulo_391" data-name="Retângulo 391" width="7.932" height="2.423" transform="translate(1048.406 376.446)" fill="#69c8f2"/>
          <rect id="Retângulo_392" data-name="Retângulo 392" width="20.038" height="2.423" transform="translate(1060.758 376.446)" fill="#7ac9ac"/>
          <rect id="Retângulo_393" data-name="Retângulo 393" width="20.038" height="2.423" transform="translate(1072.788 382.249)" fill="#7ac9ac"/>
          <rect id="Retângulo_394" data-name="Retângulo 394" width="6.57" height="2.423" transform="translate(1059.286 364.84)" fill="#7ac9ac"/>
          <rect id="Retângulo_395" data-name="Retângulo 395" width="20.038" height="2.423" transform="translate(1064.6 388.052)" fill="#7ac9ac"/>
          <rect id="Retângulo_396" data-name="Retângulo 396" width="20.038" height="2.423" transform="translate(1060.313 393.854)" fill="#ef3a50"/>
          <rect id="Retângulo_397" data-name="Retângulo 397" width="10.019" height="2.423" transform="translate(1084.644 393.338)" fill="#ef3a50"/>
          <rect id="Retângulo_398" data-name="Retângulo 398" width="10.019" height="2.423" transform="translate(1096.08 393.338)" fill="#ef3a50"/>
          <rect id="Retângulo_399" data-name="Retângulo 399" width="20.038" height="2.423" transform="translate(1084.644 399.742)" fill="#7ac9ac"/>
          <rect id="Retângulo_400" data-name="Retângulo 400" width="20.28" height="2.423" transform="translate(1048.406 382.249)" fill="#ef3a50"/>
          <rect id="Retângulo_401" data-name="Retângulo 401" width="12.352" height="2.423" transform="translate(1048.406 388.052)" fill="#69c8f2"/>
          <rect id="Retângulo_402" data-name="Retângulo 402" width="7.932" height="2.423" transform="translate(1048.406 393.854)" fill="#7ac9ac"/>
          <rect id="Retângulo_403" data-name="Retângulo 403" width="32.39" height="2.423" transform="translate(1048.406 399.657)" fill="#69c8f2"/>
        </g>
      </g>
      <g id="Grupo_626" data-name="Grupo 626">
        <path id="Caminho_664" data-name="Caminho 664" d="M1068.084,430.981a1.823,1.823,0,0,1-1.817,1.817h-48.694a1.823,1.823,0,0,1-1.817-1.817V395.495a1.822,1.822,0,0,1,1.817-1.817h48.694a1.822,1.822,0,0,1,1.817,1.817Z" fill="#0f142b"/>
        <rect id="Retângulo_404" data-name="Retângulo 404" width="46.663" height="30.504" transform="translate(1018.589 396.231)" fill="#fff"/>
        <path id="Caminho_665" data-name="Caminho 665" d="M1071.586,429.228H1048.06v.789h-12.28v-.789h-24.773v2.323a1.25,1.25,0,0,0,1.247,1.247h59.332a1.25,1.25,0,0,0,1.247-1.247v-2.323Z" fill="#f58120"/>
        <rect id="Retângulo_405" data-name="Retângulo 405" width="7.536" height="2.975" transform="translate(1023.018 400.725)" fill="#2bb673"/>
        <rect id="Retângulo_406" data-name="Retângulo 406" width="7.536" height="6.262" transform="translate(1023.018 407.996)" fill="#2bb673"/>
        <rect id="Retângulo_407" data-name="Retângulo 407" width="7.536" height="6.262" transform="translate(1047.877 407.996)" fill="#2bb673"/>
        <rect id="Retângulo_408" data-name="Retângulo 408" width="7.536" height="2.975" transform="translate(1032.555 400.725)" fill="#2bb673"/>
        <rect id="Retângulo_409" data-name="Retângulo 409" width="7.536" height="2.975" transform="translate(1032.555 407.996)" fill="#2bb673"/>
        <rect id="Retângulo_410" data-name="Retângulo 410" width="7.536" height="2.975" transform="translate(1048.236 418.555)" fill="#2bb673"/>
        <rect id="Retângulo_411" data-name="Retângulo 411" width="17.592" height="2.975" transform="translate(1044.072 400.725)" fill="#2bb673"/>
        <rect id="Retângulo_412" data-name="Retângulo 412" width="0.719" height="4.297" transform="translate(1051.285 403.7)" fill="#2bb673"/>
        <rect id="Retângulo_413" data-name="Retângulo 413" width="0.719" height="4.297" transform="translate(1051.645 414.258)" fill="#2bb673"/>
        <rect id="Retângulo_414" data-name="Retângulo 414" width="0.718" height="4.297" transform="translate(1026.427 403.7)" fill="#2bb673"/>
        <rect id="Retângulo_415" data-name="Retângulo 415" width="0.718" height="4.297" transform="translate(1035.963 403.7)" fill="#2bb673"/>
        <rect id="Retângulo_416" data-name="Retângulo 416" width="4.297" height="0.719" transform="translate(1039.921 401.853)" fill="#2bb673"/>
        <rect id="Retângulo_417" data-name="Retângulo 417" width="4.297" height="0.718" transform="translate(1029.361 409.483)" fill="#2bb673"/>
      </g>
      <g id="Grupo_627" data-name="Grupo 627">
        <path id="Caminho_666" data-name="Caminho 666" d="M1088.917,436h-3.559a2.177,2.177,0,0,0-2.17,2.171v9.636a2.176,2.176,0,0,0,2.17,2.17h3.559a2.176,2.176,0,0,0,2.17-2.17v-9.636A2.176,2.176,0,0,0,1088.917,436Z" fill="#d1d3d4"/>
        <path id="Caminho_667" data-name="Caminho 667" d="M1088.917,436h-3.559a2.177,2.177,0,0,0-2.17,2.171v3.617h7.9v-3.617A2.177,2.177,0,0,0,1088.917,436Z" fill="#231f20" opacity="0.1" style="isolation: isolate"/>
        <path id="Caminho_668" data-name="Caminho 668" d="M1087.517,440.587a.383.383,0,1,1-.759,0v-1.259a.383.383,0,1,1,.759,0Z" fill="#fff"/>
        <path id="Caminho_669" data-name="Caminho 669" d="M1091.088,441.788v-3.617a2.177,2.177,0,0,0-2.171-2.17h-1.779v5.787Z" fill="#231f20" opacity="0.2" style="isolation: isolate"/>
      </g>
    </g>
  </g>
</svg>
