<svg xmlns="http://www.w3.org/2000/svg" width="132.176" height="131.872" viewBox="0 0 132.176 131.872">
  <g id="social-media-icon" transform="translate(-770.504 -344.03)">
    <circle id="Background" cx="65.936" cy="65.936" r="65.936" transform="translate(770.655 344.03)" fill="#f7926b"/>
    <g id="social-media-icon-2" data-name="social-media-icon">
      <g id="Grupo_602" data-name="Grupo 602">
        <g id="Grupo_588" data-name="Grupo 588">
          <rect id="Retângulo_327" data-name="Retângulo 327" width="59.059" height="116.67" rx="5.874" transform="translate(808.013 351.631)" fill="#002961"/>
          <rect id="Retângulo_328" data-name="Retângulo 328" width="51.838" height="95.03" transform="translate(811.66 356.079)" fill="#fff"/>
          <rect id="Retângulo_329" data-name="Retângulo 329" width="11.982" height="1.366" transform="translate(831.551 459.35)" fill="#2149ab"/>
        </g>
        <g id="Grupo_589" data-name="Grupo 589">
          <path id="Caminho_626" data-name="Caminho 626" d="M827.458,368.338l1.232,2.5,2.755.4-1.994,1.944.471,2.744-2.465-1.3-2.465,1.3.471-2.744-1.994-1.944,2.755-.4Z" fill="#ecbd5c"/>
          <path id="Caminho_627" data-name="Caminho 627" d="M836.819,368.338l1.232,2.5,2.755.4-1.994,1.944.471,2.744-2.465-1.3-2.465,1.3.471-2.744-1.994-1.944,2.755-.4Z" fill="#ecbd5c"/>
          <path id="Caminho_628" data-name="Caminho 628" d="M846.181,368.338l1.232,2.5,2.755.4-1.994,1.944.471,2.744-2.465-1.3-2.465,1.3.471-2.744-1.994-1.944,2.755-.4Z" fill="#ecbd5c"/>
          <path id="Caminho_629" data-name="Caminho 629" d="M855.542,368.338l1.232,2.5,2.755.4-1.994,1.944.471,2.744-2.465-1.3-2.465,1.3.471-2.744-1.994-1.944,2.755-.4Z" fill="#ecbd5c"/>
        </g>
        <g id="Grupo_592" data-name="Grupo 592">
          <g id="Grupo_591" data-name="Grupo 591">
            <g id="Grupo_590" data-name="Grupo 590">
              <path id="Caminho_630" data-name="Caminho 630" d="M810.06,365.476a2.9,2.9,0,0,1,1.064-.685.874.874,0,0,1,.652.043l.662.347c.042.022.036.088-.009.092l-.845.079a.212.212,0,0,0-.184.157.542.542,0,0,1-.4.388l-.636.294Z" fill="#fddea2"/>
            </g>
          </g>
        </g>
        <path id="Caminho_631" data-name="Caminho 631" d="M816.65,356.658l1.916,7.172,6.994,2.488-6.229,4.038-.2,7.421L813.36,373.1l-7.121,2.1,2.666-6.929-4.2-6.124,7.413.395Z" fill="#ecbd5c"/>
        <g id="Grupo_595" data-name="Grupo 595">
          <g id="Grupo_594" data-name="Grupo 594">
            <g id="Grupo_593" data-name="Grupo 593">
              <path id="Caminho_632" data-name="Caminho 632" d="M805.851,373.645a2.911,2.911,0,0,1,1.262-.1.88.88,0,0,1,.554.348l.418.619c.027.04-.01.094-.052.077l-.78-.331a.212.212,0,0,0-.238.051.541.541,0,0,1-.533.154l-.7-.043Z" fill="#fddea2"/>
            </g>
          </g>
        </g>
        <rect id="Retângulo_330" data-name="Retângulo 330" width="43.846" height="0.713" transform="translate(815.684 382.456)" fill="#efeff4"/>
        <path id="Caminho_633" data-name="Caminho 633" d="M859.53,386.555l-3.155,2.112h-40.69v12.79H859.53Z" fill="#2149ab"/>
        <g id="Grupo_596" data-name="Grupo 596">
          <rect id="Retângulo_331" data-name="Retângulo 331" width="33.517" height="1.366" transform="translate(820.848 392.682)" fill="#fff"/>
          <rect id="Retângulo_332" data-name="Retângulo 332" width="20.821" height="1.366" transform="translate(820.848 396.239)" fill="#fff"/>
        </g>
        <rect id="Retângulo_333" data-name="Retângulo 333" width="13.768" height="12.979" transform="translate(815.684 432.905)" fill="#2149ab"/>
        <rect id="Retângulo_334" data-name="Retângulo 334" width="30.078" height="12.979" transform="translate(829.452 432.905)" fill="#efeff4"/>
        <g id="Grupo_597" data-name="Grupo 597">
          <path id="Caminho_634" data-name="Caminho 634" d="M832.308,419.469l.551.363a.83.83,0,0,1,.363.558l.118.716a.047.047,0,0,1-.081.039l-.581-.657a.242.242,0,0,0-.242-.074.615.615,0,0,1-.562-.135l-.25-.22Z" fill="#fddea2"/>
        </g>
        <path id="Caminho_635" data-name="Caminho 635" d="M829.452,426.576H859.53V408.97h-26.7l-3.38-1.847Z" fill="#5ac5d9"/>
        <g id="Grupo_598" data-name="Grupo 598">
          <rect id="Retângulo_335" data-name="Retângulo 335" width="6.611" height="1.366" transform="translate(834.714 413.419)" fill="#fff"/>
          <rect id="Retângulo_336" data-name="Retângulo 336" width="10.858" height="1.366" transform="translate(843.409 413.419)" fill="#fff"/>
          <rect id="Retângulo_337" data-name="Retângulo 337" width="19.554" height="1.366" transform="translate(834.714 417.092)" fill="#fff"/>
          <rect id="Retângulo_338" data-name="Retângulo 338" width="19.554" height="1.366" transform="translate(834.714 420.764)" fill="#fff"/>
        </g>
        <rect id="Retângulo_339" data-name="Retângulo 339" width="19.554" height="1.366" transform="translate(834.714 438.711)" fill="#2149ab"/>
        <g id="Grupo_599" data-name="Grupo 599">
          <circle id="Elipse_29" data-name="Elipse 29" cx="16.809" cy="16.809" r="16.809" transform="translate(853.941 433.197) rotate(-76.717)" fill="#ff5b5f"/>
          <path id="Caminho_636" data-name="Caminho 636" d="M874.235,433.485s9.209-8.709,11.465-12.655a5.871,5.871,0,0,0,.579-3.783,6.424,6.424,0,0,0-12.13-1.839,6.424,6.424,0,0,0-12.112,1.952,5.878,5.878,0,0,0,.614,3.777C864.944,424.863,874.235,433.485,874.235,433.485Z" fill="#fff"/>
          <path id="Caminho_637" data-name="Caminho 637" d="M861.926,432.222l-.478,3.05,4.2-1.787Z" fill="#ff5b5f"/>
        </g>
        <g id="Grupo_601" data-name="Grupo 601">
          <circle id="Elipse_30" data-name="Elipse 30" cx="10.279" cy="10.279" r="10.279" transform="translate(882.122 426.721)" fill="#ecbd5c"/>
          <g id="Grupo_600" data-name="Grupo 600">
            <path id="Caminho_638" data-name="Caminho 638" d="M896.133,436.22l-2.373.252a.552.552,0,0,1-.6-.455,1.512,1.512,0,0,1,.014-.592,6.606,6.606,0,0,0,.16-.981,1.487,1.487,0,0,0-.551-1.366.737.737,0,0,0-.22-.109.249.249,0,0,0-.311.247l-.038.978a1.5,1.5,0,0,1-.1.441l-.2.55a2.193,2.193,0,0,1-1.441,1.345l-.706.206h-.887v3.422h.887l.74.369a4.839,4.839,0,0,0,2.171.511h2.693a1.035,1.035,0,0,0,1.078-.815l.7-2.752A1.033,1.033,0,0,0,896.133,436.22Z" fill="#fff"/>
            <rect id="Retângulo_340" data-name="Retângulo 340" width="2.168" height="4.422" rx="0.394" transform="translate(887.634 436.244)" fill="#ff5b5f"/>
          </g>
          <path id="Caminho_639" data-name="Caminho 639" d="M880.134,438.031l2.9,2.635-.376-2.635Z" fill="#ecbd5c"/>
        </g>
        <path id="Caminho_640" data-name="Caminho 640" d="M848.354,359.245H826.73a2.156,2.156,0,0,1-1.831-1.017l-1.442-2.316h28.17l-1.442,2.316A2.156,2.156,0,0,1,848.354,359.245Z" fill="#002961"/>
      </g>
      <g id="Grupo_605" data-name="Grupo 605">
        <g id="Grupo_603" data-name="Grupo 603">
          <path id="Caminho_641" data-name="Caminho 641" d="M798.874,388.693l-27.507,19.479a2.055,2.055,0,0,0-.488,2.858l13.966,19.721a2.055,2.055,0,0,0,2.858.488l9.857-6.98,6.656,1.137,1.137-6.655,9.857-6.981a2.056,2.056,0,0,0,.488-2.858l-13.966-19.721A2.058,2.058,0,0,0,798.874,388.693Z" fill="#fff"/>
        </g>
        <g id="Grupo_604" data-name="Grupo 604">
          <path id="Caminho_642" data-name="Caminho 642" d="M792.922,418.053,798,416.624l1.646-4.091-12.3-10.112-.525.9Z" fill="#d4e7f8"/>
          <path id="Caminho_643" data-name="Caminho 643" d="M786.823,403.318l3.144,19.644,4.438-7.369Z" fill="#404ad0"/>
          <path id="Caminho_644" data-name="Caminho 644" d="M787.347,402.421l17.9,8.688-8.338,2.119Z" fill="#404ad0"/>
        </g>
      </g>
    </g>
  </g>
</svg>
